<?xml version="1.0" encoding="utf-8"?>
<!-- Generator: Adobe Illustrator 23.0.3, SVG Export Plug-In . SVG Version: 6.00 Build 0)  -->
<svg version="1.1" id="Layer_1" xmlns="http://www.w3.org/2000/svg" xmlns:xlink="http://www.w3.org/1999/xlink" x="0px" y="0px"
	 viewBox="0 0 566.9 566.9" style="enable-background:new 0 0 566.9 566.9;" xml:space="preserve">
<g>
	<path d="M281,131.7c0-1.8,1.4-3.2,3.2-3.2c1.8,0,3.2,1.4,3.2,3.2c0,1.8-1.4,3.2-3.2,3.2C282.5,134.9,281,133.5,281,131.7 M281,119
		c0-1.8,1.4-3.2,3.2-3.2c1.8,0,3.2,1.4,3.2,3.2c0,1.8-1.4,3.2-3.2,3.2C282.5,122.2,281,120.8,281,119 M281,106.3
		c0-1.8,1.4-3.2,3.2-3.2c1.8,0,3.2,1.4,3.2,3.2c0,1.8-1.4,3.2-3.2,3.2C282.5,109.6,281,108.1,281,106.3 M281,93.7
		c0-1.8,1.4-3.2,3.2-3.2c1.8,0,3.2,1.4,3.2,3.2c0,1.8-1.4,3.2-3.2,3.2C282.5,96.9,281,95.4,281,93.7 M281,81c0-1.8,1.4-3.2,3.2-3.2
		c1.8,0,3.2,1.4,3.2,3.2c0,1.8-1.4,3.2-3.2,3.2C282.5,84.2,281,82.8,281,81 M281,68.3c0-1.8,1.4-3.2,3.2-3.2c1.8,0,3.2,1.4,3.2,3.2
		c0,1.8-1.4,3.2-3.2,3.2C282.5,71.6,281,70.1,281,68.3 M281,55.7c0-1.8,1.4-3.2,3.2-3.2c1.8,0,3.2,1.4,3.2,3.2
		c0,1.8-1.4,3.2-3.2,3.2C282.5,58.9,281,57.4,281,55.7 M281,43c0-1.8,1.4-3.2,3.2-3.2c1.8,0,3.2,1.4,3.2,3.2c0,1.8-1.4,3.2-3.2,3.2
		C282.5,46.2,281,44.8,281,43"/>
	<path d="M265.2,132.8c-0.2-1.8,1.1-3.4,2.9-3.6c1.8-0.2,3.4,1.1,3.6,2.9c0.2,1.8-1.1,3.4-2.9,3.6c-0.1,0-0.2,0-0.3,0
		C266.8,135.7,265.3,134.5,265.2,132.8 M263.8,120.2c-0.2-1.8,1.1-3.4,2.9-3.6c1.8-0.2,3.4,1.1,3.6,2.9c0.2,1.8-1.1,3.4-2.9,3.6
		c-0.1,0-0.2,0-0.3,0C265.4,123.1,264,121.9,263.8,120.2 M262.5,107.6c-0.2-1.8,1.1-3.4,2.9-3.6c1.8-0.2,3.4,1.1,3.6,2.9
		c0.2,1.8-1.1,3.4-2.9,3.6c-0.1,0-0.2,0-0.3,0C264.1,110.5,262.7,109.3,262.5,107.6"/>
	<path d="M249.5,135.7c-0.4-1.7,0.7-3.5,2.5-3.8c1.8-0.4,3.5,0.7,3.8,2.5c0.4,1.8-0.7,3.5-2.5,3.8c-0.2,0-0.5,0.1-0.7,0.1
		C251.2,138.2,249.9,137.2,249.5,135.7 M246.9,123.3c-0.4-1.8,0.7-3.5,2.5-3.8c1.8-0.4,3.5,0.7,3.8,2.5c0.4,1.8-0.7,3.5-2.5,3.8
		c-0.2,0-0.5,0.1-0.7,0.1C248.6,125.8,247.2,124.8,246.9,123.3 M244.3,110.9c-0.4-1.7,0.7-3.5,2.5-3.8c1.8-0.4,3.5,0.7,3.8,2.5
		c0.4,1.7-0.7,3.5-2.5,3.8c-0.2,0-0.5,0.1-0.7,0.1C245.9,113.4,244.6,112.4,244.3,110.9 M241.6,98.5c-0.4-1.8,0.7-3.5,2.5-3.8
		s3.5,0.7,3.8,2.5c0.4,1.8-0.7,3.5-2.5,3.8c-0.2,0-0.5,0.1-0.7,0.1C243.3,101,242,100,241.6,98.5 M239,86.1
		c-0.4-1.7,0.7-3.5,2.5-3.8c1.8-0.4,3.5,0.7,3.8,2.5c0.4,1.8-0.7,3.5-2.5,3.8c-0.2,0-0.5,0.1-0.7,0.1
		C240.7,88.7,239.3,87.6,239,86.1 M236.4,73.7c-0.4-1.8,0.7-3.5,2.5-3.8c1.8-0.4,3.5,0.7,3.8,2.5c0.4,1.8-0.7,3.5-2.5,3.8
		c-0.2,0-0.5,0.1-0.7,0.1C238,76.3,236.7,75.2,236.4,73.7"/>
	<path d="M234.3,140.1c-0.5-1.7,0.4-3.5,2.1-4.1c1.7-0.6,3.5,0.4,4.1,2.1c0.6,1.7-0.4,3.5-2.1,4.1c-0.3,0.1-0.7,0.2-1,0.2
		C236,142.3,234.7,141.5,234.3,140.1 M230.4,128c-0.6-1.7,0.4-3.5,2.1-4.1c1.7-0.6,3.5,0.4,4.1,2.1c0.6,1.7-0.4,3.5-2.1,4.1
		c-0.3,0.1-0.7,0.2-1,0.2C232.1,130.3,230.8,129.4,230.4,128 M226.4,116c-0.6-1.7,0.4-3.5,2.1-4.1c1.7-0.6,3.5,0.4,4.1,2.1
		c0.6,1.7-0.4,3.5-2.1,4.1c-0.3,0.1-0.7,0.2-1,0.2C228.2,118.2,226.9,117.4,226.4,116 M222.5,104c-0.6-1.7,0.4-3.5,2.1-4.1
		c1.7-0.6,3.5,0.4,4.1,2.1c0.6,1.7-0.4,3.5-2.1,4.1c-0.3,0.1-0.7,0.2-1,0.2C224.2,106.2,223,105.3,222.5,104 M218.6,91.9
		c-0.6-1.7,0.4-3.5,2.1-4.1c1.7-0.6,3.5,0.4,4.1,2.1c0.6,1.7-0.4,3.5-2.1,4.1c-0.3,0.1-0.7,0.2-1,0.2
		C220.3,94.1,219.1,93.3,218.6,91.9 M214.7,79.9c-0.5-1.7,0.4-3.5,2.1-4.1c1.7-0.6,3.5,0.4,4.1,2.1c0.5,1.7-0.4,3.5-2.1,4.1
		c-0.3,0.1-0.7,0.2-1,0.2C216.4,82.1,215.1,81.2,214.7,79.9 M210.8,67.8c-0.6-1.7,0.4-3.5,2.1-4.1c1.7-0.6,3.5,0.4,4.1,2.1
		c0.6,1.7-0.4,3.5-2.1,4.1c-0.3,0.1-0.7,0.2-1,0.2C212.5,70,211.2,69.2,210.8,67.8 M206.9,55.8c-0.6-1.7,0.4-3.5,2.1-4.1
		c1.7-0.5,3.5,0.4,4.1,2.1c0.6,1.7-0.4,3.5-2.1,4.1c-0.3,0.1-0.7,0.2-1,0.2C208.6,58,207.3,57.1,206.9,55.8"/>
	<path d="M219.6,146.1c-0.7-1.6,0-3.5,1.6-4.3c1.6-0.7,3.6,0,4.3,1.6c0.7,1.6,0,3.5-1.6,4.3c-0.4,0.2-0.9,0.3-1.3,0.3
		C221.3,148,220.1,147.3,219.6,146.1 M214.4,134.5c-0.7-1.6,0-3.6,1.6-4.3c1.6-0.7,3.5,0,4.3,1.6c0.7,1.6,0,3.5-1.6,4.3
		c-0.4,0.2-0.9,0.3-1.3,0.3C216.1,136.5,214.9,135.7,214.4,134.5 M209.3,123c-0.7-1.6,0-3.6,1.6-4.3c1.6-0.7,3.6,0,4.3,1.6
		c0.7,1.6,0,3.6-1.6,4.3c-0.4,0.2-0.9,0.3-1.3,0.3C211,124.9,209.8,124.2,209.3,123 M204.1,111.4c-0.7-1.6,0-3.6,1.6-4.3
		c1.6-0.7,3.5,0,4.3,1.6c0.7,1.6,0,3.6-1.6,4.3c-0.4,0.2-0.9,0.3-1.3,0.3C205.8,113.3,204.6,112.6,204.1,111.4 M198.9,99.8
		c-0.7-1.6,0-3.6,1.6-4.3c1.6-0.7,3.6,0,4.3,1.6c0.7,1.6,0,3.6-1.6,4.3c-0.4,0.2-0.9,0.3-1.3,0.3C200.7,101.7,199.5,101,198.9,99.8
		 M193.8,88.2c-0.7-1.6,0-3.5,1.6-4.3c1.6-0.7,3.5,0,4.3,1.6c0.7,1.6,0,3.6-1.6,4.3c-0.4,0.2-0.9,0.3-1.3,0.3
		C195.5,90.2,194.3,89.4,193.8,88.2 M188.6,76.7c-0.7-1.6,0-3.5,1.6-4.3c1.6-0.7,3.6,0,4.3,1.6c0.7,1.6,0,3.5-1.6,4.3
		c-0.4,0.2-0.9,0.3-1.3,0.3C190.4,78.6,189.2,77.9,188.6,76.7 M183.5,65.1c-0.7-1.6,0-3.5,1.6-4.3c1.6-0.7,3.5,0,4.3,1.6
		c0.7,1.6,0,3.5-1.6,4.3c-0.4,0.2-0.9,0.3-1.3,0.3C185.2,67,184,66.3,183.5,65.1 M178.3,53.5c-0.7-1.6,0-3.6,1.6-4.3
		c1.6-0.7,3.6,0,4.3,1.6c0.7,1.6,0,3.5-1.6,4.3c-0.4,0.2-0.9,0.3-1.3,0.3C180.1,55.4,178.9,54.7,178.3,53.5 M173.2,42
		c-0.7-1.6,0-3.5,1.6-4.3c1.6-0.7,3.5,0,4.3,1.6c0.7,1.6,0,3.6-1.6,4.3c-0.4,0.2-0.9,0.3-1.3,0.3C174.9,43.9,173.7,43.2,173.2,42"/>
	<path d="M205.6,153.6c-0.9-1.5-0.4-3.5,1.2-4.4c1.5-0.9,3.5-0.4,4.4,1.2c0.9,1.5,0.4,3.5-1.2,4.4c-0.5,0.3-1.1,0.4-1.6,0.4
		C207.2,155.2,206.2,154.7,205.6,153.6 M199.2,142.6c-0.9-1.5-0.4-3.5,1.2-4.4c1.5-0.9,3.5-0.4,4.4,1.2c0.9,1.5,0.4,3.5-1.2,4.4
		c-0.5,0.3-1.1,0.4-1.6,0.4C200.9,144.3,199.8,143.7,199.2,142.6 M192.9,131.7c-0.9-1.5-0.4-3.5,1.2-4.4c1.5-0.9,3.5-0.4,4.4,1.2
		c0.9,1.5,0.4,3.5-1.2,4.4c-0.5,0.3-1.1,0.4-1.6,0.4C194.6,133.3,193.5,132.7,192.9,131.7 M186.6,120.7c-0.9-1.5-0.4-3.5,1.2-4.4
		c1.6-0.9,3.5-0.4,4.4,1.2c0.9,1.5,0.4,3.5-1.2,4.4c-0.5,0.3-1.1,0.4-1.6,0.4C188.2,122.3,187.2,121.7,186.6,120.7 M180.2,109.7
		c-0.9-1.5-0.4-3.5,1.2-4.4c1.6-0.9,3.5-0.4,4.4,1.2c0.9,1.5,0.4,3.5-1.2,4.4c-0.5,0.3-1.1,0.4-1.6,0.4
		C181.9,111.4,180.8,110.8,180.2,109.7 M173.9,98.8c-0.9-1.5-0.4-3.5,1.2-4.4c1.6-0.9,3.5-0.4,4.4,1.2c0.9,1.6,0.4,3.5-1.2,4.4
		c-0.5,0.3-1.1,0.4-1.6,0.4C175.6,100.4,174.5,99.8,173.9,98.8"/>
	<path d="M192.4,162.6c-1-1.4-0.7-3.5,0.7-4.5c1.5-1.1,3.5-0.7,4.5,0.7c1.1,1.4,0.7,3.5-0.7,4.5c-0.6,0.4-1.2,0.6-1.9,0.6
		C194,163.9,193,163.4,192.4,162.6"/>
	<path d="M180.3,172.8c-1.2-1.3-1.1-3.4,0.2-4.6c1.3-1.2,3.4-1.1,4.6,0.2c1.2,1.3,1.1,3.4-0.2,4.6c-0.6,0.6-1.4,0.8-2.2,0.8
		C181.8,173.9,180.9,173.5,180.3,172.8 M171.8,163.4c-1.2-1.3-1.1-3.4,0.2-4.6c1.3-1.2,3.4-1.1,4.6,0.2c1.2,1.3,1.1,3.4-0.2,4.6
		c-0.6,0.6-1.4,0.8-2.2,0.8C173.3,164.5,172.4,164.1,171.8,163.4 M163.3,154c-1.2-1.3-1.1-3.4,0.2-4.6c1.3-1.2,3.4-1.1,4.6,0.2
		c1.2,1.3,1.1,3.4-0.2,4.6c-0.6,0.6-1.4,0.8-2.2,0.8C164.8,155.1,164,154.7,163.3,154 M154.9,144.6c-1.2-1.3-1.1-3.4,0.2-4.6
		c1.3-1.2,3.4-1.1,4.6,0.2c1.2,1.3,1.1,3.4-0.2,4.6c-0.6,0.6-1.4,0.8-2.2,0.8C156.4,145.6,155.5,145.3,154.9,144.6 M146.4,135.2
		c-1.2-1.3-1.1-3.4,0.2-4.6c1.3-1.2,3.4-1.1,4.6,0.2c1.2,1.3,1.1,3.4-0.2,4.6c-0.6,0.6-1.4,0.8-2.2,0.8
		C147.9,136.2,147,135.9,146.4,135.2 M137.9,125.8c-1.2-1.3-1.1-3.4,0.2-4.6c1.3-1.2,3.4-1.1,4.6,0.2c1.2,1.3,1.1,3.4-0.2,4.6
		c-0.6,0.6-1.4,0.8-2.2,0.8C139.4,126.8,138.5,126.5,137.9,125.8 M129.4,116.3c-1.2-1.3-1.1-3.4,0.2-4.6c1.3-1.2,3.4-1.1,4.6,0.2
		c1.2,1.3,1.1,3.4-0.2,4.6c-0.6,0.6-1.4,0.8-2.2,0.8C130.9,117.4,130.1,117,129.4,116.3 M120.9,106.9c-1.2-1.3-1.1-3.4,0.2-4.6
		c1.3-1.2,3.4-1.1,4.6,0.2c1.2,1.3,1.1,3.4-0.2,4.6c-0.6,0.6-1.4,0.8-2.2,0.8C122.5,108,121.6,107.6,120.9,106.9 M112.5,97.5
		c-1.2-1.3-1.1-3.4,0.2-4.6c1.3-1.2,3.4-1.1,4.6,0.2c1.2,1.3,1.1,3.4-0.2,4.6c-0.6,0.6-1.4,0.8-2.2,0.8
		C114,98.6,113.1,98.2,112.5,97.5 M104,88.1c-1.2-1.3-1.1-3.4,0.2-4.6c1.3-1.2,3.4-1.1,4.6,0.2c1.2,1.3,1.1,3.4-0.2,4.6
		c-0.6,0.6-1.4,0.8-2.2,0.8C105.5,89.2,104.6,88.8,104,88.1 M95.5,78.7c-1.2-1.3-1.1-3.4,0.2-4.6c1.3-1.2,3.4-1.1,4.6,0.2
		c1.2,1.3,1.1,3.4-0.2,4.6c-0.6,0.6-1.4,0.8-2.2,0.8C97,79.8,96.2,79.4,95.5,78.7"/>
	<path d="M169.3,184.3c-1.3-1.2-1.4-3.2-0.2-4.6c1.2-1.3,3.2-1.4,4.6-0.2c1.3,1.2,1.4,3.2,0.2,4.6c-0.6,0.7-1.5,1.1-2.4,1.1
		C170.7,185.1,169.9,184.9,169.3,184.3 M159.9,175.8c-1.3-1.2-1.4-3.2-0.2-4.6c1.2-1.3,3.2-1.4,4.6-0.2c1.3,1.2,1.4,3.2,0.2,4.6
		c-0.6,0.7-1.5,1.1-2.4,1.1C161.3,176.7,160.5,176.4,159.9,175.8 M150.5,167.3c-1.3-1.2-1.4-3.2-0.2-4.6c1.2-1.3,3.2-1.4,4.6-0.2
		c1.3,1.2,1.4,3.2,0.2,4.6c-0.6,0.7-1.5,1.1-2.4,1.1C151.8,168.2,151.1,167.9,150.5,167.3 M141,158.9c-1.3-1.2-1.4-3.2-0.2-4.6
		c1.2-1.3,3.2-1.4,4.6-0.2c1.3,1.2,1.4,3.2,0.2,4.6c-0.6,0.7-1.5,1.1-2.4,1.1C142.4,159.7,141.7,159.4,141,158.9 M131.6,150.4
		c-1.3-1.2-1.4-3.2-0.2-4.6c1.2-1.3,3.2-1.4,4.6-0.2c1.3,1.2,1.4,3.2,0.2,4.6c-0.6,0.7-1.5,1.1-2.4,1.1
		C133,151.2,132.2,150.9,131.6,150.4 M122.2,141.9c-1.3-1.2-1.4-3.2-0.2-4.6c1.2-1.3,3.2-1.4,4.6-0.2c1.3,1.2,1.4,3.2,0.2,4.6
		c-0.6,0.7-1.5,1.1-2.4,1.1C123.6,142.7,122.8,142.5,122.2,141.9 M112.8,133.4c-1.3-1.2-1.4-3.3-0.2-4.6c1.2-1.3,3.2-1.4,4.6-0.2
		c1.3,1.2,1.4,3.2,0.2,4.6c-0.6,0.7-1.5,1.1-2.4,1.1C114.2,134.3,113.4,134,112.8,133.4"/>
	<path d="M159.5,196.9c-1.4-1-1.8-3.1-0.7-4.5c1.1-1.4,3.1-1.8,4.5-0.7c1.4,1.1,1.8,3.1,0.7,4.5c-0.6,0.9-1.6,1.3-2.6,1.3
		C160.8,197.5,160.1,197.3,159.5,196.9 M149.3,189.4c-1.4-1.1-1.8-3.1-0.7-4.5c1-1.4,3.1-1.8,4.5-0.7c1.4,1,1.8,3.1,0.7,4.5
		c-0.6,0.9-1.6,1.3-2.6,1.3C150.5,190,149.9,189.8,149.3,189.4 M139,182c-1.4-1.1-1.8-3.1-0.7-4.5c1.1-1.4,3.1-1.8,4.5-0.7
		c1.4,1.1,1.8,3.1,0.7,4.5c-0.6,0.9-1.6,1.3-2.6,1.3C140.3,182.6,139.6,182.4,139,182 M128.8,174.5c-1.4-1-1.8-3.1-0.7-4.5
		c1-1.4,3.1-1.8,4.5-0.7c1.4,1.1,1.8,3.1,0.7,4.5c-0.6,0.9-1.6,1.3-2.6,1.3C130,175.1,129.4,174.9,128.8,174.5 M118.6,167.1
		c-1.4-1-1.8-3.1-0.7-4.5c1-1.4,3.1-1.8,4.5-0.7c1.4,1,1.8,3.1,0.7,4.5c-0.6,0.9-1.6,1.3-2.6,1.3
		C119.8,167.7,119.1,167.5,118.6,167.1 M108.3,159.6c-1.4-1.1-1.8-3.1-0.7-4.5c1.1-1.4,3.1-1.8,4.5-0.7c1.4,1,1.8,3.1,0.7,4.5
		c-0.6,0.9-1.6,1.3-2.6,1.3C109.5,160.2,108.9,160,108.3,159.6 M98.1,152.2c-1.4-1.1-1.8-3.1-0.7-4.5c1-1.4,3.1-1.8,4.5-0.7
		c1.4,1.1,1.8,3.1,0.7,4.5c-0.6,0.9-1.6,1.3-2.6,1.3C99.3,152.8,98.6,152.6,98.1,152.2 M87.8,144.7c-1.4-1-1.8-3.1-0.7-4.5
		c1.1-1.4,3.1-1.8,4.5-0.7c1.4,1.1,1.8,3.1,0.7,4.5c-0.6,0.9-1.6,1.3-2.6,1.3C89.1,145.4,88.4,145.2,87.8,144.7 M77.6,137.3
		c-1.4-1.1-1.8-3.1-0.7-4.5c1.1-1.4,3.1-1.8,4.5-0.7c1.4,1,1.8,3.1,0.7,4.5c-0.6,0.9-1.6,1.3-2.6,1.3
		C78.8,137.9,78.1,137.7,77.6,137.3 M67.3,129.8c-1.4-1.1-1.8-3.1-0.7-4.5c1-1.4,3.1-1.8,4.5-0.7c1.4,1,1.8,3.1,0.7,4.5
		c-0.6,0.9-1.6,1.3-2.6,1.3C68.6,130.5,67.9,130.3,67.3,129.8"/>
	<path d="M151.2,210.4c-1.6-0.9-2.1-2.9-1.2-4.4c0.9-1.5,2.9-2.1,4.4-1.2c1.6,0.9,2.1,2.9,1.2,4.4c-0.6,1-1.7,1.6-2.8,1.6
		C152.2,210.8,151.7,210.7,151.2,210.4 M140.2,204c-1.6-0.9-2.1-2.9-1.2-4.4c0.9-1.5,2.9-2.1,4.4-1.2c1.6,0.9,2.1,2.9,1.2,4.4
		c-0.6,1-1.7,1.6-2.8,1.6C141.3,204.5,140.7,204.3,140.2,204 M129.2,197.7c-1.6-0.9-2.1-2.9-1.2-4.4c0.9-1.5,2.9-2.1,4.4-1.2
		c1.5,0.9,2.1,2.9,1.2,4.4c-0.6,1-1.7,1.6-2.8,1.6C130.3,198.1,129.7,198,129.2,197.7"/>
	<path d="M144.3,224.7c-1.6-0.7-2.4-2.6-1.6-4.3c0.7-1.6,2.6-2.4,4.3-1.6c1.6,0.7,2.4,2.6,1.6,4.3c-0.5,1.2-1.7,1.9-3,1.9
		C145.1,225,144.7,224.9,144.3,224.7 M132.7,219.5c-1.6-0.7-2.4-2.6-1.6-4.3c0.7-1.6,2.6-2.4,4.3-1.6c1.6,0.7,2.4,2.6,1.6,4.3
		c-0.5,1.2-1.7,1.9-3,1.9C133.6,219.8,133.1,219.7,132.7,219.5"/>
	<path d="M138.9,239.6c-1.7-0.6-2.6-2.4-2.1-4.1c0.6-1.7,2.4-2.6,4.1-2.1c1.7,0.6,2.6,2.4,2.1,4.1c-0.4,1.4-1.7,2.2-3.1,2.2
		C139.6,239.8,139.2,239.7,138.9,239.6 M126.8,235.7c-1.7-0.6-2.6-2.4-2.1-4.1c0.6-1.7,2.4-2.6,4.1-2.1c1.7,0.6,2.6,2.4,2.1,4.1
		c-0.4,1.4-1.7,2.2-3.1,2.2C127.5,235.9,127.2,235.8,126.8,235.7 M114.8,231.8c-1.7-0.6-2.6-2.4-2.1-4.1c0.6-1.7,2.4-2.6,4.1-2.1
		c1.7,0.6,2.6,2.4,2.1,4.1c-0.4,1.4-1.7,2.2-3.1,2.2C115.5,232,115.1,231.9,114.8,231.8 M102.7,227.9c-1.7-0.6-2.6-2.4-2.1-4.1
		c0.6-1.7,2.4-2.6,4.1-2.1c1.7,0.6,2.6,2.4,2.1,4.1c-0.4,1.4-1.7,2.2-3.1,2.2C103.4,228.1,103.1,228,102.7,227.9 M90.7,224
		c-1.7-0.6-2.6-2.4-2.1-4.1c0.6-1.7,2.4-2.6,4.1-2.1c1.7,0.6,2.6,2.4,2.1,4.1c-0.4,1.4-1.7,2.2-3.1,2.2
		C91.4,224.1,91,224.1,90.7,224 M78.7,220.1c-1.7-0.6-2.6-2.4-2.1-4.1c0.5-1.7,2.4-2.6,4.1-2.1c1.7,0.6,2.6,2.4,2.1,4.1
		c-0.4,1.4-1.7,2.2-3.1,2.2C79.3,220.2,79,220.2,78.7,220.1 M66.6,216.2c-1.7-0.6-2.6-2.4-2.1-4.1c0.6-1.7,2.4-2.6,4.1-2.1
		c1.7,0.6,2.6,2.4,2.1,4.1c-0.4,1.4-1.7,2.2-3.1,2.2C67.3,216.3,66.9,216.3,66.6,216.2 M54.6,212.2c-1.7-0.5-2.6-2.4-2.1-4.1
		c0.6-1.7,2.4-2.6,4.1-2.1c1.7,0.6,2.6,2.4,2.1,4.1c-0.4,1.4-1.7,2.2-3.1,2.2C55.2,212.4,54.9,212.3,54.6,212.2 M42.5,208.3
		c-1.7-0.6-2.6-2.4-2.1-4.1c0.6-1.7,2.4-2.6,4.1-2.1c1.7,0.5,2.6,2.4,2.1,4.1c-0.4,1.4-1.7,2.2-3.1,2.2
		C43.2,208.5,42.8,208.4,42.5,208.3"/>
	<path d="M135.1,255.1c-1.7-0.4-2.9-2.1-2.5-3.8c0.4-1.8,2.1-2.9,3.8-2.5c1.8,0.4,2.9,2.1,2.5,3.8c-0.3,1.5-1.7,2.6-3.2,2.6
		C135.6,255.1,135.3,255.1,135.1,255.1 M122.7,252.4c-1.8-0.4-2.9-2.1-2.5-3.8c0.4-1.7,2.1-2.9,3.8-2.5c1.8,0.4,2.9,2.1,2.5,3.8
		c-0.3,1.5-1.7,2.6-3.2,2.6C123.2,252.5,122.9,252.5,122.7,252.4"/>
	<path d="M133,270.8c-1.8-0.2-3.1-1.8-2.9-3.6c0.2-1.8,1.8-3.1,3.6-2.9c1.8,0.2,3.1,1.8,2.9,3.6c-0.2,1.7-1.6,2.9-3.2,2.9
		C133.2,270.8,133.1,270.8,133,270.8 M120.4,269.5c-1.8-0.2-3.1-1.8-2.9-3.6c0.2-1.8,1.8-3.1,3.6-2.9c1.8,0.2,3.1,1.8,2.9,3.6
		c-0.2,1.7-1.6,2.9-3.2,2.9C120.6,269.5,120.5,269.5,120.4,269.5 M107.8,268.2c-1.8-0.2-3.1-1.8-2.9-3.6c0.2-1.8,1.8-3.1,3.6-2.9
		c1.8,0.2,3.1,1.8,2.9,3.6c-0.2,1.7-1.6,2.9-3.2,2.9C108,268.2,107.9,268.2,107.8,268.2 M95.2,266.8c-1.8-0.2-3.1-1.8-2.9-3.6
		c0.2-1.8,1.8-3.1,3.6-2.9c1.8,0.2,3.1,1.8,2.9,3.6c-0.2,1.7-1.6,2.9-3.2,2.9C95.4,266.9,95.3,266.9,95.2,266.8 M82.6,265.5
		c-1.8-0.2-3.1-1.8-2.9-3.6c0.2-1.8,1.8-3.1,3.6-2.9c1.8,0.2,3.1,1.8,2.9,3.6c-0.2,1.7-1.6,2.9-3.2,2.9
		C82.8,265.5,82.7,265.5,82.6,265.5"/>
	<path d="M129.2,283.5c0-1.8,1.5-3.2,3.2-3.2c1.8,0,3.2,1.5,3.2,3.2c0,1.8-1.5,3.2-3.2,3.2C130.7,286.7,129.2,285.3,129.2,283.5
		 M116.6,283.5c0-1.8,1.5-3.2,3.2-3.2c1.8,0,3.2,1.5,3.2,3.2c0,1.8-1.5,3.2-3.2,3.2C118,286.7,116.6,285.3,116.6,283.5 M103.9,283.5
		c0-1.8,1.5-3.2,3.2-3.2c1.8,0,3.2,1.5,3.2,3.2c0,1.8-1.4,3.2-3.2,3.2C105.3,286.7,103.9,285.3,103.9,283.5 M91.2,283.5
		c0-1.8,1.4-3.2,3.2-3.2c1.8,0,3.2,1.5,3.2,3.2c0,1.8-1.5,3.2-3.2,3.2C92.7,286.7,91.2,285.3,91.2,283.5 M78.6,283.5
		c0-1.8,1.4-3.2,3.2-3.2c1.8,0,3.2,1.5,3.2,3.2c0,1.8-1.5,3.2-3.2,3.2C80,286.7,78.6,285.3,78.6,283.5 M65.9,283.5
		c0-1.8,1.4-3.2,3.2-3.2c1.8,0,3.2,1.5,3.2,3.2c0,1.8-1.5,3.2-3.2,3.2C67.3,286.7,65.9,285.3,65.9,283.5 M53.2,283.5
		c0-1.8,1.5-3.2,3.2-3.2c1.8,0,3.2,1.5,3.2,3.2c0,1.8-1.5,3.2-3.2,3.2C54.7,286.7,53.2,285.3,53.2,283.5 M40.5,283.5
		c0-1.8,1.5-3.2,3.2-3.2c1.8,0,3.2,1.5,3.2,3.2c0,1.8-1.5,3.2-3.2,3.2C42,286.7,40.5,285.3,40.5,283.5"/>
	<path d="M54.5,307.6c-0.2-1.8,1.1-3.4,2.9-3.6c1.8-0.2,3.4,1.1,3.6,2.9c0.2,1.8-1.1,3.4-2.9,3.6c-0.1,0-0.2,0-0.3,0
		C56.1,310.5,54.7,309.3,54.5,307.6 M67.1,306.3c-0.2-1.8,1.1-3.4,2.9-3.6c1.8-0.2,3.4,1.1,3.6,2.9c0.2,1.8-1.1,3.4-2.9,3.6
		c-0.1,0-0.2,0-0.3,0C68.7,309.2,67.3,308,67.1,306.3 M79.7,305c-0.2-1.8,1.1-3.4,2.9-3.6c1.8-0.2,3.4,1.1,3.6,2.9
		c0.2,1.8-1.1,3.4-2.9,3.6c-0.1,0-0.2,0-0.3,0C81.3,307.9,79.9,306.6,79.7,305 M92.3,303.6c-0.2-1.8,1.1-3.4,2.9-3.6
		c1.8-0.2,3.4,1.1,3.6,2.9c0.2,1.8-1.1,3.4-2.9,3.6c-0.1,0-0.2,0-0.3,0C93.9,306.5,92.4,305.3,92.3,303.6 M104.9,302.3
		c-0.2-1.8,1.1-3.4,2.9-3.6c1.8-0.2,3.4,1.1,3.6,2.9c0.2,1.8-1.1,3.4-2.9,3.6c-0.1,0-0.2,0-0.3,0C106.5,305.2,105,304,104.9,302.3
		 M117.5,301c-0.2-1.8,1.1-3.4,2.9-3.6c1.8-0.2,3.4,1.1,3.6,2.9c0.2,1.8-1.1,3.4-2.9,3.6c-0.1,0-0.2,0-0.3,0
		C119.1,303.9,117.6,302.7,117.5,301 M130.1,299.7c-0.2-1.8,1.1-3.4,2.9-3.6c1.8-0.2,3.4,1.1,3.6,2.9c0.2,1.8-1.1,3.4-2.9,3.6
		c-0.1,0-0.2,0-0.3,0C131.6,302.6,130.2,301.3,130.1,299.7"/>
	<path d="M107.8,321c-0.4-1.8,0.7-3.5,2.5-3.8c1.8-0.4,3.5,0.7,3.8,2.5c0.4,1.8-0.7,3.5-2.5,3.8c-0.2,0.1-0.5,0.1-0.7,0.1
		C109.5,323.5,108.1,322.5,107.8,321 M120.2,318.3c-0.4-1.8,0.7-3.5,2.5-3.8c1.8-0.4,3.5,0.7,3.8,2.5c0.4,1.8-0.7,3.5-2.5,3.8
		c-0.2,0-0.5,0.1-0.7,0.1C121.9,320.9,120.5,319.9,120.2,318.3 M132.6,315.7c-0.4-1.8,0.7-3.5,2.5-3.8c1.8-0.4,3.5,0.7,3.8,2.5
		c0.4,1.8-0.7,3.5-2.5,3.8c-0.2,0-0.5,0.1-0.7,0.1C134.3,318.3,132.9,317.2,132.6,315.7"/>
	<path d="M136.8,331.4c-0.6-1.7,0.4-3.5,2.1-4.1c1.7-0.6,3.5,0.4,4.1,2.1c0.6,1.7-0.4,3.5-2.1,4.1c-0.3,0.1-0.7,0.2-1,0.2
		C138.5,333.6,137.3,332.7,136.8,331.4"/>
	<path d="M73.2,377.4c-0.7-1.6,0-3.5,1.6-4.3c1.6-0.7,3.5,0,4.3,1.6c0.7,1.6,0,3.6-1.6,4.3c-0.4,0.2-0.9,0.3-1.3,0.3
		C74.9,379.4,73.7,378.6,73.2,377.4 M84.8,372.3c-0.7-1.6,0-3.5,1.6-4.3c1.6-0.7,3.5,0,4.3,1.6c0.7,1.6,0,3.5-1.6,4.3
		c-0.4,0.2-0.9,0.3-1.3,0.3C86.5,374.2,85.3,373.5,84.8,372.3 M96.3,367.1c-0.7-1.6,0-3.6,1.6-4.3c1.6-0.7,3.5,0,4.3,1.6
		c0.7,1.6,0,3.6-1.6,4.3c-0.4,0.2-0.9,0.3-1.3,0.3C98.1,369.1,96.9,368.3,96.3,367.1 M107.9,362c-0.7-1.6,0-3.6,1.6-4.3
		c1.6-0.7,3.6,0,4.3,1.6c0.7,1.6,0,3.5-1.6,4.3c-0.4,0.2-0.9,0.3-1.3,0.3C109.6,363.9,108.4,363.2,107.9,362 M119.5,356.8
		c-0.7-1.6,0-3.6,1.6-4.3c1.6-0.7,3.6,0,4.3,1.6c0.7,1.6,0,3.6-1.6,4.3c-0.4,0.2-0.9,0.3-1.3,0.3C121.2,358.8,120,358,119.5,356.8
		 M131,351.7c-0.7-1.6,0-3.5,1.6-4.3c1.6-0.7,3.6,0,4.3,1.6c0.7,1.6,0,3.5-1.6,4.3c-0.4,0.2-0.9,0.3-1.3,0.3
		C132.8,353.6,131.6,352.9,131,351.7 M142.6,346.5c-0.7-1.6,0-3.6,1.6-4.3c1.6-0.7,3.6,0,4.3,1.6c0.7,1.6,0,3.6-1.6,4.3
		c-0.4,0.2-0.9,0.3-1.3,0.3C144.3,348.5,143.2,347.7,142.6,346.5"/>
	<path d="M51.3,418c-0.9-1.5-0.4-3.5,1.2-4.4c1.6-0.9,3.5-0.4,4.4,1.2c0.9,1.6,0.4,3.5-1.2,4.4c-0.5,0.3-1.1,0.4-1.6,0.4
		C52.9,419.6,51.9,419,51.3,418 M62.2,411.7c-0.9-1.5-0.4-3.5,1.2-4.4c1.6-0.9,3.5-0.4,4.4,1.2c0.9,1.6,0.4,3.5-1.2,4.4
		c-0.5,0.3-1.1,0.4-1.6,0.4C63.9,413.3,62.8,412.7,62.2,411.7 M73.2,405.3c-0.9-1.6-0.4-3.5,1.2-4.4c1.5-0.9,3.5-0.4,4.4,1.2
		c0.9,1.6,0.4,3.5-1.2,4.4c-0.5,0.3-1.1,0.4-1.6,0.4C74.9,406.9,73.8,406.4,73.2,405.3 M84.2,399c-0.9-1.6-0.4-3.5,1.2-4.4
		c1.6-0.9,3.5-0.4,4.4,1.2c0.9,1.6,0.4,3.5-1.2,4.4c-0.5,0.3-1.1,0.4-1.6,0.4C85.9,400.6,84.8,400,84.2,399 M95.1,392.7
		c-0.9-1.5-0.4-3.5,1.2-4.4c1.5-0.9,3.5-0.4,4.4,1.2c0.9,1.5,0.4,3.5-1.2,4.4c-0.5,0.3-1.1,0.4-1.6,0.4
		C96.8,394.3,95.7,393.7,95.1,392.7 M106.1,386.3c-0.9-1.5-0.4-3.5,1.2-4.4c1.5-0.9,3.5-0.4,4.4,1.2c0.9,1.5,0.4,3.5-1.2,4.4
		c-0.5,0.3-1.1,0.4-1.6,0.4C107.8,387.9,106.7,387.4,106.1,386.3 M117.1,380c-0.9-1.5-0.4-3.5,1.2-4.4c1.5-0.9,3.5-0.4,4.4,1.2
		c0.9,1.5,0.4,3.5-1.2,4.4c-0.5,0.3-1.1,0.4-1.6,0.4C118.8,381.6,117.7,381,117.1,380 M128,373.7c-0.9-1.5-0.4-3.5,1.2-4.4
		c1.6-0.9,3.5-0.4,4.4,1.2c0.9,1.5,0.4,3.5-1.2,4.4c-0.5,0.3-1.1,0.4-1.6,0.4C129.7,375.3,128.7,374.7,128,373.7 M139,367.3
		c-0.9-1.5-0.4-3.5,1.2-4.4c1.6-0.9,3.5-0.4,4.4,1.2c0.9,1.5,0.4,3.5-1.2,4.4c-0.5,0.3-1.1,0.4-1.6,0.4
		C140.7,368.9,139.6,368.4,139,367.3 M150,361c-0.9-1.5-0.4-3.5,1.2-4.4c1.6-0.9,3.5-0.4,4.4,1.2c0.9,1.5,0.4,3.5-1.2,4.4
		c-0.5,0.3-1.1,0.4-1.6,0.4C151.7,362.6,150.6,362,150,361"/>
	<path d="M148.6,382c-1.1-1.5-0.7-3.5,0.7-4.5c1.5-1,3.5-0.7,4.5,0.7c1,1.5,0.7,3.5-0.7,4.5c-0.6,0.4-1.2,0.6-1.9,0.6
		C150.2,383.4,149.2,382.9,148.6,382 M158.8,374.6c-1-1.5-0.7-3.5,0.7-4.5c1.5-1.1,3.5-0.7,4.5,0.7c1.1,1.4,0.7,3.5-0.7,4.5
		c-0.6,0.4-1.2,0.6-1.9,0.6C160.4,375.9,159.5,375.5,158.8,374.6"/>
	<path d="M122,429.6c-1.2-1.3-1.1-3.4,0.2-4.6c1.3-1.2,3.4-1.1,4.6,0.2c1.2,1.3,1.1,3.4-0.2,4.6c-0.6,0.6-1.4,0.8-2.2,0.8
		C123.5,430.7,122.6,430.3,122,429.6 M131.4,421.1c-1.2-1.3-1.1-3.4,0.2-4.6c1.3-1.2,3.4-1.1,4.6,0.2c1.2,1.3,1.1,3.4-0.2,4.6
		c-0.6,0.6-1.4,0.8-2.2,0.8C132.9,422.2,132,421.8,131.4,421.1 M140.8,412.6c-1.2-1.3-1.1-3.4,0.2-4.6c1.3-1.2,3.4-1.1,4.6,0.2
		c1.2,1.3,1.1,3.4-0.2,4.6c-0.6,0.6-1.4,0.8-2.2,0.8C142.3,413.7,141.4,413.3,140.8,412.6 M150.2,404.2c-1.2-1.3-1.1-3.4,0.2-4.6
		c1.3-1.2,3.4-1.1,4.6,0.2c1.2,1.3,1.1,3.4-0.2,4.6c-0.6,0.6-1.4,0.8-2.2,0.8C151.7,405.2,150.9,404.9,150.2,404.2 M159.6,395.7
		c-1.2-1.3-1.1-3.4,0.2-4.6c1.3-1.2,3.4-1.1,4.6,0.2c1.2,1.3,1.1,3.4-0.2,4.6c-0.6,0.6-1.4,0.8-2.2,0.8
		C161.2,396.8,160.3,396.4,159.6,395.7 M169,387.2c-1.2-1.3-1.1-3.4,0.2-4.6c1.3-1.2,3.4-1.1,4.6,0.2c1.2,1.3,1.1,3.4-0.2,4.6
		c-0.6,0.6-1.4,0.8-2.2,0.8C170.6,388.3,169.7,387.9,169,387.2"/>
	<path d="M121.2,464.6c-1.3-1.2-1.4-3.3-0.2-4.6c1.2-1.3,3.2-1.4,4.6-0.2c1.3,1.2,1.4,3.2,0.2,4.6c-0.6,0.7-1.5,1.1-2.4,1.1
		C122.6,465.4,121.8,465.1,121.2,464.6 M129.7,455.2c-1.3-1.2-1.4-3.2-0.2-4.6c1.2-1.3,3.2-1.4,4.6-0.2c1.3,1.2,1.4,3.2,0.2,4.6
		c-0.6,0.7-1.5,1.1-2.4,1.1C131.1,456,130.3,455.7,129.7,455.2 M138.1,445.8c-1.3-1.2-1.4-3.2-0.2-4.6c1.2-1.3,3.2-1.4,4.6-0.2
		c1.3,1.2,1.4,3.2,0.2,4.6c-0.6,0.7-1.5,1.1-2.4,1.1C139.5,446.6,138.8,446.3,138.1,445.8 M146.6,436.3c-1.3-1.2-1.4-3.2-0.2-4.6
		c1.2-1.3,3.2-1.4,4.6-0.2c1.3,1.2,1.4,3.2,0.2,4.6c-0.6,0.7-1.5,1.1-2.4,1.1C148,437.2,147.2,436.9,146.6,436.3 M155.1,426.9
		c-1.3-1.2-1.4-3.3-0.2-4.6c1.2-1.3,3.3-1.4,4.6-0.2c1.3,1.2,1.4,3.2,0.2,4.6c-0.6,0.7-1.5,1.1-2.4,1.1
		C156.5,427.8,155.7,427.5,155.1,426.9 M163.6,417.5c-1.3-1.2-1.4-3.2-0.2-4.6c1.2-1.3,3.2-1.4,4.6-0.2c1.3,1.2,1.4,3.2,0.2,4.6
		c-0.6,0.7-1.5,1.1-2.4,1.1C165,418.3,164.2,418.1,163.6,417.5 M172,408.1c-1.3-1.2-1.4-3.2-0.2-4.6c1.2-1.3,3.2-1.4,4.6-0.2
		c1.3,1.2,1.4,3.2,0.2,4.6c-0.6,0.7-1.5,1.1-2.4,1.1C173.4,408.9,172.7,408.7,172,408.1 M180.5,398.7c-1.3-1.2-1.4-3.2-0.2-4.6
		c1.2-1.3,3.2-1.4,4.6-0.2c1.3,1.2,1.4,3.2,0.2,4.6c-0.6,0.7-1.5,1.1-2.4,1.1C181.9,399.5,181.1,399.2,180.5,398.7"/>
	<path d="M118.7,511.4c-1.5-1-1.8-3.1-0.7-4.5c1.1-1.4,3.1-1.8,4.5-0.7c1.4,1.1,1.8,3.1,0.7,4.5c-0.6,0.9-1.6,1.3-2.6,1.3
		C119.9,512,119.2,511.8,118.7,511.4 M126.1,501.1c-1.4-1-1.8-3.1-0.7-4.5c1-1.5,3.1-1.8,4.5-0.7c1.5,1.1,1.8,3.1,0.7,4.5
		c-0.6,0.9-1.6,1.3-2.6,1.3C127.4,501.8,126.7,501.6,126.1,501.1 M133.6,490.9c-1.4-1.1-1.8-3.1-0.7-4.5c1.1-1.4,3.1-1.8,4.5-0.7
		c1.4,1,1.8,3.1,0.7,4.5c-0.6,0.9-1.6,1.3-2.6,1.3C134.8,491.5,134.1,491.3,133.6,490.9 M111.4,521.8c-1.4-1-1.8-3.1-0.7-4.5
		c1-1.4,3.1-1.8,4.5-0.7c1.4,1.1,1.8,3.1,0.7,4.5c-0.6,0.9-1.6,1.3-2.6,1.3C112.7,522.4,112,522.2,111.4,521.8 M141,480.6
		c-1.4-1-1.8-3.1-0.7-4.5c1.1-1.4,3.1-1.8,4.5-0.7c1.5,1.1,1.8,3.1,0.7,4.5c-0.6,0.9-1.6,1.3-2.6,1.3
		C142.3,481.3,141.6,481.1,141,480.6 M148.5,470.4c-1.4-1.1-1.8-3.1-0.7-4.5c1-1.4,3.1-1.8,4.5-0.7c1.4,1,1.8,3.1,0.7,4.5
		c-0.6,0.9-1.6,1.3-2.6,1.3C149.7,471,149,470.8,148.5,470.4 M155.9,460.1c-1.4-1.1-1.8-3.1-0.7-4.5c1.1-1.4,3.1-1.8,4.5-0.7
		c1.4,1,1.8,3.1,0.7,4.5c-0.6,0.9-1.6,1.3-2.6,1.3C157.1,460.8,156.5,460.6,155.9,460.1 M163.3,449.9c-1.4-1-1.8-3.1-0.7-4.5
		c1.1-1.4,3.1-1.8,4.5-0.7c1.4,1.1,1.8,3.1,0.7,4.5c-0.6,0.9-1.6,1.3-2.6,1.3C164.6,450.5,163.9,450.3,163.3,449.9 M170.8,439.6
		c-1.4-1.1-1.8-3.1-0.7-4.5c1-1.4,3.1-1.8,4.5-0.7c1.4,1,1.8,3.1,0.7,4.5c-0.6,0.9-1.6,1.3-2.6,1.3
		C172,440.3,171.4,440.1,170.8,439.6 M178.2,429.4c-1.4-1-1.8-3.1-0.7-4.5c1-1.4,3.1-1.8,4.5-0.7c1.4,1.1,1.8,3.1,0.7,4.5
		c-0.6,0.9-1.6,1.3-2.6,1.3C179.5,430,178.8,429.8,178.2,429.4 M185.7,419.1c-1.4-1-1.8-3.1-0.7-4.5c1.1-1.4,3.1-1.8,4.5-0.7
		c1.4,1.1,1.8,3.1,0.7,4.5c-0.6,0.9-1.6,1.3-2.6,1.3C186.9,419.8,186.3,419.6,185.7,419.1 M193.1,408.9c-1.4-1-1.8-3.1-0.7-4.5
		c1.1-1.5,3.1-1.8,4.5-0.7c1.4,1,1.8,3.1,0.7,4.5c-0.6,0.9-1.6,1.3-2.6,1.3C194.4,409.5,193.7,409.3,193.1,408.9"/>
	<path d="M187.7,450.7c-1.5-0.9-2.1-2.9-1.2-4.4c0.9-1.5,2.9-2.1,4.4-1.2c1.6,0.9,2.1,2.9,1.2,4.4c-0.6,1-1.7,1.6-2.8,1.6
		C188.8,451.1,188.3,450.9,187.7,450.7 M194.1,439.7c-1.5-0.9-2.1-2.9-1.2-4.4c0.9-1.5,2.9-2.1,4.4-1.2c1.6,0.9,2.1,2.9,1.2,4.4
		c-0.6,1-1.7,1.6-2.8,1.6C195.1,440.1,194.6,440,194.1,439.7 M200.4,428.7c-1.5-0.9-2.1-2.9-1.2-4.4c0.9-1.5,2.9-2.1,4.4-1.2
		c1.6,0.9,2.1,2.9,1.2,4.4c-0.6,1-1.7,1.6-2.8,1.6C201.5,429.1,200.9,429,200.4,428.7 M206.7,417.7c-1.5-0.9-2.1-2.9-1.2-4.4
		c0.9-1.5,2.9-2.1,4.4-1.2c1.6,0.9,2.1,2.9,1.2,4.4c-0.6,1-1.7,1.6-2.8,1.6C207.8,418.2,207.2,418,206.7,417.7"/>
	<path d="M190.3,494.5c-1.6-0.7-2.4-2.6-1.6-4.3c0.7-1.6,2.6-2.4,4.3-1.6c1.6,0.7,2.4,2.6,1.6,4.3c-0.5,1.2-1.7,1.9-3,1.9
		C191.2,494.8,190.7,494.7,190.3,494.5 M195.4,483c-1.6-0.7-2.4-2.6-1.6-4.3c0.7-1.6,2.6-2.4,4.3-1.6c1.6,0.7,2.4,2.6,1.6,4.3
		c-0.5,1.2-1.7,1.9-3,1.9C196.3,483.2,195.9,483.2,195.4,483 M200.6,471.4c-1.6-0.7-2.4-2.6-1.6-4.3c0.7-1.6,2.6-2.4,4.3-1.6
		c1.6,0.7,2.4,2.6,1.6,4.3c-0.5,1.2-1.7,1.9-3,1.9C201.5,471.7,201,471.6,200.6,471.4 M205.7,459.8c-1.6-0.7-2.4-2.6-1.6-4.3
		c0.7-1.6,2.6-2.4,4.3-1.6c1.6,0.7,2.4,2.6,1.6,4.3c-0.5,1.2-1.7,1.9-3,1.9C206.6,460.1,206.2,460,205.7,459.8 M210.9,448.3
		c-1.6-0.7-2.4-2.6-1.6-4.3c0.7-1.6,2.6-2.4,4.3-1.6c1.6,0.7,2.4,2.6,1.6,4.3c-0.5,1.2-1.7,1.9-3,1.9
		C211.8,448.5,211.3,448.4,210.9,448.3 M216.1,436.7c-1.6-0.7-2.4-2.6-1.6-4.3c0.7-1.6,2.6-2.4,4.3-1.6c1.6,0.7,2.4,2.6,1.6,4.3
		c-0.5,1.2-1.7,1.9-3,1.9C216.9,437,216.5,436.9,216.1,436.7 M221.2,425.1c-1.6-0.7-2.4-2.6-1.6-4.3c0.7-1.6,2.6-2.4,4.3-1.6
		c1.6,0.7,2.4,2.6,1.6,4.3c-0.5,1.2-1.7,1.9-3,1.9C222.1,425.4,221.6,425.3,221.2,425.1"/>
	<path d="M236.3,430.9c-1.7-0.6-2.6-2.4-2.1-4.1c0.6-1.7,2.4-2.6,4.1-2.1c1.7,0.6,2.6,2.4,2.1,4.1c-0.4,1.4-1.7,2.2-3.1,2.2
		C237,431.1,236.7,431,236.3,430.9"/>
	<path d="M246.8,459.9c-1.8-0.4-2.9-2.1-2.5-3.8c0.4-1.8,2.1-2.9,3.8-2.5c1.8,0.4,2.9,2.1,2.5,3.8c-0.3,1.5-1.7,2.6-3.2,2.6
		C247.2,460,247,459.9,246.8,459.9 M249.4,447.5c-1.8-0.4-2.9-2.1-2.5-3.8c0.4-1.8,2.1-2.9,3.8-2.5c1.8,0.4,2.9,2.1,2.5,3.8
		c-0.3,1.5-1.7,2.6-3.2,2.6C249.8,447.6,249.6,447.6,249.4,447.5 M252,435.1c-1.8-0.4-2.9-2.1-2.5-3.8c0.4-1.7,2.1-2.9,3.8-2.5
		c1.8,0.4,2.9,2.1,2.5,3.8c-0.3,1.5-1.7,2.6-3.2,2.6C252.5,435.2,252.3,435.2,252,435.1"/>
	<path d="M260.1,513.2c-1.8-0.2-3.1-1.8-2.9-3.6c0.2-1.8,1.8-3.1,3.6-2.9c1.8,0.2,3.1,1.8,2.9,3.6c-0.2,1.7-1.6,2.9-3.2,2.9
		C260.3,513.3,260.2,513.3,260.1,513.2 M261.4,500.7c-1.8-0.2-3.1-1.8-2.9-3.6c0.2-1.8,1.8-3.1,3.6-2.9c1.8,0.2,3.1,1.8,2.9,3.6
		c-0.2,1.7-1.6,2.9-3.2,2.9C261.7,500.7,261.5,500.7,261.4,500.7 M262.8,488.1c-1.8-0.2-3.1-1.8-2.9-3.6c0.2-1.8,1.8-3.1,3.6-2.9
		c1.8,0.2,3.1,1.8,2.9,3.6c-0.2,1.7-1.6,2.9-3.2,2.9C263,488.1,262.9,488.1,262.8,488.1 M264.1,475.5c-1.8-0.2-3.1-1.8-2.9-3.6
		c0.2-1.8,1.8-3.1,3.6-2.9c1.8,0.2,3.1,1.8,2.9,3.6c-0.2,1.7-1.6,2.9-3.2,2.9C264.3,475.5,264.2,475.5,264.1,475.5 M265.4,462.9
		c-1.8-0.2-3.1-1.8-2.9-3.6c0.2-1.8,1.8-3.1,3.6-2.9c1.8,0.2,3.1,1.8,2.9,3.6c-0.2,1.7-1.6,2.9-3.2,2.9
		C265.6,462.9,265.5,462.9,265.4,462.9 M266.7,450.3c-1.8-0.2-3.1-1.8-2.9-3.6c0.2-1.8,1.8-3.1,3.6-2.9c1.8,0.2,3.1,1.8,2.9,3.6
		c-0.2,1.7-1.6,2.9-3.2,2.9C267,450.3,266.8,450.3,266.7,450.3 M268.1,437.7c-1.8-0.2-3.1-1.8-2.9-3.6c0.2-1.8,1.8-3.1,3.6-2.9
		c1.8,0.2,3.1,1.8,2.9,3.6c-0.2,1.7-1.6,2.9-3.2,2.9C268.3,437.7,268.2,437.7,268.1,437.7"/>
	<path d="M281,523.9c0-1.8,1.5-3.2,3.2-3.2c1.8,0,3.2,1.4,3.2,3.2c0,1.8-1.4,3.2-3.2,3.2C282.5,527.2,281,525.7,281,523.9
		 M281,511.3c0-1.8,1.5-3.2,3.2-3.2c1.8,0,3.2,1.4,3.2,3.2c0,1.8-1.4,3.2-3.2,3.2C282.5,514.5,281,513.1,281,511.3 M281,498.6
		c0-1.8,1.5-3.2,3.2-3.2c1.8,0,3.2,1.5,3.2,3.2c0,1.8-1.4,3.2-3.2,3.2C282.5,501.8,281,500.4,281,498.6 M281,485.9
		c0-1.8,1.5-3.2,3.2-3.2c1.8,0,3.2,1.4,3.2,3.2c0,1.8-1.4,3.2-3.2,3.2C282.5,489.2,281,487.7,281,485.9 M281,473.3
		c0-1.8,1.5-3.2,3.2-3.2c1.8,0,3.2,1.5,3.2,3.2c0,1.8-1.4,3.2-3.2,3.2C282.5,476.5,281,475.1,281,473.3 M281,460.6
		c0-1.8,1.5-3.2,3.2-3.2c1.8,0,3.2,1.5,3.2,3.2c0,1.8-1.4,3.2-3.2,3.2C282.5,463.8,281,462.4,281,460.6 M281,447.9
		c0-1.8,1.5-3.2,3.2-3.2c1.8,0,3.2,1.5,3.2,3.2c0,1.8-1.4,3.2-3.2,3.2C282.5,451.2,281,449.7,281,447.9 M281,435.3
		c0-1.8,1.5-3.2,3.2-3.2c1.8,0,3.2,1.5,3.2,3.2c0,1.8-1.4,3.2-3.2,3.2C282.5,438.5,281,437.1,281,435.3"/>
	<path d="M303.5,497.8c-0.2-1.8,1.1-3.4,2.9-3.6c1.8-0.2,3.4,1.1,3.6,2.9c0.2,1.8-1.1,3.4-2.9,3.6c-0.1,0-0.2,0-0.3,0
		C305.1,500.7,303.7,499.4,303.5,497.8 M302.2,485.2c-0.2-1.8,1.1-3.4,2.9-3.6s3.4,1.1,3.6,2.9c0.2,1.8-1.1,3.4-2.9,3.6
		c-0.1,0-0.2,0-0.3,0C303.8,488.1,302.4,486.8,302.2,485.2 M300.9,472.6c-0.2-1.8,1.1-3.4,2.9-3.6c1.8-0.2,3.4,1.1,3.6,2.9
		c0.2,1.8-1.1,3.4-2.9,3.6c-0.1,0-0.2,0-0.3,0C302.5,475.5,301.1,474.2,300.9,472.6 M299.6,460c-0.2-1.8,1.1-3.4,2.9-3.6
		c1.8-0.2,3.4,1.1,3.6,2.9c0.2,1.8-1.1,3.4-2.9,3.6c-0.1,0-0.2,0-0.3,0C301.1,462.9,299.7,461.6,299.6,460 M298.2,447.4
		c-0.2-1.8,1.1-3.4,2.9-3.6c1.8-0.2,3.4,1.1,3.6,2.9c0.2,1.8-1.1,3.4-2.9,3.6c-0.1,0-0.2,0-0.3,0C299.8,450.3,298.4,449,298.2,447.4
		 M296.9,434.8c-0.2-1.8,1.1-3.4,2.9-3.6c1.8-0.2,3.4,1.1,3.6,2.9c0.2,1.8-1.1,3.4-2.9,3.6c-0.1,0-0.2,0-0.3,0
		C298.5,437.7,297.1,436.4,296.9,434.8"/>
	<path d="M315.3,445c-0.4-1.8,0.7-3.5,2.5-3.8s3.5,0.7,3.8,2.5c0.4,1.7-0.7,3.5-2.5,3.8c-0.2,0-0.5,0.1-0.7,0.1
		C317,447.6,315.6,446.5,315.3,445 M312.7,432.6c-0.4-1.8,0.7-3.5,2.5-3.8c1.8-0.4,3.5,0.7,3.8,2.5c0.4,1.8-0.7,3.5-2.5,3.8
		c-0.2,0-0.5,0.1-0.7,0.1C314.3,435.2,313,434.1,312.7,432.6"/>
	<path d="M351.6,501.1c-0.6-1.7,0.4-3.5,2.1-4.1c1.7-0.6,3.5,0.4,4.1,2.1c0.6,1.7-0.4,3.5-2.1,4.1c-0.3,0.1-0.7,0.2-1,0.2
		C353.3,503.4,352,502.5,351.6,501.1 M347.7,489.1c-0.6-1.7,0.4-3.5,2.1-4.1c1.7-0.6,3.5,0.4,4.1,2.1c0.6,1.7-0.4,3.5-2.1,4.1
		c-0.3,0.1-0.7,0.2-1,0.2C349.4,491.3,348.1,490.4,347.7,489.1 M343.7,477c-0.6-1.7,0.4-3.5,2.1-4.1c1.7-0.6,3.5,0.4,4.1,2.1
		c0.5,1.7-0.4,3.5-2.1,4.1c-0.3,0.1-0.7,0.2-1,0.2C345.5,479.3,344.2,478.4,343.7,477 M339.8,465c-0.6-1.7,0.4-3.5,2.1-4.1
		c1.7-0.5,3.5,0.4,4.1,2.1c0.6,1.7-0.4,3.5-2.1,4.1c-0.3,0.1-0.7,0.2-1,0.2C341.6,467.2,340.3,466.4,339.8,465 M335.9,452.9
		c-0.5-1.7,0.4-3.5,2.1-4.1c1.7-0.6,3.5,0.4,4.1,2.1c0.6,1.7-0.4,3.5-2.1,4.1c-0.3,0.1-0.7,0.2-1,0.2
		C337.6,455.2,336.4,454.3,335.9,452.9 M332,440.9c-0.6-1.7,0.4-3.5,2.1-4.1c1.7-0.6,3.5,0.4,4.1,2.1c0.6,1.7-0.4,3.5-2.1,4.1
		c-0.3,0.1-0.7,0.2-1,0.2C333.7,443.1,332.5,442.3,332,440.9 M328.1,428.8c-0.6-1.7,0.4-3.5,2.1-4.1c1.7-0.6,3.5,0.4,4.1,2.1
		c0.6,1.7-0.4,3.5-2.1,4.1c-0.3,0.1-0.7,0.2-1,0.2C329.8,431.1,328.5,430.2,328.1,428.8"/>
	<path d="M389.4,527.6c-0.7-1.6,0-3.5,1.6-4.3c1.6-0.7,3.6,0,4.3,1.6c0.7,1.6,0,3.6-1.6,4.3c-0.4,0.2-0.9,0.3-1.3,0.3
		C391.1,529.5,390,528.8,389.4,527.6 M384.3,516c-0.7-1.6,0-3.5,1.6-4.3c1.6-0.7,3.5,0,4.3,1.6c0.7,1.6,0,3.6-1.6,4.3
		c-0.4,0.2-0.9,0.3-1.3,0.3C386,518,384.8,517.2,384.3,516 M379.1,504.5c-0.7-1.6,0-3.5,1.6-4.3c1.6-0.7,3.6,0,4.3,1.6
		c0.7,1.6,0,3.5-1.6,4.3c-0.4,0.2-0.9,0.3-1.3,0.3C380.8,506.4,379.7,505.7,379.1,504.5 M374,492.9c-0.7-1.6,0-3.6,1.6-4.3
		c1.6-0.7,3.5,0,4.3,1.6c0.7,1.6,0,3.5-1.6,4.3c-0.4,0.2-0.9,0.3-1.3,0.3C375.7,494.8,374.5,494.1,374,492.9 M368.8,481.3
		c-0.7-1.6,0-3.6,1.6-4.3c1.6-0.7,3.6,0,4.3,1.6c0.7,1.6,0,3.5-1.6,4.3c-0.4,0.2-0.9,0.3-1.3,0.3
		C370.5,483.2,369.3,482.5,368.8,481.3 M363.7,469.8c-0.7-1.6,0-3.6,1.6-4.3c1.6-0.7,3.5,0,4.3,1.6c0.7,1.6,0,3.5-1.6,4.3
		c-0.4,0.2-0.9,0.3-1.3,0.3C365.4,471.7,364.2,471,363.7,469.8 M358.5,458.2c-0.7-1.6,0-3.6,1.6-4.3c1.6-0.7,3.6,0,4.3,1.6
		c0.7,1.6,0,3.6-1.6,4.3c-0.4,0.2-0.9,0.3-1.3,0.3C360.2,460.1,359,459.4,358.5,458.2 M353.4,446.6c-0.7-1.6,0-3.6,1.6-4.3
		c1.6-0.7,3.5,0,4.3,1.6c0.7,1.6,0,3.6-1.6,4.3c-0.4,0.2-0.9,0.3-1.3,0.3C355.1,448.5,353.9,447.8,353.4,446.6 M348.2,435
		c-0.7-1.6,0-3.6,1.6-4.3c1.6-0.7,3.6,0,4.3,1.6c0.7,1.6,0,3.6-1.6,4.3c-0.4,0.2-0.9,0.3-1.3,0.3C349.9,437,348.7,436.2,348.2,435
		 M343,423.5c-0.7-1.6,0-3.5,1.6-4.3c1.6-0.7,3.6,0,4.3,1.6c0.7,1.6,0,3.5-1.6,4.3c-0.4,0.2-0.9,0.3-1.3,0.3
		C344.8,425.4,343.6,424.7,343,423.5"/>
	<path d="M363.7,427.5c-0.9-1.5-0.4-3.5,1.2-4.4c1.5-0.9,3.5-0.4,4.4,1.2c0.9,1.5,0.4,3.5-1.2,4.4c-0.5,0.3-1.1,0.4-1.6,0.4
		C365.4,429.1,364.3,428.6,363.7,427.5 M357.4,416.5c-0.9-1.5-0.4-3.5,1.2-4.4c1.6-0.9,3.5-0.4,4.4,1.2c0.9,1.5,0.4,3.5-1.2,4.4
		c-0.5,0.3-1.1,0.4-1.6,0.4C359,418.2,358,417.6,357.4,416.5"/>
	<path d="M423,479.9c-1-1.5-0.7-3.5,0.7-4.5c1.5-1,3.5-0.7,4.5,0.7c1.1,1.4,0.7,3.5-0.7,4.5c-0.6,0.4-1.2,0.6-1.9,0.6
		C424.6,481.3,423.6,480.8,423,479.9 M415.5,469.7c-1.1-1.5-0.7-3.5,0.7-4.5c1.5-1.1,3.5-0.7,4.5,0.7c1.1,1.4,0.7,3.5-0.7,4.5
		c-0.6,0.4-1.2,0.6-1.9,0.6C417.2,471,416.2,470.5,415.5,469.7 M408.1,459.4c-1.1-1.4-0.7-3.5,0.7-4.5c1.4-1.1,3.5-0.7,4.5,0.7
		c1,1.5,0.7,3.5-0.7,4.5c-0.6,0.4-1.2,0.6-1.9,0.6C409.7,460.8,408.7,460.3,408.1,459.4 M400.7,449.2c-1.1-1.4-0.7-3.5,0.7-4.5
		c1.4-1,3.5-0.7,4.5,0.7c1.1,1.5,0.7,3.5-0.7,4.5c-0.6,0.4-1.2,0.6-1.9,0.6C402.3,450.5,401.3,450,400.7,449.2 M393.2,438.9
		c-1-1.5-0.7-3.5,0.7-4.5c1.4-1.1,3.5-0.7,4.5,0.7c1.1,1.4,0.7,3.5-0.7,4.5c-0.6,0.4-1.2,0.6-1.9,0.6
		C394.8,440.3,393.8,439.8,393.2,438.9 M385.8,428.7c-1.1-1.4-0.7-3.5,0.7-4.5c1.5-1,3.5-0.7,4.5,0.7c1,1.4,0.7,3.5-0.7,4.5
		c-0.6,0.4-1.2,0.6-1.9,0.6C387.4,430,386.4,429.6,385.8,428.7 M378.3,418.4c-1-1.4-0.7-3.5,0.7-4.5c1.4-1,3.5-0.7,4.5,0.7
		c1.1,1.4,0.7,3.5-0.7,4.5c-0.6,0.4-1.2,0.6-1.9,0.6C379.9,419.8,379,419.3,378.3,418.4 M370.9,408.2c-1-1.4-0.7-3.5,0.7-4.5
		c1.4-1.1,3.5-0.7,4.5,0.7c1.1,1.5,0.7,3.5-0.7,4.5c-0.6,0.4-1.2,0.6-1.9,0.6C372.5,409.5,371.5,409.1,370.9,408.2"/>
	<path d="M468.2,492.6c-1.2-1.3-1.1-3.4,0.2-4.6c1.3-1.2,3.4-1.1,4.6,0.2c1.2,1.3,1.1,3.4-0.2,4.6c-0.6,0.6-1.4,0.8-2.2,0.8
		C469.7,493.7,468.8,493.3,468.2,492.6 M459.7,483.2c-1.2-1.3-1.1-3.4,0.2-4.6c1.3-1.2,3.4-1.1,4.6,0.2c1.2,1.3,1.1,3.4-0.2,4.6
		c-0.6,0.6-1.4,0.8-2.2,0.8C461.2,484.2,460.4,483.9,459.7,483.2 M451.2,473.8c-1.2-1.3-1.1-3.4,0.2-4.6c1.3-1.2,3.4-1.1,4.6,0.2
		c1.2,1.3,1.1,3.4-0.2,4.6c-0.6,0.6-1.4,0.8-2.2,0.8C452.8,474.8,451.9,474.5,451.2,473.8 M442.8,464.3c-1.2-1.3-1.1-3.4,0.2-4.6
		c1.3-1.2,3.4-1.1,4.6,0.2c1.2,1.3,1.1,3.4-0.2,4.6c-0.6,0.6-1.4,0.8-2.2,0.8C444.3,465.4,443.4,465.1,442.8,464.3 M434.3,454.9
		c-1.2-1.3-1.1-3.4,0.2-4.6c1.3-1.2,3.4-1.1,4.6,0.2c1.2,1.3,1.1,3.4-0.2,4.6c-0.6,0.6-1.4,0.8-2.2,0.8
		C435.8,456,434.9,455.6,434.3,454.9 M425.8,445.5c-1.2-1.3-1.1-3.4,0.2-4.6c1.3-1.2,3.4-1.1,4.6,0.2c1.2,1.3,1.1,3.4-0.2,4.6
		c-0.6,0.6-1.4,0.8-2.2,0.8C427.3,446.6,426.5,446.2,425.8,445.5 M417.3,436.1c-1.2-1.3-1.1-3.4,0.2-4.6c1.3-1.2,3.4-1.1,4.6,0.2
		c1.2,1.3,1.1,3.4-0.2,4.6c-0.6,0.6-1.4,0.8-2.2,0.8C418.9,437.2,418,436.8,417.3,436.1 M408.9,426.7c-1.2-1.3-1.1-3.4,0.2-4.6
		c1.3-1.2,3.4-1.1,4.6,0.2c1.2,1.3,1.1,3.4-0.2,4.6c-0.6,0.6-1.4,0.8-2.2,0.8C410.4,427.8,409.5,427.4,408.9,426.7 M400.4,417.3
		c-1.2-1.3-1.1-3.4,0.2-4.6c1.3-1.2,3.4-1.1,4.6,0.2c1.2,1.3,1.1,3.4-0.2,4.6c-0.6,0.6-1.4,0.8-2.2,0.8
		C401.9,418.3,401,418,400.4,417.3 M391.9,407.9c-1.2-1.3-1.1-3.4,0.2-4.6c1.3-1.2,3.4-1.1,4.6,0.2c1.2,1.3,1.1,3.4-0.2,4.6
		c-0.6,0.6-1.4,0.8-2.2,0.8C393.4,408.9,392.5,408.6,391.9,407.9 M383.4,398.4c-1.2-1.3-1.1-3.4,0.2-4.6c1.3-1.2,3.4-1.1,4.6,0.2
		c1.2,1.3,1.1,3.4-0.2,4.6c-0.6,0.6-1.4,0.8-2.2,0.8C385,399.5,384.1,399.2,383.4,398.4"/>
	<path d="M451.4,438.3c-1.3-1.2-1.4-3.2-0.2-4.6c1.2-1.3,3.2-1.4,4.6-0.2c1.3,1.2,1.4,3.2,0.2,4.6c-0.6,0.7-1.5,1.1-2.4,1.1
		C452.8,439.1,452,438.9,451.4,438.3 M442,429.8c-1.3-1.2-1.4-3.2-0.2-4.6c1.2-1.3,3.2-1.4,4.6-0.2c1.3,1.2,1.4,3.2,0.2,4.6
		c-0.6,0.7-1.5,1.1-2.4,1.1C443.4,430.7,442.6,430.4,442,429.8 M432.6,421.4c-1.3-1.2-1.4-3.2-0.2-4.6c1.2-1.3,3.2-1.4,4.6-0.2
		c1.3,1.2,1.4,3.2,0.2,4.6c-0.6,0.7-1.5,1.1-2.4,1.1C434,422.2,433.2,421.9,432.6,421.4 M423.1,412.9c-1.3-1.2-1.4-3.2-0.2-4.6
		c1.2-1.3,3.2-1.4,4.6-0.2c1.3,1.2,1.4,3.2,0.2,4.6c-0.6,0.7-1.5,1.1-2.4,1.1C424.5,413.7,423.8,413.4,423.1,412.9 M413.7,404.4
		c-1.3-1.2-1.4-3.2-0.2-4.6c1.2-1.3,3.2-1.4,4.6-0.2c1.3,1.2,1.4,3.2,0.2,4.6c-0.6,0.7-1.5,1.1-2.4,1.1
		C415.1,405.2,414.4,405,413.7,404.4 M404.3,395.9c-1.3-1.2-1.4-3.2-0.2-4.6c1.2-1.3,3.2-1.4,4.6-0.2c1.3,1.2,1.4,3.2,0.2,4.6
		c-0.6,0.7-1.5,1.1-2.4,1.1C405.7,396.8,404.9,396.5,404.3,395.9 M394.9,387.4c-1.3-1.2-1.4-3.2-0.2-4.6c1.2-1.3,3.2-1.4,4.6-0.2
		c1.3,1.2,1.4,3.2,0.2,4.6c-0.6,0.7-1.5,1.1-2.4,1.1C396.3,388.3,395.5,388,394.9,387.4"/>
	<path d="M405.2,375.3c-1.4-1.1-1.8-3.1-0.7-4.5c1.1-1.4,3.1-1.8,4.5-0.7c1.4,1,1.8,3.1,0.7,4.5c-0.6,0.9-1.6,1.3-2.6,1.3
		C406.4,375.9,405.8,375.7,405.2,375.3"/>
	<path d="M436.1,374.8c-1.6-0.9-2.1-2.9-1.2-4.4c0.9-1.5,2.9-2.1,4.4-1.2c1.5,0.9,2.1,2.9,1.2,4.4c-0.6,1-1.7,1.6-2.8,1.6
		C437.1,375.3,436.6,375.1,436.1,374.8 M425.1,368.5c-1.5-0.9-2.1-2.9-1.2-4.4c0.9-1.5,2.9-2.1,4.4-1.2c1.6,0.9,2.1,2.9,1.2,4.4
		c-0.6,1-1.7,1.6-2.8,1.6C426.1,368.9,425.6,368.8,425.1,368.5 M414.1,362.2c-1.6-0.9-2.1-2.9-1.2-4.4c0.9-1.5,2.9-2.1,4.4-1.2
		c1.5,0.9,2.1,2.9,1.2,4.4c-0.6,1-1.7,1.6-2.8,1.6C415.2,362.6,414.6,362.5,414.1,362.2"/>
	<path d="M514.2,389.4c-1.6-0.7-2.4-2.6-1.6-4.3c0.7-1.6,2.6-2.4,4.3-1.6c1.6,0.7,2.4,2.6,1.6,4.3c-0.5,1.2-1.7,1.9-3,1.9
		C515.1,389.7,514.6,389.6,514.2,389.4 M502.6,384.2c-1.6-0.7-2.4-2.6-1.6-4.3c0.7-1.6,2.6-2.4,4.3-1.6c1.6,0.7,2.4,2.6,1.6,4.3
		c-0.5,1.2-1.7,1.9-3,1.9C503.5,384.5,503.1,384.4,502.6,384.2 M491.1,379.1c-1.6-0.7-2.4-2.6-1.6-4.3c0.7-1.6,2.6-2.4,4.3-1.6
		c1.6,0.7,2.4,2.6,1.6,4.3c-0.5,1.2-1.7,1.9-3,1.9C491.9,379.4,491.5,379.3,491.1,379.1 M479.5,373.9c-1.6-0.7-2.4-2.6-1.6-4.3
		c0.7-1.6,2.6-2.4,4.3-1.6c1.6,0.7,2.4,2.6,1.6,4.3c-0.5,1.2-1.7,1.9-3,1.9C480.4,374.2,479.9,374.1,479.5,373.9 M467.9,368.8
		c-1.6-0.7-2.4-2.6-1.6-4.3c0.7-1.6,2.6-2.4,4.3-1.6c1.6,0.7,2.4,2.6,1.6,4.3c-0.5,1.2-1.7,1.9-3,1.9
		C468.8,369.1,468.3,369,467.9,368.8 M456.3,363.6c-1.6-0.7-2.4-2.6-1.6-4.3c0.7-1.6,2.6-2.4,4.3-1.6c1.6,0.7,2.4,2.6,1.6,4.3
		c-0.5,1.2-1.7,1.9-3,1.9C457.2,363.9,456.8,363.8,456.3,363.6 M444.8,358.5c-1.6-0.7-2.4-2.6-1.6-4.3c0.7-1.6,2.6-2.4,4.3-1.6
		c1.6,0.7,2.4,2.6,1.6,4.3c-0.5,1.2-1.7,1.9-3,1.9C445.7,358.8,445.2,358.7,444.8,358.5 M433.2,353.3c-1.6-0.7-2.4-2.6-1.6-4.3
		c0.7-1.6,2.6-2.4,4.3-1.6c1.6,0.7,2.4,2.6,1.6,4.3c-0.5,1.2-1.7,1.9-3,1.9C434.1,353.6,433.6,353.5,433.2,353.3 M421.6,348.2
		c-1.6-0.7-2.4-2.6-1.6-4.3c0.7-1.6,2.6-2.4,4.3-1.6c1.6,0.7,2.4,2.6,1.6,4.3c-0.5,1.2-1.7,1.9-3,1.9
		C422.5,348.5,422.1,348.4,421.6,348.2"/>
	<path d="M475.8,349.1c-1.7-0.6-2.6-2.4-2.1-4.1c0.6-1.7,2.4-2.6,4.1-2.1c1.7,0.6,2.6,2.4,2.1,4.1c-0.4,1.4-1.7,2.2-3.1,2.2
		C476.5,349.3,476.2,349.2,475.8,349.1 M463.8,345.2c-1.7-0.6-2.6-2.4-2.1-4.1c0.6-1.7,2.4-2.6,4.1-2.1c1.7,0.6,2.6,2.4,2.1,4.1
		c-0.4,1.4-1.7,2.2-3.1,2.2C464.5,345.4,464.1,345.3,463.8,345.2 M451.7,341.3c-1.7-0.6-2.6-2.4-2.1-4.1c0.6-1.7,2.4-2.6,4.1-2.1
		c1.7,0.6,2.6,2.4,2.1,4.1c-0.4,1.4-1.7,2.2-3.1,2.2C452.4,341.4,452.1,341.4,451.7,341.3 M439.7,337.4c-1.7-0.6-2.6-2.4-2.1-4.1
		c0.6-1.7,2.4-2.6,4.1-2.1c1.7,0.6,2.6,2.4,2.1,4.1c-0.4,1.4-1.7,2.2-3.1,2.2C440.4,337.5,440,337.5,439.7,337.4 M427.6,333.5
		c-1.7-0.5-2.6-2.4-2.1-4.1c0.6-1.7,2.4-2.6,4.1-2.1c1.7,0.6,2.6,2.4,2.1,4.1c-0.4,1.4-1.7,2.2-3.1,2.2
		C428.3,333.6,428,333.6,427.6,333.5"/>
	<path d="M518.8,336.6c-1.8-0.4-2.9-2.1-2.5-3.8c0.4-1.7,2.1-2.9,3.8-2.5c1.7,0.4,2.9,2.1,2.5,3.8c-0.3,1.5-1.7,2.6-3.2,2.6
		C519.3,336.7,519,336.7,518.8,336.6 M506.4,334c-1.8-0.4-2.9-2.1-2.5-3.8c0.4-1.8,2.1-2.9,3.8-2.5c1.8,0.4,2.9,2.1,2.5,3.8
		c-0.3,1.5-1.7,2.6-3.2,2.6C506.9,334.1,506.6,334.1,506.4,334 M494,331.4c-1.7-0.4-2.9-2.1-2.5-3.8c0.4-1.8,2.1-2.9,3.8-2.5
		c1.7,0.4,2.9,2.1,2.5,3.8c-0.3,1.5-1.7,2.6-3.2,2.6C494.5,331.4,494.3,331.4,494,331.4 M481.6,328.7c-1.8-0.4-2.9-2.1-2.5-3.8
		c0.4-1.8,2.1-2.9,3.8-2.5c1.8,0.4,2.9,2.1,2.5,3.8c-0.3,1.5-1.7,2.6-3.2,2.6C482.1,328.8,481.9,328.8,481.6,328.7 M469.2,326.1
		c-1.8-0.4-2.9-2.1-2.5-3.8c0.4-1.8,2.1-2.9,3.8-2.5c1.8,0.4,2.9,2.1,2.5,3.8c-0.3,1.5-1.7,2.6-3.2,2.6
		C469.7,326.2,469.5,326.1,469.2,326.1 M456.9,323.5c-1.8-0.4-2.9-2.1-2.5-3.8c0.4-1.8,2.1-2.9,3.8-2.5c1.8,0.4,2.9,2.1,2.5,3.8
		c-0.3,1.5-1.7,2.6-3.2,2.6C457.3,323.5,457.1,323.5,456.9,323.5 M444.5,320.8c-1.8-0.4-2.9-2.1-2.5-3.8c0.4-1.8,2.1-2.9,3.8-2.5
		c1.8,0.4,2.9,2.1,2.5,3.8c-0.3,1.5-1.7,2.6-3.2,2.6C444.9,320.9,444.7,320.9,444.5,320.8 M432.1,318.2c-1.8-0.4-2.9-2.1-2.5-3.8
		c0.4-1.7,2.1-2.9,3.8-2.5c1.8,0.4,2.9,2.1,2.5,3.8c-0.3,1.5-1.7,2.6-3.2,2.6C432.5,318.3,432.3,318.2,432.1,318.2"/>
	<path d="M447.5,303.9c-1.8-0.2-3.1-1.8-2.9-3.6c0.2-1.8,1.8-3.1,3.6-2.9c1.8,0.2,3.1,1.8,2.9,3.6c-0.2,1.7-1.6,2.9-3.2,2.9
		C447.7,303.9,447.6,303.9,447.5,303.9 M434.9,302.6c-1.8-0.2-3.1-1.8-2.9-3.6c0.2-1.8,1.8-3.1,3.6-2.9c1.8,0.2,3.1,1.8,2.9,3.6
		c-0.2,1.7-1.6,2.9-3.2,2.9C435.1,302.6,435,302.6,434.9,302.6"/>
	<path d="M432.8,283.5c0-1.8,1.5-3.2,3.2-3.2c1.8,0,3.2,1.5,3.2,3.2c0,1.8-1.5,3.2-3.2,3.2C434.3,286.7,432.8,285.3,432.8,283.5"/>
	<path d="M432,267.9c-0.2-1.8,1.1-3.4,2.9-3.6c1.8-0.2,3.4,1.1,3.6,2.9c0.2,1.8-1.1,3.4-2.9,3.6c-0.1,0-0.2,0-0.3,0
		C433.6,270.8,432.2,269.6,432,267.9 M444.6,266.6c-0.2-1.8,1.1-3.4,2.9-3.6c1.8-0.2,3.4,1.1,3.6,2.9c0.2,1.8-1.1,3.4-2.9,3.6
		c-0.1,0-0.2,0-0.3,0C446.2,269.5,444.8,268.3,444.6,266.6 M457.2,265.3c-0.2-1.8,1.1-3.4,2.9-3.6c1.8-0.2,3.4,1.1,3.6,2.9
		c0.2,1.8-1.1,3.4-2.9,3.6c-0.1,0-0.2,0-0.3,0C458.8,268.2,457.4,267,457.2,265.3 M469.8,264c-0.2-1.8,1.1-3.4,2.9-3.6
		c1.8-0.2,3.4,1.1,3.6,2.9c0.2,1.8-1.1,3.4-2.9,3.6c-0.1,0-0.2,0-0.3,0C471.4,266.9,470,265.6,469.8,264 M482.4,262.6
		c-0.2-1.8,1.1-3.4,2.9-3.6c1.8-0.2,3.4,1.1,3.6,2.9c0.2,1.8-1.1,3.4-2.9,3.6c-0.1,0-0.2,0-0.3,0C484,265.5,482.6,264.3,482.4,262.6
		 M495,261.3c-0.2-1.8,1.1-3.4,2.9-3.6c1.8-0.2,3.4,1.1,3.6,2.9c0.2,1.8-1.1,3.4-2.9,3.6c-0.1,0-0.2,0-0.3,0
		C496.6,264.2,495.2,263,495,261.3 M507.6,260c-0.2-1.8,1.1-3.4,2.9-3.6c1.8-0.2,3.4,1.1,3.6,2.9c0.2,1.8-1.1,3.4-2.9,3.6
		c-0.1,0-0.2,0-0.3,0C509.2,262.9,507.8,261.7,507.6,260 M520.2,258.7c-0.2-1.8,1.1-3.4,2.9-3.6c1.8-0.2,3.4,1.1,3.6,2.9
		c0.2,1.8-1.1,3.4-2.9,3.6c-0.1,0-0.2,0-0.3,0C521.8,261.6,520.4,260.3,520.2,258.7"/>
	<path d="M429.6,252.6c-0.4-1.8,0.7-3.5,2.5-3.8c1.8-0.4,3.5,0.7,3.8,2.5c0.4,1.8-0.7,3.5-2.5,3.8c-0.2,0-0.5,0.1-0.7,0.1
		C431.3,255.1,429.9,254.1,429.6,252.6 M442,249.9c-0.4-1.8,0.7-3.5,2.5-3.8c1.8-0.4,3.5,0.7,3.8,2.5c0.4,1.8-0.7,3.5-2.5,3.8
		c-0.2,0-0.5,0.1-0.7,0.1C443.6,252.5,442.3,251.5,442,249.9 M454.4,247.3c-0.4-1.8,0.7-3.5,2.5-3.8c1.8-0.4,3.5,0.7,3.8,2.5
		c0.4,1.7-0.8,3.5-2.5,3.8c-0.2,0-0.5,0.1-0.7,0.1C456,249.9,454.7,248.8,454.4,247.3 M466.8,244.7c-0.4-1.7,0.7-3.5,2.5-3.8
		c1.7-0.4,3.5,0.7,3.8,2.5c0.4,1.8-0.7,3.5-2.5,3.8c-0.2,0-0.5,0.1-0.7,0.1C468.4,247.2,467.1,246.2,466.8,244.7 M479.1,242
		c-0.4-1.8,0.7-3.5,2.5-3.8c1.8-0.4,3.5,0.7,3.8,2.5c0.4,1.8-0.7,3.5-2.5,3.8c-0.2,0-0.5,0.1-0.7,0.1
		C480.8,244.6,479.5,243.6,479.1,242 M491.5,239.4c-0.4-1.7,0.7-3.5,2.5-3.8c1.7-0.4,3.5,0.7,3.8,2.5c0.4,1.8-0.7,3.5-2.5,3.8
		c-0.2,0-0.5,0.1-0.7,0.1C493.2,242,491.9,240.9,491.5,239.4 M503.9,236.8c-0.4-1.8,0.7-3.5,2.5-3.8c1.8-0.4,3.5,0.7,3.8,2.5
		c0.4,1.8-0.8,3.5-2.5,3.8c-0.2,0-0.5,0.1-0.7,0.1C505.6,239.3,504.3,238.3,503.9,236.8"/>
	<path d="M425.6,237.6c-0.6-1.7,0.4-3.5,2.1-4.1c1.7-0.6,3.5,0.4,4.1,2.1c0.6,1.7-0.4,3.5-2.1,4.1c-0.3,0.1-0.7,0.2-1,0.2
		C427.3,239.8,426,238.9,425.6,237.6 M437.6,233.6c-0.5-1.7,0.4-3.5,2.1-4.1c1.7-0.5,3.5,0.4,4.1,2.1c0.6,1.7-0.4,3.5-2.1,4.1
		c-0.3,0.1-0.7,0.2-1,0.2C439.3,235.9,438,235,437.6,233.6 M449.7,229.7c-0.6-1.7,0.4-3.5,2.1-4.1c1.7-0.6,3.5,0.4,4.1,2.1
		c0.6,1.7-0.4,3.5-2.1,4.1c-0.3,0.1-0.7,0.2-1,0.2C451.4,232,450.1,231.1,449.7,229.7 M461.7,225.8c-0.6-1.7,0.4-3.5,2.1-4.1
		c1.7-0.6,3.5,0.4,4.1,2.1c0.6,1.7-0.4,3.5-2.1,4.1c-0.3,0.1-0.7,0.2-1,0.2C463.4,228.1,462.1,227.2,461.7,225.8 M473.7,221.9
		c-0.6-1.7,0.4-3.5,2.1-4.1c1.7-0.6,3.5,0.4,4.1,2.1c0.6,1.7-0.4,3.5-2.1,4.1c-0.3,0.1-0.7,0.2-1,0.2
		C475.5,224.1,474.2,223.3,473.7,221.9"/>
	<path d="M420,223c-0.7-1.6,0-3.6,1.6-4.3c1.6-0.7,3.5,0,4.3,1.6c0.7,1.6,0,3.5-1.6,4.3c-0.4,0.2-0.9,0.3-1.3,0.3
		C421.7,225,420.5,224.2,420,223"/>
	<path d="M412.9,209.2c-0.9-1.5-0.4-3.5,1.2-4.4c1.5-0.9,3.5-0.4,4.4,1.2c0.9,1.5,0.4,3.5-1.2,4.4c-0.5,0.3-1.1,0.4-1.6,0.4
		C414.6,210.8,413.5,210.2,412.9,209.2 M423.9,202.8c-0.9-1.5-0.4-3.5,1.2-4.4c1.6-0.9,3.5-0.4,4.4,1.2c0.9,1.5,0.4,3.5-1.2,4.4
		c-0.5,0.3-1.1,0.4-1.6,0.4C425.6,204.5,424.5,203.9,423.9,202.8 M434.9,196.5c-0.9-1.5-0.4-3.5,1.2-4.4c1.5-0.9,3.5-0.4,4.4,1.2
		c0.9,1.5,0.4,3.5-1.2,4.4c-0.5,0.3-1.1,0.4-1.6,0.4C436.6,198.1,435.5,197.6,434.9,196.5 M445.8,190.2c-0.9-1.5-0.4-3.5,1.2-4.4
		c1.6-0.9,3.5-0.4,4.4,1.2c0.9,1.5,0.4,3.5-1.2,4.4c-0.5,0.3-1.1,0.4-1.6,0.4C447.5,191.8,446.4,191.2,445.8,190.2 M456.8,183.8
		c-0.9-1.5-0.4-3.5,1.2-4.4c1.6-0.9,3.5-0.4,4.4,1.2c0.9,1.5,0.4,3.5-1.2,4.4c-0.5,0.3-1.1,0.4-1.6,0.4
		C458.5,185.5,457.4,184.9,456.8,183.8 M467.8,177.5c-0.9-1.5-0.4-3.5,1.2-4.4c1.6-0.9,3.5-0.4,4.4,1.2c0.9,1.5,0.4,3.5-1.2,4.4
		c-0.5,0.3-1.1,0.4-1.6,0.4C469.5,179.1,468.4,178.6,467.8,177.5 M478.7,171.2c-0.9-1.5-0.4-3.5,1.2-4.4c1.5-0.9,3.5-0.4,4.4,1.2
		c0.9,1.5,0.4,3.5-1.2,4.4c-0.5,0.3-1.1,0.4-1.6,0.4C480.4,172.8,479.3,172.2,478.7,171.2"/>
	<path d="M404.5,196.1c-1-1.4-0.7-3.5,0.7-4.5c1.4-1,3.5-0.7,4.5,0.7c1.1,1.4,0.7,3.5-0.7,4.5c-0.6,0.4-1.2,0.6-1.9,0.6
		C406.1,197.5,405.1,197,404.5,196.1 M414.7,188.7c-1.1-1.4-0.7-3.5,0.7-4.5c1.4-1.1,3.5-0.7,4.5,0.7c1,1.4,0.7,3.5-0.7,4.5
		c-0.6,0.4-1.2,0.6-1.9,0.6C416.3,190,415.3,189.6,414.7,188.7 M425,181.2c-1.1-1.4-0.7-3.5,0.7-4.5c1.4-1,3.5-0.7,4.5,0.7
		c1,1.4,0.7,3.5-0.7,4.5c-0.6,0.4-1.2,0.6-1.9,0.6C426.6,182.6,425.6,182.1,425,181.2 M435.2,173.8c-1-1.4-0.7-3.5,0.7-4.5
		c1.4-1,3.5-0.7,4.5,0.7c1.1,1.4,0.7,3.5-0.7,4.5c-0.6,0.4-1.2,0.6-1.9,0.6C436.8,175.1,435.8,174.7,435.2,173.8 M445.4,166.4
		c-1.1-1.4-0.7-3.5,0.7-4.5c1.4-1.1,3.5-0.7,4.5,0.7c1,1.4,0.7,3.5-0.7,4.5c-0.6,0.4-1.2,0.6-1.9,0.6
		C447.1,167.7,446.1,167.2,445.4,166.4 M455.7,158.9c-1-1.4-0.7-3.5,0.7-4.5c1.4-1.1,3.5-0.7,4.5,0.7c1.1,1.5,0.7,3.5-0.7,4.5
		c-0.6,0.4-1.2,0.6-1.9,0.6C457.3,160.2,456.3,159.8,455.7,158.9 M465.9,151.5c-1.1-1.4-0.7-3.5,0.7-4.5c1.4-1,3.5-0.7,4.5,0.7
		c1.1,1.4,0.7,3.5-0.7,4.5c-0.6,0.4-1.2,0.6-1.9,0.6C467.6,152.8,466.6,152.3,465.9,151.5 M476.2,144c-1.1-1.4-0.7-3.5,0.7-4.5
		c1.4-1,3.5-0.7,4.5,0.7c1,1.4,0.7,3.5-0.7,4.5c-0.6,0.4-1.2,0.6-1.9,0.6C477.8,145.4,476.8,144.9,476.2,144 M486.4,136.6
		c-1-1.5-0.7-3.5,0.7-4.5c1.4-1.1,3.5-0.7,4.5,0.7c1.1,1.4,0.7,3.5-0.7,4.5c-0.6,0.4-1.2,0.6-1.9,0.6
		C488.1,137.9,487.1,137.4,486.4,136.6 M496.7,129.1c-1.1-1.4-0.7-3.5,0.7-4.5c1.4-1.1,3.5-0.7,4.5,0.7c1,1.4,0.7,3.5-0.7,4.5
		c-0.6,0.4-1.2,0.6-1.9,0.6C498.3,130.5,497.3,130,496.7,129.1 M506.9,121.7c-1-1.4-0.7-3.5,0.7-4.5c1.4-1,3.5-0.7,4.5,0.7
		c1.1,1.4,0.7,3.5-0.7,4.5c-0.6,0.4-1.2,0.6-1.9,0.6C508.6,123,507.6,122.6,506.9,121.7"/>
	<path d="M394.7,184.1c-1.2-1.3-1.1-3.4,0.2-4.6c1.3-1.2,3.4-1.1,4.6,0.2c1.2,1.3,1.1,3.4-0.2,4.6c-0.6,0.6-1.4,0.8-2.2,0.8
		C396.2,185.1,395.3,184.8,394.7,184.1 M404.1,175.6c-1.2-1.3-1.1-3.4,0.2-4.6c1.3-1.2,3.4-1.1,4.6,0.2c1.2,1.3,1.1,3.4-0.2,4.6
		c-0.6,0.6-1.4,0.8-2.2,0.8C405.6,176.7,404.7,176.3,404.1,175.6 M413.5,167.1c-1.2-1.3-1.1-3.4,0.2-4.6c1.3-1.2,3.4-1.1,4.6,0.2
		c1.2,1.3,1.1,3.4-0.2,4.6c-0.6,0.6-1.4,0.8-2.2,0.8C415,168.2,414.1,167.8,413.5,167.1"/>
	<path d="M383.7,173.1c-1.3-1.2-1.4-3.2-0.2-4.6c1.2-1.3,3.2-1.4,4.6-0.2c1.3,1.2,1.4,3.2,0.2,4.6c-0.6,0.7-1.5,1.1-2.4,1.1
		C385.1,173.9,384.3,173.6,383.7,173.1 M392.2,163.6c-1.3-1.2-1.4-3.2-0.2-4.6c1.2-1.3,3.2-1.4,4.6-0.2c1.3,1.2,1.4,3.2,0.2,4.6
		c-0.6,0.7-1.5,1.1-2.4,1.1C393.5,164.5,392.8,164.2,392.2,163.6 M400.6,154.2c-1.3-1.2-1.4-3.2-0.2-4.6c1.2-1.3,3.2-1.4,4.6-0.2
		c1.3,1.2,1.4,3.3,0.2,4.6c-0.6,0.7-1.5,1.1-2.4,1.1C402,155.1,401.2,154.8,400.6,154.2 M409.1,144.8c-1.3-1.2-1.4-3.2-0.2-4.6
		c1.2-1.3,3.2-1.4,4.6-0.2c1.3,1.2,1.4,3.2,0.2,4.6c-0.6,0.7-1.5,1.1-2.4,1.1C410.5,145.7,409.7,145.4,409.1,144.8 M417.6,135.4
		c-1.3-1.2-1.4-3.2-0.2-4.6c1.2-1.3,3.2-1.4,4.6-0.2c1.3,1.2,1.4,3.2,0.2,4.6c-0.6,0.7-1.5,1.1-2.4,1.1
		C419,136.2,418.2,136,417.6,135.4 M426.1,126c-1.3-1.2-1.4-3.3-0.2-4.6c1.2-1.3,3.2-1.4,4.6-0.2c1.3,1.2,1.4,3.2,0.2,4.6
		c-0.6,0.7-1.5,1.1-2.4,1.1C427.4,126.8,426.7,126.5,426.1,126 M434.5,116.6c-1.3-1.2-1.4-3.2-0.2-4.6c1.2-1.3,3.2-1.4,4.6-0.2
		c1.3,1.2,1.4,3.3,0.2,4.6c-0.6,0.7-1.5,1.1-2.4,1.1C435.9,117.4,435.2,117.1,434.5,116.6"/>
	<path d="M443.2,107.2c-1.3-1.2-1.4-3.2-0.2-4.6c1.2-1.3,3.2-1.4,4.6-0.2c1.3,1.2,1.4,3.2,0.2,4.6c-0.6,0.7-1.5,1.1-2.4,1.1
		C444.6,108,443.8,107.7,443.2,107.2 M451.7,97.8c-1.3-1.2-1.4-3.2-0.2-4.6c1.2-1.3,3.2-1.4,4.6-0.2c1.3,1.2,1.4,3.2,0.2,4.6
		c-0.6,0.7-1.5,1.1-2.4,1.1C453.1,98.6,452.3,98.3,451.7,97.8 M460.2,88.3c-1.3-1.2-1.4-3.2-0.2-4.6c1.2-1.3,3.2-1.4,4.6-0.2
		c1.3,1.2,1.4,3.3,0.2,4.6c-0.6,0.7-1.5,1.1-2.4,1.1C461.6,89.2,460.8,88.9,460.2,88.3 M468.7,78.9c-1.3-1.2-1.4-3.2-0.2-4.6
		c1.2-1.3,3.2-1.4,4.6-0.2c1.3,1.2,1.4,3.2,0.2,4.6c-0.6,0.7-1.5,1.1-2.4,1.1C470,79.8,469.3,79.5,468.7,78.9 M477.1,69.5
		c-1.3-1.2-1.4-3.2-0.2-4.6c1.2-1.3,3.2-1.4,4.6-0.2c1.3,1.2,1.4,3.2,0.2,4.6c-0.6,0.7-1.5,1.1-2.4,1.1
		C478.5,70.3,477.7,70.1,477.1,69.5 M485.6,60.1c-1.3-1.2-1.4-3.3-0.2-4.6c1.2-1.3,3.2-1.4,4.6-0.2c1.3,1.2,1.4,3.2,0.2,4.6
		c-0.6,0.7-1.5,1.1-2.4,1.1C487,60.9,486.2,60.7,485.6,60.1 M494.1,50.7c-1.3-1.2-1.4-3.2-0.2-4.6c1.2-1.3,3.2-1.4,4.6-0.2
		c1.3,1.2,1.4,3.3,0.2,4.6c-0.6,0.7-1.5,1.1-2.4,1.1C495.5,51.5,494.7,51.2,494.1,50.7"/>
	<path d="M371.6,163.3c-1.4-1.1-1.8-3.1-0.7-4.5c1.1-1.4,3.1-1.8,4.5-0.7c1.4,1,1.8,3.1,0.7,4.5c-0.6,0.9-1.6,1.3-2.6,1.3
		C372.8,163.9,372.2,163.7,371.6,163.3 M379,153c-1.4-1-1.8-3.1-0.7-4.5c1-1.4,3.1-1.8,4.5-0.7c1.5,1.1,1.8,3.1,0.7,4.5
		c-0.6,0.9-1.6,1.3-2.6,1.3C380.3,153.6,379.6,153.4,379,153 M386.5,142.8c-1.4-1.1-1.8-3.1-0.7-4.5c1-1.4,3.1-1.8,4.5-0.7
		c1.4,1,1.8,3.1,0.7,4.5c-0.6,0.9-1.6,1.3-2.6,1.3C387.7,143.4,387.1,143.2,386.5,142.8 M393.9,132.5c-1.5-1-1.8-3.1-0.7-4.5
		c1-1.4,3.1-1.8,4.5-0.7c1.4,1,1.8,3.1,0.7,4.5c-0.6,0.9-1.6,1.3-2.6,1.3C395.2,133.1,394.5,132.9,393.9,132.5 M401.4,122.3
		c-1.4-1.1-1.8-3.1-0.7-4.5c1.1-1.4,3.1-1.8,4.5-0.7c1.4,1,1.8,3.1,0.7,4.5c-0.6,0.9-1.6,1.3-2.6,1.3
		C402.6,122.9,401.9,122.7,401.4,122.3 M408.8,112c-1.4-1.1-1.8-3.1-0.7-4.5c1.1-1.4,3.1-1.8,4.5-0.7c1.4,1,1.8,3.1,0.7,4.5
		c-0.6,0.9-1.6,1.3-2.6,1.3C410.1,112.7,409.4,112.5,408.8,112 M416.3,101.8c-1.4-1-1.8-3.1-0.7-4.5c1-1.4,3.1-1.8,4.5-0.7
		c1.5,1.1,1.8,3.1,0.7,4.5c-0.6,0.9-1.6,1.3-2.6,1.3C417.5,102.4,416.8,102.2,416.3,101.8 M423.7,91.5c-1.4-1.1-1.8-3.1-0.7-4.5
		c1.1-1.4,3.1-1.8,4.5-0.7c1.4,1,1.8,3.1,0.7,4.5c-0.6,0.9-1.6,1.3-2.6,1.3C425,92.2,424.3,92,423.7,91.5 M431.2,81.3
		c-1.5-1-1.8-3.1-0.7-4.5c1.1-1.4,3.1-1.8,4.5-0.7c1.5,1.1,1.8,3.1,0.7,4.5c-0.6,0.9-1.6,1.3-2.6,1.3
		C432.4,81.9,431.7,81.7,431.2,81.3 M438.6,71c-1.4-1-1.8-3.1-0.7-4.5c1-1.4,3.1-1.8,4.5-0.7c1.4,1.1,1.8,3.1,0.7,4.5
		c-0.6,0.9-1.6,1.3-2.6,1.3C439.8,71.7,439.2,71.5,438.6,71"/>
	<path d="M358.5,154.8c-1.5-0.9-2.1-2.9-1.2-4.4c0.9-1.5,2.9-2.1,4.4-1.2c1.6,0.9,2.1,2.9,1.2,4.4c-0.6,1-1.7,1.6-2.8,1.6
		C359.6,155.2,359.1,155.1,358.5,154.8 M364.9,143.8c-1.6-0.9-2.1-2.9-1.2-4.4c0.9-1.5,2.9-2.1,4.4-1.2c1.5,0.9,2.1,2.9,1.2,4.4
		c-0.6,1-1.7,1.6-2.8,1.6C365.9,144.3,365.4,144.1,364.9,143.8 M371.2,132.9c-1.5-0.9-2.1-2.9-1.2-4.4c0.9-1.5,2.9-2.1,4.4-1.2
		c1.6,0.9,2.1,2.9,1.2,4.4c-0.6,1-1.7,1.6-2.8,1.6C372.3,133.3,371.7,133.2,371.2,132.9 M377.5,121.9c-1.5-0.9-2.1-2.9-1.2-4.4
		c0.9-1.5,2.9-2.1,4.4-1.2c1.6,0.9,2.1,2.9,1.2,4.4c-0.6,1-1.7,1.6-2.8,1.6C378.6,122.3,378.1,122.2,377.5,121.9 M383.9,110.9
		c-1.5-0.9-2.1-2.9-1.2-4.4c0.9-1.5,2.9-2.1,4.4-1.2c1.6,0.9,2.1,2.9,1.2,4.4c-0.6,1-1.7,1.6-2.8,1.6
		C385,111.4,384.4,111.2,383.9,110.9 M390.2,100c-1.6-0.9-2.1-2.9-1.2-4.4c0.9-1.5,2.9-2.1,4.4-1.2c1.6,0.9,2.1,2.9,1.2,4.4
		c-0.6,1-1.7,1.6-2.8,1.6C391.3,100.4,390.7,100.2,390.2,100"/>
	<path d="M344.7,147.7c-1.6-0.7-2.4-2.6-1.6-4.3c0.7-1.6,2.6-2.4,4.3-1.6c1.6,0.7,2.4,2.6,1.6,4.3c-0.5,1.2-1.7,1.9-3,1.9
		C345.6,148,345.1,147.9,344.7,147.7 M349.8,136.2c-1.6-0.7-2.4-2.6-1.6-4.3c0.7-1.6,2.6-2.4,4.3-1.6c1.6,0.7,2.4,2.6,1.6,4.3
		c-0.5,1.2-1.7,1.9-3,1.9C350.7,136.5,350.3,136.4,349.8,136.2 M355,124.6c-1.6-0.7-2.4-2.6-1.6-4.3c0.7-1.6,2.6-2.4,4.3-1.6
		c1.6,0.7,2.4,2.6,1.6,4.3c-0.5,1.2-1.7,1.9-3,1.9C355.9,124.9,355.4,124.8,355,124.6 M360.1,113c-1.6-0.7-2.4-2.6-1.6-4.3
		c0.7-1.6,2.6-2.4,4.3-1.6c1.6,0.7,2.4,2.6,1.6,4.3c-0.5,1.2-1.7,1.9-3,1.9C361,113.3,360.6,113.2,360.1,113 M365.3,101.5
		c-1.6-0.7-2.4-2.6-1.6-4.3c0.7-1.6,2.6-2.4,4.3-1.6c1.6,0.7,2.4,2.6,1.6,4.3c-0.5,1.2-1.7,1.9-3,1.9
		C366.2,101.7,365.7,101.6,365.3,101.5 M370.5,89.9c-1.6-0.7-2.4-2.6-1.6-4.3c0.7-1.6,2.6-2.4,4.3-1.6c1.6,0.7,2.4,2.6,1.6,4.3
		c-0.5,1.2-1.7,1.9-3,1.9C371.3,90.2,370.9,90.1,370.5,89.9 M375.6,78.3c-1.6-0.7-2.4-2.6-1.6-4.3c0.7-1.6,2.6-2.4,4.3-1.6
		c1.6,0.7,2.4,2.6,1.6,4.3c-0.5,1.2-1.7,1.9-3,1.9C376.5,78.6,376,78.5,375.6,78.3 M380.8,66.7c-1.6-0.7-2.4-2.6-1.6-4.3
		c0.7-1.6,2.6-2.4,4.3-1.6c1.6,0.7,2.4,2.6,1.6,4.3c-0.5,1.2-1.7,1.9-3,1.9C381.6,67,381.2,66.9,380.8,66.7 M385.9,55.2
		c-1.6-0.7-2.4-2.6-1.6-4.3c0.7-1.6,2.6-2.4,4.3-1.6c1.6,0.7,2.4,2.6,1.6,4.3c-0.5,1.2-1.7,1.9-3,1.9
		C386.8,55.4,386.3,55.4,385.9,55.2 M391.1,43.6c-1.6-0.7-2.4-2.6-1.6-4.3c0.7-1.6,2.6-2.4,4.3-1.6c1.6,0.7,2.4,2.6,1.6,4.3
		c-0.5,1.2-1.7,1.9-3,1.9C391.9,43.9,391.5,43.8,391.1,43.6"/>
	<path d="M330.2,142.2c-1.7-0.6-2.6-2.4-2.1-4.1c0.6-1.7,2.4-2.6,4.1-2.1c1.7,0.6,2.6,2.4,2.1,4.1c-0.4,1.4-1.7,2.2-3.1,2.2
		C330.8,142.3,330.5,142.3,330.2,142.2 M334.1,130.1c-1.7-0.6-2.6-2.4-2.1-4.1c0.6-1.7,2.4-2.6,4.1-2.1c1.7,0.6,2.6,2.4,2.1,4.1
		c-0.4,1.4-1.7,2.2-3.1,2.2C334.8,130.3,334.4,130.2,334.1,130.1 M338,118.1c-1.7-0.6-2.6-2.4-2.1-4.1c0.6-1.7,2.4-2.6,4.1-2.1
		c1.7,0.6,2.6,2.4,2.1,4.1c-0.4,1.4-1.7,2.2-3.1,2.2C338.7,118.2,338.3,118.2,338,118.1 M341.9,106c-1.7-0.6-2.6-2.4-2.1-4.1
		c0.6-1.7,2.4-2.6,4.1-2.1c1.7,0.5,2.6,2.4,2.1,4.1c-0.4,1.4-1.7,2.2-3.1,2.2C342.6,106.2,342.3,106.1,341.9,106 M345.8,94
		c-1.7-0.6-2.6-2.4-2.1-4.1c0.6-1.7,2.4-2.6,4.1-2.1c1.7,0.5,2.6,2.4,2.1,4.1c-0.4,1.4-1.7,2.2-3.1,2.2
		C346.5,94.1,346.2,94.1,345.8,94"/>
	<path d="M315.2,138.1c-1.8-0.4-2.9-2.1-2.5-3.8c0.4-1.8,2.1-2.9,3.8-2.5c1.8,0.4,2.9,2.1,2.5,3.8c-0.3,1.5-1.7,2.6-3.2,2.6
		C315.6,138.2,315.4,138.2,315.2,138.1"/>
	<path d="M299.8,135.7c-1.8-0.2-3.1-1.8-2.9-3.6c0.2-1.8,1.8-3.1,3.6-2.9c1.8,0.2,3.1,1.8,2.9,3.6c-0.2,1.7-1.6,2.9-3.2,2.9
		C300,135.7,299.9,135.7,299.8,135.7 M301.1,123.1c-1.8-0.2-3.1-1.8-2.9-3.6c0.2-1.8,1.8-3.1,3.6-2.9c1.8,0.2,3.1,1.8,2.9,3.6
		c-0.2,1.7-1.6,2.9-3.2,2.9C301.3,123.1,301.2,123.1,301.1,123.1 M302.4,110.5c-1.8-0.2-3.1-1.8-2.9-3.6c0.2-1.8,1.8-3.1,3.6-2.9
		c1.8,0.2,3.1,1.8,2.9,3.6c-0.2,1.7-1.6,2.9-3.2,2.9C302.7,110.5,302.6,110.5,302.4,110.5 M303.8,97.9c-1.8-0.2-3.1-1.8-2.9-3.6
		c0.2-1.8,1.8-3.1,3.6-2.9c1.8,0.2,3.1,1.8,2.9,3.6c-0.2,1.7-1.6,2.9-3.2,2.9C304,97.9,303.9,97.9,303.8,97.9 M305.1,85.3
		c-1.8-0.2-3.1-1.8-2.9-3.6c0.2-1.8,1.8-3.1,3.6-2.9c1.8,0.2,3.1,1.8,2.9,3.6c-0.2,1.7-1.6,2.9-3.2,2.9
		C305.3,85.3,305.2,85.3,305.1,85.3 M306.4,72.7c-1.8-0.2-3.1-1.8-2.9-3.6c0.2-1.8,1.8-3.1,3.6-2.9c1.8,0.2,3.1,1.8,2.9,3.6
		c-0.2,1.7-1.6,2.9-3.2,2.9C306.6,72.7,306.5,72.7,306.4,72.7"/>
</g>
</svg>
