<?xml version="1.0" encoding="utf-8"?>
<!-- Generator: Adobe Illustrator 23.0.3, SVG Export Plug-In . SVG Version: 6.00 Build 0)  -->
<svg version="1.1" id="Layer_1" xmlns="http://www.w3.org/2000/svg" xmlns:xlink="http://www.w3.org/1999/xlink" x="0px" y="0px"
	 viewBox="0 0 486.2 491.9" style="enable-background:new 0 0 486.2 491.9;" xml:space="preserve">
<style type="text/css">
	.st0{fill:#D6C184;}
</style>
<text transform="matrix(1 0 0 1 -3688.8135 209.711)" style="font-family:'ArialMT'; font-size:55px; letter-spacing:-6;">W</text>
<text transform="matrix(1 0 0 1 -3649.5134 209.711)" style="font-family:'ArialMT'; font-size:55px;">A</text>
<text transform="matrix(1 0 0 1 -3615.9136 209.711)" style="font-family:'ArialMT'; font-size:55px; letter-spacing:-1;">L</text>
<text transform="matrix(1 0 0 1 -3592.1135 209.711)" style="font-family:'ArialMT'; font-size:55px;">K</text>
<text transform="matrix(1 0 0 1 -3688.8135 262.711)" style="font-family:'ArialMT'; font-size:55px; letter-spacing:-1;">o</text>
<text transform="matrix(1 0 0 1 -3660.8135 262.711)" style="font-family:'ArialMT'; font-size:55px;">F</text>
<text transform="matrix(1 0 0 1 -3634.0134 262.711)" style="font-family:'ArialMT'; font-size:55px; letter-spacing:-3;"> F</text>
<text transform="matrix(1 0 0 1 -3604.4136 262.711)" style="font-family:'ArialMT'; font-size:55px;">A</text>
<text transform="matrix(1 0 0 1 -3570.7134 262.711)" style="font-family:'ArialMT'; font-size:55px; letter-spacing:-2;">M</text>
<text transform="matrix(1 0 0 1 -3529.8135 262.711)" style="font-family:'ArialMT'; font-size:55px;">E</text>
<text transform="matrix(1 0 0 1 -3311.3135 -167.7891)" style="font-family:'ArialMT'; font-size:55px; letter-spacing:-6;">W</text>
<text transform="matrix(1 0 0 1 -3272.0134 -167.7891)" style="font-family:'ArialMT'; font-size:55px;">A</text>
<text transform="matrix(1 0 0 1 -3238.4136 -167.7891)" style="font-family:'ArialMT'; font-size:55px; letter-spacing:-1;">L</text>
<text transform="matrix(1 0 0 1 -3214.6135 -167.7891)" style="font-family:'ArialMT'; font-size:55px;">K</text>
<text transform="matrix(1 0 0 1 -3311.3135 -114.7891)" style="font-family:'ArialMT'; font-size:55px;">OF</text>
<text transform="matrix(1 0 0 1 -3246.6135 -114.7891)" style="font-family:'ArialMT'; font-size:55px; letter-spacing:-3;"> F</text>
<text transform="matrix(1 0 0 1 -3217.0134 -114.7891)" style="font-family:'ArialMT'; font-size:55px;">A</text>
<text transform="matrix(1 0 0 1 -3183.3135 -114.7891)" style="font-family:'ArialMT'; font-size:55px; letter-spacing:-2;">M</text>
<text transform="matrix(1 0 0 1 -3142.4136 -114.7891)" style="font-family:'ArialMT'; font-size:55px;">E</text>
<text transform="matrix(1 0 0 1 -3596.4268 318.4546)" style="font-family:'ArialMT'; font-size:55px; letter-spacing:-1;">2</text>
<text transform="matrix(1 0 0 1 -3570.4268 318.4546)" style="font-family:'ArialMT'; font-size:55px;">0</text>
<text transform="matrix(1 0 0 1 -3543.3267 318.4546)" style="font-family:'ArialMT'; font-size:55px;">16</text>
<g>
	<path class="st0" d="M240.6,94c0-1.8,1.4-3.2,3.2-3.2s3.2,1.4,3.2,3.2c0,1.8-1.4,3.2-3.2,3.2S240.6,95.8,240.6,94 M240.6,81.3
		c0-1.8,1.4-3.2,3.2-3.2s3.2,1.4,3.2,3.2c0,1.8-1.4,3.2-3.2,3.2C242,84.6,240.6,83.1,240.6,81.3 M240.6,68.7c0-1.8,1.4-3.2,3.2-3.2
		s3.2,1.4,3.2,3.2c0,1.8-1.4,3.2-3.2,3.2C242,71.9,240.6,70.4,240.6,68.7 M240.6,56c0-1.8,1.4-3.2,3.2-3.2s3.2,1.4,3.2,3.2
		s-1.4,3.2-3.2,3.2S240.6,57.8,240.6,56 M240.6,43.3c0-1.8,1.4-3.2,3.2-3.2s3.2,1.4,3.2,3.2s-1.4,3.2-3.2,3.2
		C242,46.6,240.6,45.1,240.6,43.3 M240.6,30.6c0-1.8,1.4-3.2,3.2-3.2s3.2,1.4,3.2,3.2s-1.4,3.2-3.2,3.2
		C242,33.9,240.6,32.4,240.6,30.6 M240.6,18c0-1.8,1.4-3.2,3.2-3.2s3.2,1.4,3.2,3.2s-1.4,3.2-3.2,3.2S240.6,19.8,240.6,18
		 M240.6,5.3c0-1.8,1.4-3.2,3.2-3.2s3.2,1.4,3.2,3.2s-1.4,3.2-3.2,3.2C242,8.6,240.6,7.1,240.6,5.3"/>
	<path class="st0" d="M224.7,95.2c-0.2-1.8,1.1-3.4,2.9-3.6c1.8-0.2,3.4,1.1,3.6,2.9c0.2,1.8-1.1,3.4-2.9,3.6c-0.1,0-0.2,0-0.3,0
		C226.3,98.1,224.9,96.8,224.7,95.2 M223.4,82.6c-0.2-1.8,1.1-3.4,2.9-3.6c1.8-0.2,3.4,1.1,3.6,2.9c0.2,1.8-1.1,3.4-2.9,3.6
		c-0.1,0-0.2,0-0.3,0C225,85.5,223.6,84.2,223.4,82.6 M222.1,70c-0.2-1.8,1.1-3.4,2.9-3.6c1.8-0.2,3.4,1.1,3.6,2.9
		c0.2,1.8-1.1,3.4-2.9,3.6c-0.1,0-0.2,0-0.3,0C223.7,72.9,222.3,71.6,222.1,70"/>
	<path class="st0" d="M209.1,98c-0.4-1.7,0.7-3.5,2.5-3.8s3.5,0.7,3.8,2.5c0.4,1.8-0.7,3.5-2.5,3.8c-0.2,0-0.5,0.1-0.7,0.1
		C210.8,100.5,209.4,99.5,209.1,98 M206.5,85.6c-0.4-1.8,0.7-3.5,2.5-3.8c1.8-0.4,3.5,0.7,3.8,2.5c0.4,1.8-0.7,3.5-2.5,3.8
		c-0.2,0-0.5,0.1-0.7,0.1C208.1,88.2,206.8,87.1,206.5,85.6 M203.8,73.2c-0.4-1.7,0.7-3.5,2.5-3.8c1.8-0.4,3.5,0.7,3.8,2.5
		c0.4,1.7-0.7,3.5-2.5,3.8c-0.2,0-0.5,0.1-0.7,0.1C205.5,75.8,204.2,74.7,203.8,73.2 M201.2,60.8c-0.4-1.8,0.7-3.5,2.5-3.8
		c1.8-0.4,3.5,0.7,3.8,2.5c0.4,1.8-0.7,3.5-2.5,3.8c-0.2,0-0.5,0.1-0.7,0.1C202.9,63.4,201.5,62.3,201.2,60.8 M198.6,48.4
		c-0.4-1.7,0.7-3.5,2.5-3.8c1.8-0.4,3.5,0.7,3.8,2.5c0.4,1.8-0.7,3.5-2.5,3.8c-0.2,0-0.5,0.1-0.7,0.1
		C200.2,51,198.9,49.9,198.6,48.4 M195.9,36c-0.4-1.8,0.7-3.5,2.5-3.8c1.8-0.4,3.5,0.7,3.8,2.5c0.4,1.8-0.7,3.5-2.5,3.8
		c-0.2,0-0.5,0.1-0.7,0.1C197.6,38.6,196.3,37.5,195.9,36"/>
	<path class="st0" d="M193.8,102.4c-0.5-1.7,0.4-3.5,2.1-4.1c1.7-0.6,3.5,0.4,4.1,2.1s-0.4,3.5-2.1,4.1c-0.3,0.1-0.7,0.2-1,0.2
		C195.6,104.7,194.3,103.8,193.8,102.4 M189.9,90.4c-0.6-1.7,0.4-3.5,2.1-4.1c1.7-0.6,3.5,0.4,4.1,2.1s-0.4,3.5-2.1,4.1
		c-0.3,0.1-0.7,0.2-1,0.2C191.6,92.6,190.4,91.7,189.9,90.4 M186,78.3c-0.6-1.7,0.4-3.5,2.1-4.1c1.7-0.6,3.5,0.4,4.1,2.1
		s-0.4,3.5-2.1,4.1c-0.3,0.1-0.7,0.2-1,0.2C187.7,80.6,186.5,79.7,186,78.3 M182.1,66.3c-0.6-1.7,0.4-3.5,2.1-4.1
		c1.7-0.6,3.5,0.4,4.1,2.1s-0.4,3.5-2.1,4.1c-0.3,0.1-0.7,0.2-1,0.2C183.8,68.5,182.6,67.6,182.1,66.3 M178.2,54.2
		c-0.6-1.7,0.4-3.5,2.1-4.1c1.7-0.6,3.5,0.4,4.1,2.1c0.6,1.7-0.4,3.5-2.1,4.1c-0.3,0.1-0.7,0.2-1,0.2
		C179.9,56.5,178.6,55.6,178.2,54.2 M174.3,42.2c-0.5-1.7,0.4-3.5,2.1-4.1c1.7-0.6,3.5,0.4,4.1,2.1c0.5,1.7-0.4,3.5-2.1,4.1
		c-0.3,0.1-0.7,0.2-1,0.2C176,44.4,174.7,43.6,174.3,42.2 M170.4,30.1c-0.6-1.7,0.4-3.5,2.1-4.1c1.7-0.6,3.5,0.4,4.1,2.1
		s-0.4,3.5-2.1,4.1c-0.3,0.1-0.7,0.2-1,0.2C172.1,32.4,170.8,31.5,170.4,30.1 M166.4,18.1c-0.6-1.7,0.4-3.5,2.1-4.1
		c1.7-0.5,3.5,0.4,4.1,2.1s-0.4,3.5-2.1,4.1c-0.3,0.1-0.7,0.2-1,0.2C168.2,20.3,166.9,19.5,166.4,18.1"/>
	<path class="st0" d="M179.1,108.4c-0.7-1.6,0-3.5,1.6-4.3c1.6-0.7,3.6,0,4.3,1.6s0,3.5-1.6,4.3c-0.4,0.2-0.9,0.3-1.3,0.3
		C180.9,110.4,179.7,109.6,179.1,108.4 M174,96.9c-0.7-1.6,0-3.6,1.6-4.3c1.6-0.7,3.5,0,4.3,1.6c0.7,1.6,0,3.5-1.6,4.3
		c-0.4,0.2-0.9,0.3-1.3,0.3C175.7,98.8,174.5,98.1,174,96.9 M168.8,85.3c-0.7-1.6,0-3.6,1.6-4.3c1.6-0.7,3.6,0,4.3,1.6
		s0,3.6-1.6,4.3c-0.4,0.2-0.9,0.3-1.3,0.3C170.6,87.2,169.4,86.5,168.8,85.3 M163.7,73.7c-0.7-1.6,0-3.6,1.6-4.3
		c1.6-0.7,3.5,0,4.3,1.6c0.7,1.6,0,3.6-1.6,4.3c-0.4,0.2-0.9,0.3-1.3,0.3C165.4,75.6,164.2,74.9,163.7,73.7 M158.5,62.1
		c-0.7-1.6,0-3.6,1.6-4.3s3.6,0,4.3,1.6s0,3.6-1.6,4.3c-0.4,0.2-0.9,0.3-1.3,0.3C160.2,64.1,159.1,63.3,158.5,62.1 M153.4,50.6
		c-0.7-1.6,0-3.5,1.6-4.3c1.6-0.7,3.5,0,4.3,1.6c0.7,1.6,0,3.6-1.6,4.3c-0.4,0.2-0.9,0.3-1.3,0.3C155.1,52.5,153.9,51.8,153.4,50.6
		 M148.2,39c-0.7-1.6,0-3.5,1.6-4.3c1.6-0.7,3.6,0,4.3,1.6s0,3.5-1.6,4.3c-0.4,0.2-0.9,0.3-1.3,0.3C149.9,40.9,148.8,40.2,148.2,39
		 M143.1,27.4c-0.7-1.6,0-3.5,1.6-4.3c1.6-0.7,3.5,0,4.3,1.6c0.7,1.6,0,3.5-1.6,4.3c-0.4,0.2-0.9,0.3-1.3,0.3
		C144.8,29.3,143.6,28.6,143.1,27.4 M137.9,15.8c-0.7-1.6,0-3.6,1.6-4.3c1.6-0.7,3.6,0,4.3,1.6s0,3.5-1.6,4.3
		c-0.4,0.2-0.9,0.3-1.3,0.3C139.6,17.8,138.5,17.1,137.9,15.8 M132.8,4.3c-0.7-1.6,0-3.5,1.6-4.3c1.6-0.7,3.5,0,4.3,1.6
		c0.7,1.6,0,3.6-1.6,4.3c-0.4,0.2-0.9,0.3-1.3,0.3C134.5,6.2,133.3,5.5,132.8,4.3"/>
	<path class="st0" d="M165.1,115.9c-0.9-1.5-0.4-3.5,1.2-4.4c1.5-0.9,3.5-0.4,4.4,1.2c0.9,1.5,0.4,3.5-1.2,4.4
		c-0.5,0.3-1.1,0.4-1.6,0.4C166.8,117.6,165.7,117,165.1,115.9 M158.8,105c-0.9-1.5-0.4-3.5,1.2-4.4c1.5-0.9,3.5-0.4,4.4,1.2
		c0.9,1.5,0.4,3.5-1.2,4.4c-0.5,0.3-1.1,0.4-1.6,0.4C160.5,106.6,159.4,106,158.8,105 M152.5,94c-0.9-1.5-0.4-3.5,1.2-4.4
		c1.5-0.9,3.5-0.4,4.4,1.2c0.9,1.5,0.4,3.5-1.2,4.4c-0.5,0.3-1.1,0.4-1.6,0.4C154.2,95.6,153.1,95,152.5,94 M146.1,83
		c-0.9-1.5-0.4-3.5,1.2-4.4c1.6-0.9,3.5-0.4,4.4,1.2c0.9,1.5,0.4,3.5-1.2,4.4c-0.5,0.3-1.1,0.4-1.6,0.4
		C147.8,84.7,146.7,84.1,146.1,83 M139.8,72.1c-0.9-1.5-0.4-3.5,1.2-4.4c1.6-0.9,3.5-0.4,4.4,1.2c0.9,1.5,0.4,3.5-1.2,4.4
		c-0.5,0.3-1.1,0.4-1.6,0.4C141.5,73.7,140.4,73.1,139.8,72.1 M133.5,61.1c-0.9-1.5-0.4-3.5,1.2-4.4c1.6-0.9,3.5-0.4,4.4,1.2
		c0.9,1.6,0.4,3.5-1.2,4.4c-0.5,0.3-1.1,0.4-1.6,0.4C135.1,62.7,134.1,62.1,133.5,61.1"/>
	<path class="st0" d="M152,124.9c-1-1.4-0.7-3.5,0.7-4.5c1.5-1.1,3.5-0.7,4.5,0.7c1.1,1.4,0.7,3.5-0.7,4.5c-0.6,0.4-1.2,0.6-1.9,0.6
		C153.6,126.2,152.6,125.8,152,124.9"/>
	<path class="st0" d="M139.9,135.1c-1.2-1.3-1.1-3.4,0.2-4.6c1.3-1.2,3.4-1.1,4.6,0.2c1.2,1.3,1.1,3.4-0.2,4.6
		c-0.6,0.6-1.4,0.8-2.2,0.8C141.4,136.2,140.5,135.9,139.9,135.1 M131.4,125.7c-1.2-1.3-1.1-3.4,0.2-4.6s3.4-1.1,4.6,0.2
		c1.2,1.3,1.1,3.4-0.2,4.6c-0.6,0.6-1.4,0.8-2.2,0.8C132.9,126.8,132,126.4,131.4,125.7 M122.9,116.3c-1.2-1.3-1.1-3.4,0.2-4.6
		c1.3-1.2,3.4-1.1,4.6,0.2c1.2,1.3,1.1,3.4-0.2,4.6c-0.6,0.6-1.4,0.8-2.2,0.8C124.4,117.4,123.5,117,122.9,116.3 M114.4,106.9
		c-1.2-1.3-1.1-3.4,0.2-4.6c1.3-1.2,3.4-1.1,4.6,0.2c1.2,1.3,1.1,3.4-0.2,4.6c-0.6,0.6-1.4,0.8-2.2,0.8
		C115.9,108,115.1,107.6,114.4,106.9 M105.9,97.5c-1.2-1.3-1.1-3.4,0.2-4.6c1.3-1.2,3.4-1.1,4.6,0.2c1.2,1.3,1.1,3.4-0.2,4.6
		c-0.6,0.6-1.4,0.8-2.2,0.8C107.5,98.6,106.6,98.2,105.9,97.5 M97.5,88.1c-1.2-1.3-1.1-3.4,0.2-4.6c1.3-1.2,3.4-1.1,4.6,0.2
		c1.2,1.3,1.1,3.4-0.2,4.6c-0.6,0.6-1.4,0.8-2.2,0.8C99,89.2,98.1,88.8,97.5,88.1 M89,78.7c-1.2-1.3-1.1-3.4,0.2-4.6
		c1.3-1.2,3.4-1.1,4.6,0.2c1.2,1.3,1.1,3.4-0.2,4.6c-0.6,0.6-1.4,0.8-2.2,0.8C90.5,79.7,89.6,79.4,89,78.7 M80.5,69.2
		c-1.2-1.3-1.1-3.4,0.2-4.6c1.3-1.2,3.4-1.1,4.6,0.2c1.2,1.3,1.1,3.4-0.2,4.6c-0.6,0.6-1.4,0.8-2.2,0.8C82,70.3,81.2,70,80.5,69.2
		 M72,59.8c-1.2-1.3-1.1-3.4,0.2-4.6c1.3-1.2,3.4-1.1,4.6,0.2s1.1,3.4-0.2,4.6c-0.6,0.6-1.4,0.8-2.2,0.8
		C73.6,60.9,72.7,60.5,72,59.8 M63.6,50.4c-1.2-1.3-1.1-3.4,0.2-4.6c1.3-1.2,3.4-1.1,4.6,0.2c1.2,1.3,1.1,3.4-0.2,4.6
		c-0.6,0.6-1.4,0.8-2.2,0.8C65.1,51.5,64.2,51.1,63.6,50.4 M55.1,41c-1.2-1.3-1.1-3.4,0.2-4.6c1.3-1.2,3.4-1.1,4.6,0.2
		c1.2,1.3,1.1,3.4-0.2,4.6c-0.6,0.6-1.4,0.8-2.2,0.8C56.6,42.1,55.7,41.7,55.1,41"/>
	<path class="st0" d="M128.9,146.6c-1.3-1.2-1.4-3.2-0.2-4.6c1.2-1.3,3.2-1.4,4.6-0.2c1.3,1.2,1.4,3.2,0.2,4.6
		c-0.6,0.7-1.5,1.1-2.4,1.1C130.3,147.5,129.5,147.2,128.9,146.6 M119.4,138.1c-1.3-1.2-1.4-3.2-0.2-4.6c1.2-1.3,3.2-1.4,4.6-0.2
		c1.3,1.2,1.4,3.2,0.2,4.6c-0.6,0.7-1.5,1.1-2.4,1.1C120.8,139,120.1,138.7,119.4,138.1 M110,129.7c-1.3-1.2-1.4-3.2-0.2-4.6
		c1.2-1.3,3.2-1.4,4.6-0.2c1.3,1.2,1.4,3.2,0.2,4.6c-0.6,0.7-1.5,1.1-2.4,1.1C111.4,130.5,110.7,130.2,110,129.7 M100.6,121.2
		c-1.3-1.2-1.4-3.2-0.2-4.6c1.2-1.3,3.2-1.4,4.6-0.2c1.3,1.2,1.4,3.2,0.2,4.6c-0.6,0.7-1.5,1.1-2.4,1.1
		C102,122,101.2,121.8,100.6,121.2 M91.2,112.7c-1.3-1.2-1.4-3.2-0.2-4.6c1.2-1.3,3.2-1.4,4.6-0.2c1.3,1.2,1.4,3.2,0.2,4.6
		c-0.6,0.7-1.5,1.1-2.4,1.1C92.6,113.5,91.8,113.3,91.2,112.7 M81.8,104.2c-1.3-1.2-1.4-3.2-0.2-4.6c1.2-1.3,3.2-1.4,4.6-0.2
		c1.3,1.2,1.4,3.2,0.2,4.6c-0.6,0.7-1.5,1.1-2.4,1.1C83.2,105.1,82.4,104.8,81.8,104.2 M72.4,95.8c-1.3-1.2-1.4-3.3-0.2-4.6
		c1.2-1.3,3.2-1.4,4.6-0.2c1.3,1.2,1.4,3.2,0.2,4.6c-0.6,0.7-1.5,1.1-2.4,1.1C73.8,96.6,73,96.3,72.4,95.8"/>
	<path class="st0" d="M119.1,159.2c-1.4-1-1.8-3.1-0.7-4.5c1.1-1.4,3.1-1.8,4.5-0.7s1.8,3.1,0.7,4.5c-0.6,0.9-1.6,1.3-2.6,1.3
		C120.4,159.8,119.7,159.6,119.1,159.2 M108.9,151.7c-1.4-1.1-1.8-3.1-0.7-4.5c1-1.4,3.1-1.8,4.5-0.7c1.4,1,1.8,3.1,0.7,4.5
		c-0.6,0.9-1.6,1.3-2.6,1.3C110.1,152.4,109.4,152.2,108.9,151.7 M98.6,144.3c-1.4-1.1-1.8-3.1-0.7-4.5c1.1-1.4,3.1-1.8,4.5-0.7
		s1.8,3.1,0.7,4.5c-0.6,0.9-1.6,1.3-2.6,1.3C99.9,144.9,99.2,144.7,98.6,144.3 M88.4,136.8c-1.4-1-1.8-3.1-0.7-4.5
		c1-1.4,3.1-1.8,4.5-0.7s1.8,3.1,0.7,4.5c-0.6,0.9-1.6,1.3-2.6,1.3C89.6,137.5,89,137.3,88.4,136.8 M78.1,129.4
		c-1.4-1-1.8-3.1-0.7-4.5c1-1.4,3.1-1.8,4.5-0.7c1.4,1,1.8,3.1,0.7,4.5C82,129.6,81,130,80,130C79.4,130,78.7,129.8,78.1,129.4
		 M67.9,122c-1.4-1.1-1.8-3.1-0.7-4.5c1.1-1.4,3.1-1.8,4.5-0.7c1.4,1,1.8,3.1,0.7,4.5c-0.6,0.9-1.6,1.3-2.6,1.3
		C69.1,122.6,68.5,122.4,67.9,122 M57.6,114.5c-1.4-1.1-1.8-3.1-0.7-4.5c1-1.4,3.1-1.8,4.5-0.7c1.4,1.1,1.8,3.1,0.7,4.5
		c-0.6,0.9-1.6,1.3-2.6,1.3C58.9,115.1,58.2,114.9,57.6,114.5 M47.4,107.1c-1.4-1-1.8-3.1-0.7-4.5s3.1-1.8,4.5-0.7
		c1.4,1.1,1.8,3.1,0.7,4.5c-0.6,0.9-1.6,1.3-2.6,1.3C48.6,107.7,48,107.5,47.4,107.1 M37.1,99.6c-1.4-1.1-1.8-3.1-0.7-4.5
		s3.1-1.8,4.5-0.7c1.4,1,1.8,3.1,0.7,4.5c-0.6,0.9-1.6,1.3-2.6,1.3C38.4,100.2,37.7,100,37.1,99.6 M26.9,92.2
		c-1.4-1.1-1.8-3.1-0.7-4.5c1-1.4,3.1-1.8,4.5-0.7c1.4,1,1.8,3.1,0.7,4.5c-0.6,0.9-1.6,1.3-2.6,1.3C28.1,92.8,27.5,92.6,26.9,92.2"
		/>
	<path class="st0" d="M110.8,172.7c-1.6-0.9-2.1-2.9-1.2-4.4s2.9-2.1,4.4-1.2c1.6,0.9,2.1,2.9,1.2,4.4c-0.6,1-1.7,1.6-2.8,1.6
		C111.8,173.1,111.3,173,110.8,172.7 M99.8,166.4c-1.6-0.9-2.1-2.9-1.2-4.4s2.9-2.1,4.4-1.2c1.6,0.9,2.1,2.9,1.2,4.4
		c-0.6,1-1.7,1.6-2.8,1.6C100.9,166.8,100.3,166.7,99.8,166.4 M88.8,160c-1.6-0.9-2.1-2.9-1.2-4.4s2.9-2.1,4.4-1.2
		c1.5,0.9,2.1,2.9,1.2,4.4c-0.6,1-1.7,1.6-2.8,1.6C89.9,160.5,89.3,160.3,88.8,160"/>
	<path class="st0" d="M103.8,187c-1.6-0.7-2.4-2.6-1.6-4.3c0.7-1.6,2.6-2.4,4.3-1.6c1.6,0.7,2.4,2.6,1.6,4.3c-0.5,1.2-1.7,1.9-3,1.9
		C104.7,187.3,104.3,187.2,103.8,187 M92.3,181.9c-1.6-0.7-2.4-2.6-1.6-4.3c0.7-1.6,2.6-2.4,4.3-1.6c1.6,0.7,2.4,2.6,1.6,4.3
		c-0.5,1.2-1.7,1.9-3,1.9C93.1,182.1,92.7,182,92.3,181.9"/>
	<path class="st0" d="M98.5,202c-1.7-0.6-2.6-2.4-2.1-4.1c0.6-1.7,2.4-2.6,4.1-2.1c1.7,0.6,2.6,2.4,2.1,4.1
		c-0.4,1.4-1.7,2.2-3.1,2.2C99.1,202.1,98.8,202.1,98.5,202 M86.4,198.1c-1.7-0.6-2.6-2.4-2.1-4.1c0.6-1.7,2.4-2.6,4.1-2.1
		c1.7,0.6,2.6,2.4,2.1,4.1c-0.4,1.4-1.7,2.2-3.1,2.2C87.1,198.2,86.7,198.2,86.4,198.1 M74.4,194.1c-1.7-0.6-2.6-2.4-2.1-4.1
		c0.6-1.7,2.4-2.6,4.1-2.1c1.7,0.6,2.6,2.4,2.1,4.1c-0.4,1.4-1.7,2.2-3.1,2.2C75,194.3,74.7,194.2,74.4,194.1 M62.3,190.2
		c-1.7-0.6-2.6-2.4-2.1-4.1c0.6-1.7,2.4-2.6,4.1-2.1c1.7,0.6,2.6,2.4,2.1,4.1c-0.4,1.4-1.7,2.2-3.1,2.2
		C63,190.4,62.7,190.3,62.3,190.2 M50.3,186.3c-1.7-0.6-2.6-2.4-2.1-4.1c0.6-1.7,2.4-2.6,4.1-2.1c1.7,0.6,2.6,2.4,2.1,4.1
		c-0.4,1.4-1.7,2.2-3.1,2.2C50.9,186.5,50.6,186.4,50.3,186.3 M38.2,182.4c-1.7-0.6-2.6-2.4-2.1-4.1c0.5-1.7,2.4-2.6,4.1-2.1
		c1.7,0.6,2.6,2.4,2.1,4.1c-0.4,1.4-1.7,2.2-3.1,2.2C38.9,182.6,38.6,182.5,38.2,182.4 M26.2,178.5c-1.7-0.6-2.6-2.4-2.1-4.1
		c0.6-1.7,2.4-2.6,4.1-2.1c1.7,0.6,2.6,2.4,2.1,4.1c-0.4,1.4-1.7,2.2-3.1,2.2C26.8,178.6,26.5,178.6,26.2,178.5 M14.1,174.6
		c-1.7-0.5-2.6-2.4-2.1-4.1c0.6-1.7,2.4-2.6,4.1-2.1c1.7,0.6,2.6,2.4,2.1,4.1c-0.4,1.4-1.7,2.2-3.1,2.2
		C14.8,174.7,14.5,174.7,14.1,174.6 M2.1,170.6c-1.7-0.6-2.6-2.4-2.1-4.1c0.6-1.7,2.4-2.6,4.1-2.1s2.6,2.4,2.1,4.1
		c-0.4,1.4-1.7,2.2-3.1,2.2C2.8,170.8,2.4,170.8,2.1,170.6"/>
	<path class="st0" d="M94.7,217.4c-1.7-0.4-2.9-2.1-2.5-3.8c0.4-1.8,2.1-2.9,3.8-2.5c1.8,0.4,2.9,2.1,2.5,3.8
		c-0.3,1.5-1.7,2.6-3.2,2.6C95.1,217.5,94.9,217.4,94.7,217.4 M82.3,214.8c-1.8-0.4-2.9-2.1-2.5-3.8s2.1-2.9,3.8-2.5
		c1.8,0.4,2.9,2.1,2.5,3.8c-0.3,1.5-1.7,2.6-3.2,2.6C82.7,214.8,82.5,214.8,82.3,214.8"/>
	<path class="st0" d="M92.5,233.1c-1.8-0.2-3.1-1.8-2.9-3.6s1.8-3.1,3.6-2.9c1.8,0.2,3.1,1.8,2.9,3.6c-0.2,1.7-1.6,2.9-3.2,2.9
		C92.8,233.2,92.6,233.2,92.5,233.1 M79.9,231.8c-1.8-0.2-3.1-1.8-2.9-3.6s1.8-3.1,3.6-2.9c1.8,0.2,3.1,1.8,2.9,3.6
		c-0.2,1.7-1.6,2.9-3.2,2.9C80.2,231.8,80,231.8,79.9,231.8 M67.3,230.5c-1.8-0.2-3.1-1.8-2.9-3.6s1.8-3.1,3.6-2.9
		c1.8,0.2,3.1,1.8,2.9,3.6c-0.2,1.7-1.6,2.9-3.2,2.9C67.6,230.5,67.4,230.5,67.3,230.5 M54.7,229.2c-1.8-0.2-3.1-1.8-2.9-3.6
		c0.2-1.8,1.8-3.1,3.6-2.9c1.8,0.2,3.1,1.8,2.9,3.6c-0.2,1.7-1.6,2.9-3.2,2.9C55,229.2,54.8,229.2,54.7,229.2 M42.1,227.9
		c-1.8-0.2-3.1-1.8-2.9-3.6c0.2-1.8,1.8-3.1,3.6-2.9c1.8,0.2,3.1,1.8,2.9,3.6c-0.2,1.7-1.6,2.9-3.2,2.9
		C42.4,227.9,42.3,227.9,42.1,227.9"/>
	<path class="st0" d="M88.8,245.8c0-1.8,1.5-3.2,3.2-3.2c1.8,0,3.2,1.5,3.2,3.2c0,1.8-1.5,3.2-3.2,3.2
		C90.2,249,88.8,247.6,88.8,245.8 M76.1,245.8c0-1.8,1.5-3.2,3.2-3.2c1.8,0,3.2,1.5,3.2,3.2c0,1.8-1.5,3.2-3.2,3.2
		S76.1,247.6,76.1,245.8 M63.5,245.8c0-1.8,1.5-3.2,3.2-3.2c1.8,0,3.2,1.5,3.2,3.2c0,1.8-1.4,3.2-3.2,3.2S63.5,247.6,63.5,245.8
		 M50.8,245.8c0-1.8,1.4-3.2,3.2-3.2s3.2,1.5,3.2,3.2c0,1.8-1.5,3.2-3.2,3.2C52.2,249,50.8,247.6,50.8,245.8 M38.1,245.8
		c0-1.8,1.4-3.2,3.2-3.2s3.2,1.5,3.2,3.2c0,1.8-1.5,3.2-3.2,3.2S38.1,247.6,38.1,245.8 M25.5,245.8c0-1.8,1.4-3.2,3.2-3.2
		c1.8,0,3.2,1.5,3.2,3.2c0,1.8-1.5,3.2-3.2,3.2C26.9,249,25.5,247.6,25.5,245.8 M12.8,245.8c0-1.8,1.5-3.2,3.2-3.2
		c1.8,0,3.2,1.5,3.2,3.2c0,1.8-1.5,3.2-3.2,3.2C14.2,249,12.8,247.6,12.8,245.8 M0.1,245.8c0-1.8,1.5-3.2,3.2-3.2
		c1.8,0,3.2,1.5,3.2,3.2c0,1.8-1.5,3.2-3.2,3.2S0.1,247.6,0.1,245.8"/>
	<path class="st0" d="M14.1,269.9c-0.2-1.8,1.1-3.4,2.9-3.6s3.4,1.1,3.6,2.9s-1.1,3.4-2.9,3.6c-0.1,0-0.2,0-0.3,0
		C15.6,272.8,14.2,271.6,14.1,269.9 M26.7,268.6c-0.2-1.8,1.1-3.4,2.9-3.6s3.4,1.1,3.6,2.9s-1.1,3.4-2.9,3.6c-0.1,0-0.2,0-0.3,0
		C28.2,271.5,26.8,270.3,26.7,268.6 M39.3,267.3c-0.2-1.8,1.1-3.4,2.9-3.6c1.8-0.2,3.4,1.1,3.6,2.9c0.2,1.8-1.1,3.4-2.9,3.6
		c-0.1,0-0.2,0-0.3,0C40.8,270.2,39.4,269,39.3,267.3 M51.8,266c-0.2-1.8,1.1-3.4,2.9-3.6c1.8-0.2,3.4,1.1,3.6,2.9
		c0.2,1.8-1.1,3.4-2.9,3.6c-0.1,0-0.2,0-0.3,0C53.4,268.9,52,267.6,51.8,266 M64.4,264.6c-0.2-1.8,1.1-3.4,2.9-3.6s3.4,1.1,3.6,2.9
		s-1.1,3.4-2.9,3.6c-0.1,0-0.2,0-0.3,0C66,267.5,64.6,266.3,64.4,264.6 M77,263.3c-0.2-1.8,1.1-3.4,2.9-3.6s3.4,1.1,3.6,2.9
		s-1.1,3.4-2.9,3.6c-0.1,0-0.2,0-0.3,0C78.6,266.2,77.2,265,77,263.3 M89.6,262c-0.2-1.8,1.1-3.4,2.9-3.6s3.4,1.1,3.6,2.9
		s-1.1,3.4-2.9,3.6c-0.1,0-0.2,0-0.3,0C91.2,264.9,89.8,263.7,89.6,262"/>
	<path class="st0" d="M67.4,283.3c-0.4-1.8,0.7-3.5,2.5-3.8c1.8-0.4,3.5,0.7,3.8,2.5c0.4,1.8-0.7,3.5-2.5,3.8
		c-0.2,0.1-0.5,0.1-0.7,0.1C69.1,285.9,67.7,284.8,67.4,283.3 M79.8,280.7c-0.4-1.8,0.7-3.5,2.5-3.8c1.8-0.4,3.5,0.7,3.8,2.5
		c0.4,1.8-0.7,3.5-2.5,3.8c-0.2,0-0.5,0.1-0.7,0.1C81.5,283.2,80.1,282.2,79.8,280.7 M92.2,278c-0.4-1.8,0.7-3.5,2.5-3.8
		c1.8-0.4,3.5,0.7,3.8,2.5c0.4,1.8-0.7,3.5-2.5,3.8c-0.2,0-0.5,0.1-0.7,0.1C93.9,280.6,92.5,279.5,92.2,278"/>
	<path class="st0" d="M96.4,293.7c-0.6-1.7,0.4-3.5,2.1-4.1s3.5,0.4,4.1,2.1s-0.4,3.5-2.1,4.1c-0.3,0.1-0.7,0.2-1,0.2
		C98.1,295.9,96.8,295.1,96.4,293.7"/>
	<path class="st0" d="M32.8,339.8c-0.7-1.6,0-3.5,1.6-4.3c1.6-0.7,3.5,0,4.3,1.6c0.7,1.6,0,3.6-1.6,4.3c-0.4,0.2-0.9,0.3-1.3,0.3
		C34.5,341.7,33.3,341,32.8,339.8 M44.3,334.6c-0.7-1.6,0-3.5,1.6-4.3c1.6-0.7,3.5,0,4.3,1.6c0.7,1.6,0,3.5-1.6,4.3
		c-0.4,0.2-0.9,0.3-1.3,0.3C46.1,336.5,44.9,335.8,44.3,334.6 M55.9,329.5c-0.7-1.6,0-3.6,1.6-4.3c1.6-0.7,3.5,0,4.3,1.6
		c0.7,1.6,0,3.6-1.6,4.3c-0.4,0.2-0.9,0.3-1.3,0.3C57.6,331.4,56.4,330.7,55.9,329.5 M67.5,324.3c-0.7-1.6,0-3.6,1.6-4.3
		c1.6-0.7,3.6,0,4.3,1.6c0.7,1.6,0,3.5-1.6,4.3c-0.4,0.2-0.9,0.3-1.3,0.3C69.2,326.2,68,325.5,67.5,324.3 M79.1,319.2
		c-0.7-1.6,0-3.6,1.6-4.3c1.6-0.7,3.6,0,4.3,1.6c0.7,1.6,0,3.6-1.6,4.3c-0.4,0.2-0.9,0.3-1.3,0.3C80.8,321.1,79.6,320.4,79.1,319.2
		 M90.6,314c-0.7-1.6,0-3.5,1.6-4.3c1.6-0.7,3.6,0,4.3,1.6c0.7,1.6,0,3.5-1.6,4.3c-0.4,0.2-0.9,0.3-1.3,0.3
		C92.3,315.9,91.2,315.2,90.6,314 M102.2,308.9c-0.7-1.6,0-3.6,1.6-4.3c1.6-0.7,3.6,0,4.3,1.6c0.7,1.6,0,3.6-1.6,4.3
		c-0.4,0.2-0.9,0.3-1.3,0.3C103.9,310.8,102.7,310.1,102.2,308.9"/>
	<path class="st0" d="M10.8,380.3c-0.9-1.5-0.4-3.5,1.2-4.4s3.5-0.4,4.4,1.2s0.4,3.5-1.2,4.4c-0.5,0.3-1.1,0.4-1.6,0.4
		C12.5,381.9,11.4,381.4,10.8,380.3 M21.8,374c-0.9-1.5-0.4-3.5,1.2-4.4s3.5-0.4,4.4,1.2s0.4,3.5-1.2,4.4c-0.5,0.3-1.1,0.4-1.6,0.4
		C23.5,375.6,22.4,375,21.8,374 M32.8,367.7c-0.9-1.6-0.4-3.5,1.2-4.4c1.5-0.9,3.5-0.4,4.4,1.2s0.4,3.5-1.2,4.4
		c-0.5,0.3-1.1,0.4-1.6,0.4C34.5,369.3,33.4,368.7,32.8,367.7 M43.7,361.3c-0.9-1.6-0.4-3.5,1.2-4.4c1.6-0.9,3.5-0.4,4.4,1.2
		s0.4,3.5-1.2,4.4c-0.5,0.3-1.1,0.4-1.6,0.4C45.4,362.9,44.3,362.4,43.7,361.3 M54.7,355c-0.9-1.5-0.4-3.5,1.2-4.4
		c1.5-0.9,3.5-0.4,4.4,1.2c0.9,1.5,0.4,3.5-1.2,4.4c-0.5,0.3-1.1,0.4-1.6,0.4C56.4,356.6,55.3,356,54.7,355 M65.7,348.7
		c-0.9-1.5-0.4-3.5,1.2-4.4c1.5-0.9,3.5-0.4,4.4,1.2c0.9,1.5,0.4,3.5-1.2,4.4c-0.5,0.3-1.1,0.4-1.6,0.4
		C67.4,350.3,66.3,349.7,65.7,348.7 M76.7,342.3c-0.9-1.5-0.4-3.5,1.2-4.4c1.5-0.9,3.5-0.4,4.4,1.2c0.9,1.5,0.4,3.5-1.2,4.4
		c-0.5,0.3-1.1,0.4-1.6,0.4C78.3,343.9,77.3,343.4,76.7,342.3 M87.6,336c-0.9-1.5-0.4-3.5,1.2-4.4s3.5-0.4,4.4,1.2
		c0.9,1.5,0.4,3.5-1.2,4.4c-0.5,0.3-1.1,0.4-1.6,0.4C89.3,337.6,88.2,337,87.6,336 M98.6,329.6c-0.9-1.5-0.4-3.5,1.2-4.4
		s3.5-0.4,4.4,1.2c0.9,1.5,0.4,3.5-1.2,4.4c-0.5,0.3-1.1,0.4-1.6,0.4C100.3,331.3,99.2,330.7,98.6,329.6 M109.6,323.3
		c-0.9-1.5-0.4-3.5,1.2-4.4s3.5-0.4,4.4,1.2c0.9,1.5,0.4,3.5-1.2,4.4c-0.5,0.3-1.1,0.4-1.6,0.4C111.3,324.9,110.2,324.4,109.6,323.3
		"/>
	<path class="st0" d="M108.2,344.4c-1.1-1.5-0.7-3.5,0.7-4.5c1.5-1,3.5-0.7,4.5,0.7c1,1.5,0.7,3.5-0.7,4.5c-0.6,0.4-1.2,0.6-1.9,0.6
		C109.8,345.7,108.8,345.2,108.2,344.4 M118.4,336.9c-1-1.5-0.7-3.5,0.7-4.5c1.5-1.1,3.5-0.7,4.5,0.7c1.1,1.4,0.7,3.5-0.7,4.5
		c-0.6,0.4-1.2,0.6-1.9,0.6C120,338.3,119,337.8,118.4,336.9"/>
	<path class="st0" d="M81.6,391.9c-1.2-1.3-1.1-3.4,0.2-4.6c1.3-1.2,3.4-1.1,4.6,0.2c1.2,1.3,1.1,3.4-0.2,4.6
		c-0.6,0.6-1.4,0.8-2.2,0.8C83.1,393,82.2,392.6,81.6,391.9 M91,383.4c-1.2-1.3-1.1-3.4,0.2-4.6c1.3-1.2,3.4-1.1,4.6,0.2
		c1.2,1.3,1.1,3.4-0.2,4.6c-0.6,0.6-1.4,0.8-2.2,0.8C92.5,384.5,91.6,384.2,91,383.4 M100.4,375c-1.2-1.3-1.1-3.4,0.2-4.6
		c1.3-1.2,3.4-1.1,4.6,0.2c1.2,1.3,1.1,3.4-0.2,4.6c-0.6,0.6-1.4,0.8-2.2,0.8C101.9,376,101,375.7,100.4,375 M109.8,366.5
		c-1.2-1.3-1.1-3.4,0.2-4.6c1.3-1.2,3.4-1.1,4.6,0.2c1.2,1.3,1.1,3.4-0.2,4.6c-0.6,0.6-1.4,0.8-2.2,0.8
		C111.3,367.6,110.4,367.2,109.8,366.5 M119.2,358c-1.2-1.3-1.1-3.4,0.2-4.6c1.3-1.2,3.4-1.1,4.6,0.2c1.2,1.3,1.1,3.4-0.2,4.6
		c-0.6,0.6-1.4,0.8-2.2,0.8C120.7,359.1,119.8,358.7,119.2,358 M128.6,349.5c-1.2-1.3-1.1-3.4,0.2-4.6c1.3-1.2,3.4-1.1,4.6,0.2
		c1.2,1.3,1.1,3.4-0.2,4.6c-0.6,0.6-1.4,0.8-2.2,0.8C130.1,350.6,129.3,350.2,128.6,349.5"/>
	<path class="st0" d="M80.8,426.9c-1.3-1.2-1.4-3.3-0.2-4.6c1.2-1.3,3.2-1.4,4.6-0.2c1.3,1.2,1.4,3.2,0.2,4.6
		c-0.6,0.7-1.5,1.1-2.4,1.1C82.2,427.7,81.4,427.5,80.8,426.9 M89.2,417.5c-1.3-1.2-1.4-3.2-0.2-4.6c1.2-1.3,3.2-1.4,4.6-0.2
		c1.3,1.2,1.4,3.2,0.2,4.6c-0.6,0.7-1.5,1.1-2.4,1.1C90.6,418.3,89.9,418.1,89.2,417.5 M97.7,408.1c-1.3-1.2-1.4-3.2-0.2-4.6
		c1.2-1.3,3.2-1.4,4.6-0.2c1.3,1.2,1.4,3.2,0.2,4.6c-0.6,0.7-1.5,1.1-2.4,1.1C99.1,408.9,98.3,408.6,97.7,408.1 M106.2,398.7
		c-1.3-1.2-1.4-3.2-0.2-4.6c1.2-1.3,3.2-1.4,4.6-0.2c1.3,1.2,1.4,3.2,0.2,4.6c-0.6,0.7-1.5,1.1-2.4,1.1
		C107.6,399.5,106.8,399.2,106.2,398.7 M114.7,389.3c-1.3-1.2-1.4-3.3-0.2-4.6c1.2-1.3,3.3-1.4,4.6-0.2c1.3,1.2,1.4,3.2,0.2,4.6
		c-0.6,0.7-1.5,1.1-2.4,1.1C116.1,390.1,115.3,389.8,114.7,389.3 M123.1,379.8c-1.3-1.2-1.4-3.2-0.2-4.6c1.2-1.3,3.2-1.4,4.6-0.2
		c1.3,1.2,1.4,3.2,0.2,4.6c-0.6,0.7-1.5,1.1-2.4,1.1C124.5,380.7,123.8,380.4,123.1,379.8 M131.6,370.4c-1.3-1.2-1.4-3.2-0.2-4.6
		c1.2-1.3,3.2-1.4,4.6-0.2c1.3,1.2,1.4,3.2,0.2,4.6c-0.6,0.7-1.5,1.1-2.4,1.1C133,371.3,132.2,371,131.6,370.4 M140.1,361
		c-1.3-1.2-1.4-3.2-0.2-4.6c1.2-1.3,3.2-1.4,4.6-0.2c1.3,1.2,1.4,3.2,0.2,4.6c-0.6,0.7-1.5,1.1-2.4,1.1
		C141.5,361.8,140.7,361.6,140.1,361"/>
	<path class="st0" d="M78.3,473.7c-1.5-1-1.8-3.1-0.7-4.5c1.1-1.4,3.1-1.8,4.5-0.7c1.4,1.1,1.8,3.1,0.7,4.5
		c-0.6,0.9-1.6,1.3-2.6,1.3C79.5,474.3,78.8,474.1,78.3,473.7 M85.7,463.5c-1.4-1-1.8-3.1-0.7-4.5c1-1.5,3.1-1.8,4.5-0.7
		c1.5,1.1,1.8,3.1,0.7,4.5c-0.6,0.9-1.6,1.3-2.6,1.3C86.9,464.1,86.3,463.9,85.7,463.5 M93.1,453.2c-1.4-1.1-1.8-3.1-0.7-4.5
		c1.1-1.4,3.1-1.8,4.5-0.7c1.4,1,1.8,3.1,0.7,4.5c-0.6,0.9-1.6,1.3-2.6,1.3C94.4,453.8,93.7,453.6,93.1,453.2 M71,484.1
		c-1.4-1-1.8-3.1-0.7-4.5c1-1.4,3.1-1.8,4.5-0.7c1.4,1.1,1.8,3.1,0.7,4.5c-0.6,0.9-1.6,1.3-2.6,1.3C72.3,484.7,71.6,484.5,71,484.1
		 M100.6,443c-1.4-1-1.8-3.1-0.7-4.5c1.1-1.4,3.1-1.8,4.5-0.7c1.5,1.1,1.8,3.1,0.7,4.5c-0.6,0.9-1.6,1.3-2.6,1.3
		C101.8,443.6,101.2,443.4,100.6,443 M108,432.7c-1.4-1.1-1.8-3.1-0.7-4.5c1-1.4,3.1-1.8,4.5-0.7c1.4,1,1.8,3.1,0.7,4.5
		c-0.6,0.9-1.6,1.3-2.6,1.3C109.3,433.3,108.6,433.1,108,432.7 M115.5,422.5c-1.4-1.1-1.8-3.1-0.7-4.5c1.1-1.4,3.1-1.8,4.5-0.7
		c1.4,1,1.8,3.1,0.7,4.5c-0.6,0.9-1.6,1.3-2.6,1.3C116.7,423.1,116.1,422.9,115.5,422.5 M122.9,412.2c-1.4-1-1.8-3.1-0.7-4.5
		c1.1-1.4,3.1-1.8,4.5-0.7c1.4,1.1,1.8,3.1,0.7,4.5c-0.6,0.9-1.6,1.3-2.6,1.3C124.2,412.8,123.5,412.6,122.9,412.2 M130.4,402
		c-1.4-1.1-1.8-3.1-0.7-4.5c1-1.4,3.1-1.8,4.5-0.7c1.4,1,1.8,3.1,0.7,4.5c-0.6,0.9-1.6,1.3-2.6,1.3
		C131.6,402.6,130.9,402.4,130.4,402 M137.8,391.7c-1.4-1-1.8-3.1-0.7-4.5c1-1.4,3.1-1.8,4.5-0.7c1.4,1.1,1.8,3.1,0.7,4.5
		c-0.6,0.9-1.6,1.3-2.6,1.3C139.1,392.3,138.4,392.1,137.8,391.7 M145.3,381.5c-1.4-1-1.8-3.1-0.7-4.5s3.1-1.8,4.5-0.7
		c1.4,1.1,1.8,3.1,0.7,4.5c-0.6,0.9-1.6,1.3-2.6,1.3C146.5,382.1,145.8,381.9,145.3,381.5 M152.7,371.2c-1.4-1-1.8-3.1-0.7-4.5
		c1.1-1.5,3.1-1.8,4.5-0.7c1.4,1,1.8,3.1,0.7,4.5c-0.6,0.9-1.6,1.3-2.6,1.3C153.9,371.8,153.3,371.6,152.7,371.2"/>
	<path class="st0" d="M147.3,413c-1.5-0.9-2.1-2.9-1.2-4.4c0.9-1.5,2.9-2.1,4.4-1.2c1.6,0.9,2.1,2.9,1.2,4.4c-0.6,1-1.7,1.6-2.8,1.6
		C148.4,413.4,147.8,413.3,147.3,413 M153.7,402c-1.5-0.9-2.1-2.9-1.2-4.4c0.9-1.5,2.9-2.1,4.4-1.2c1.6,0.9,2.1,2.9,1.2,4.4
		c-0.6,1-1.7,1.6-2.8,1.6C154.7,402.4,154.2,402.3,153.7,402 M160,391c-1.5-0.9-2.1-2.9-1.2-4.4c0.9-1.5,2.9-2.1,4.4-1.2
		c1.6,0.9,2.1,2.9,1.2,4.4c-0.6,1-1.7,1.6-2.8,1.6C161.1,391.5,160.5,391.3,160,391 M166.3,380.1c-1.5-0.9-2.1-2.9-1.2-4.4
		c0.9-1.5,2.9-2.1,4.4-1.2c1.6,0.9,2.1,2.9,1.2,4.4c-0.6,1-1.7,1.6-2.8,1.6C167.4,380.5,166.8,380.4,166.3,380.1"/>
	<path class="st0" d="M149.9,456.9c-1.6-0.7-2.4-2.6-1.6-4.3c0.7-1.6,2.6-2.4,4.3-1.6c1.6,0.7,2.4,2.6,1.6,4.3
		c-0.5,1.2-1.7,1.9-3,1.9C150.7,457.1,150.3,457.1,149.9,456.9 M155,445.3c-1.6-0.7-2.4-2.6-1.6-4.3c0.7-1.6,2.6-2.4,4.3-1.6
		c1.6,0.7,2.4,2.6,1.6,4.3c-0.5,1.2-1.7,1.9-3,1.9C155.9,445.6,155.4,445.5,155,445.3 M160.2,433.7c-1.6-0.7-2.4-2.6-1.6-4.3
		c0.7-1.6,2.6-2.4,4.3-1.6c1.6,0.7,2.4,2.6,1.6,4.3c-0.5,1.2-1.7,1.9-3,1.9C161,434,160.6,433.9,160.2,433.7 M165.3,422.2
		c-1.6-0.7-2.4-2.6-1.6-4.3c0.7-1.6,2.6-2.4,4.3-1.6c1.6,0.7,2.4,2.6,1.6,4.3c-0.5,1.2-1.7,1.9-3,1.9
		C166.2,422.4,165.7,422.3,165.3,422.2 M170.5,410.6c-1.6-0.7-2.4-2.6-1.6-4.3c0.7-1.6,2.6-2.4,4.3-1.6c1.6,0.7,2.4,2.6,1.6,4.3
		c-0.5,1.2-1.7,1.9-3,1.9C171.3,410.9,170.9,410.8,170.5,410.6 M175.6,399c-1.6-0.7-2.4-2.6-1.6-4.3c0.7-1.6,2.6-2.4,4.3-1.6
		c1.6,0.7,2.4,2.6,1.6,4.3c-0.5,1.2-1.7,1.9-3,1.9C176.5,399.3,176.1,399.2,175.6,399 M180.8,387.4c-1.6-0.7-2.4-2.6-1.6-4.3
		c0.7-1.6,2.6-2.4,4.3-1.6c1.6,0.7,2.4,2.6,1.6,4.3c-0.5,1.2-1.7,1.9-3,1.9C181.7,387.7,181.2,387.6,180.8,387.4"/>
	<path class="st0" d="M195.9,393.2c-1.7-0.6-2.6-2.4-2.1-4.1c0.6-1.7,2.4-2.6,4.1-2.1c1.7,0.6,2.6,2.4,2.1,4.1
		c-0.4,1.4-1.7,2.2-3.1,2.2C196.6,393.4,196.3,393.4,195.9,393.2"/>
	<path class="st0" d="M206.3,422.2c-1.8-0.4-2.9-2.1-2.5-3.8c0.4-1.8,2.1-2.9,3.8-2.5c1.8,0.4,2.9,2.1,2.5,3.8
		c-0.3,1.5-1.7,2.6-3.2,2.6C206.8,422.3,206.6,422.3,206.3,422.2 M209,409.8c-1.8-0.4-2.9-2.1-2.5-3.8c0.4-1.8,2.1-2.9,3.8-2.5
		c1.8,0.4,2.9,2.1,2.5,3.8c-0.3,1.5-1.7,2.6-3.2,2.6C209.4,409.9,209.2,409.9,209,409.8 M211.6,397.4c-1.8-0.4-2.9-2.1-2.5-3.8
		c0.4-1.7,2.1-2.9,3.8-2.5c1.8,0.4,2.9,2.1,2.5,3.8c-0.3,1.5-1.7,2.6-3.2,2.6C212.1,397.5,211.8,397.5,211.6,397.4"/>
	<path class="st0" d="M219.7,475.6c-1.8-0.2-3.1-1.8-2.9-3.6c0.2-1.8,1.8-3.1,3.6-2.9s3.1,1.8,2.9,3.6c-0.2,1.7-1.6,2.9-3.2,2.9
		C219.9,475.6,219.8,475.6,219.7,475.6 M221,463c-1.8-0.2-3.1-1.8-2.9-3.6c0.2-1.8,1.8-3.1,3.6-2.9s3.1,1.8,2.9,3.6
		c-0.2,1.7-1.6,2.9-3.2,2.9C221.2,463,221.1,463,221,463 M222.3,450.4c-1.8-0.2-3.1-1.8-2.9-3.6c0.2-1.8,1.8-3.1,3.6-2.9
		s3.1,1.8,2.9,3.6c-0.2,1.7-1.6,2.9-3.2,2.9C222.6,450.4,222.5,450.4,222.3,450.4 M223.7,437.8c-1.8-0.2-3.1-1.8-2.9-3.6
		c0.2-1.8,1.8-3.1,3.6-2.9s3.1,1.8,2.9,3.6c-0.2,1.7-1.6,2.9-3.2,2.9C223.9,437.8,223.8,437.8,223.7,437.8 M225,425.2
		c-1.8-0.2-3.1-1.8-2.9-3.6c0.2-1.8,1.8-3.1,3.6-2.9s3.1,1.8,2.9,3.6c-0.2,1.7-1.6,2.9-3.2,2.9C225.2,425.2,225.1,425.2,225,425.2
		 M226.3,412.6c-1.8-0.2-3.1-1.8-2.9-3.6c0.2-1.8,1.8-3.1,3.6-2.9s3.1,1.8,2.9,3.6c-0.2,1.7-1.6,2.9-3.2,2.9
		C226.5,412.6,226.4,412.6,226.3,412.6 M227.6,400c-1.8-0.2-3.1-1.8-2.9-3.6c0.2-1.8,1.8-3.1,3.6-2.9s3.1,1.8,2.9,3.6
		c-0.2,1.7-1.6,2.9-3.2,2.9C227.9,400,227.7,400,227.6,400"/>
	<path class="st0" d="M240.6,486.3c0-1.8,1.5-3.2,3.2-3.2c1.8,0,3.2,1.4,3.2,3.2c0,1.8-1.4,3.2-3.2,3.2
		C242.1,489.5,240.6,488.1,240.6,486.3 M240.6,473.6c0-1.8,1.5-3.2,3.2-3.2c1.8,0,3.2,1.4,3.2,3.2c0,1.8-1.4,3.2-3.2,3.2
		C242.1,476.8,240.6,475.4,240.6,473.6 M240.6,460.9c0-1.8,1.5-3.2,3.2-3.2c1.8,0,3.2,1.5,3.2,3.2c0,1.8-1.4,3.2-3.2,3.2
		C242.1,464.2,240.6,462.7,240.6,460.9 M240.6,448.3c0-1.8,1.5-3.2,3.2-3.2c1.8,0,3.2,1.4,3.2,3.2c0,1.8-1.4,3.2-3.2,3.2
		C242.1,451.5,240.6,450.1,240.6,448.3 M240.6,435.6c0-1.8,1.5-3.2,3.2-3.2c1.8,0,3.2,1.5,3.2,3.2c0,1.8-1.4,3.2-3.2,3.2
		C242.1,438.8,240.6,437.4,240.6,435.6 M240.6,422.9c0-1.8,1.5-3.2,3.2-3.2c1.8,0,3.2,1.5,3.2,3.2c0,1.8-1.4,3.2-3.2,3.2
		C242.1,426.2,240.6,424.7,240.6,422.9 M240.6,410.3c0-1.8,1.5-3.2,3.2-3.2c1.8,0,3.2,1.5,3.2,3.2c0,1.8-1.4,3.2-3.2,3.2
		C242.1,413.5,240.6,412.1,240.6,410.3 M240.6,397.6c0-1.8,1.5-3.2,3.2-3.2c1.8,0,3.2,1.5,3.2,3.2c0,1.8-1.4,3.2-3.2,3.2
		C242.1,400.8,240.6,399.4,240.6,397.6"/>
	<path class="st0" d="M263.1,460.1c-0.2-1.8,1.1-3.4,2.9-3.6s3.4,1.1,3.6,2.9s-1.1,3.4-2.9,3.6c-0.1,0-0.2,0-0.3,0
		C264.7,463,263.3,461.8,263.1,460.1 M261.8,447.5c-0.2-1.8,1.1-3.4,2.9-3.6s3.4,1.1,3.6,2.9s-1.1,3.4-2.9,3.6c-0.1,0-0.2,0-0.3,0
		C263.4,450.4,262,449.2,261.8,447.5 M260.5,434.9c-0.2-1.8,1.1-3.4,2.9-3.6s3.4,1.1,3.6,2.9s-1.1,3.4-2.9,3.6c-0.1,0-0.2,0-0.3,0
		C262,437.8,260.6,436.6,260.5,434.9 M259.1,422.3c-0.2-1.8,1.1-3.4,2.9-3.6s3.4,1.1,3.6,2.9s-1.1,3.4-2.9,3.6c-0.1,0-0.2,0-0.3,0
		C260.7,425.2,259.3,424,259.1,422.3 M257.8,409.7c-0.2-1.8,1.1-3.4,2.9-3.6s3.4,1.1,3.6,2.9s-1.1,3.4-2.9,3.6c-0.1,0-0.2,0-0.3,0
		C259.4,412.6,258,411.4,257.8,409.7 M256.5,397.1c-0.2-1.8,1.1-3.4,2.9-3.6s3.4,1.1,3.6,2.9s-1.1,3.4-2.9,3.6c-0.1,0-0.2,0-0.3,0
		C258.1,400,256.7,398.8,256.5,397.1"/>
	<path class="st0" d="M274.9,407.3c-0.4-1.8,0.7-3.5,2.5-3.8s3.5,0.7,3.8,2.5c0.4,1.7-0.7,3.5-2.5,3.8c-0.2,0-0.5,0.1-0.7,0.1
		C276.5,409.9,275.2,408.9,274.9,407.3 M272.2,394.9c-0.4-1.8,0.7-3.5,2.5-3.8c1.8-0.4,3.5,0.7,3.8,2.5c0.4,1.8-0.7,3.5-2.5,3.8
		c-0.2,0-0.5,0.1-0.7,0.1C273.9,397.5,272.6,396.5,272.2,394.9"/>
	<path class="st0" d="M311.2,463.5c-0.6-1.7,0.4-3.5,2.1-4.1s3.5,0.4,4.1,2.1s-0.4,3.5-2.1,4.1c-0.3,0.1-0.7,0.2-1,0.2
		C312.9,465.7,311.6,464.8,311.2,463.5 M307.2,451.4c-0.6-1.7,0.4-3.5,2.1-4.1s3.5,0.4,4.1,2.1s-0.4,3.5-2.1,4.1
		c-0.3,0.1-0.7,0.2-1,0.2C309,453.6,307.7,452.8,307.2,451.4 M303.3,439.4c-0.6-1.7,0.4-3.5,2.1-4.1s3.5,0.4,4.1,2.1
		c0.5,1.7-0.4,3.5-2.1,4.1c-0.3,0.1-0.7,0.2-1,0.2C305,441.6,303.8,440.7,303.3,439.4 M299.4,427.3c-0.6-1.7,0.4-3.5,2.1-4.1
		c1.7-0.5,3.5,0.4,4.1,2.1s-0.4,3.5-2.1,4.1c-0.3,0.1-0.7,0.2-1,0.2C301.1,429.6,299.9,428.7,299.4,427.3 M295.5,415.3
		c-0.5-1.7,0.4-3.5,2.1-4.1s3.5,0.4,4.1,2.1s-0.4,3.5-2.1,4.1c-0.3,0.1-0.7,0.2-1,0.2C297.2,417.5,295.9,416.6,295.5,415.3
		 M291.6,403.2c-0.6-1.7,0.4-3.5,2.1-4.1s3.5,0.4,4.1,2.1s-0.4,3.5-2.1,4.1c-0.3,0.1-0.7,0.2-1,0.2
		C293.3,405.5,292,404.6,291.6,403.2 M287.7,391.2c-0.6-1.7,0.4-3.5,2.1-4.1s3.5,0.4,4.1,2.1s-0.4,3.5-2.1,4.1
		c-0.3,0.1-0.7,0.2-1,0.2C289.4,393.4,288.1,392.5,287.7,391.2"/>
	<path class="st0" d="M349,489.9c-0.7-1.6,0-3.5,1.6-4.3c1.6-0.7,3.6,0,4.3,1.6c0.7,1.6,0,3.6-1.6,4.3c-0.4,0.2-0.9,0.3-1.3,0.3
		C350.7,491.9,349.5,491.1,349,489.9 M343.8,478.4c-0.7-1.6,0-3.5,1.6-4.3c1.6-0.7,3.5,0,4.3,1.6c0.7,1.6,0,3.6-1.6,4.3
		c-0.4,0.2-0.9,0.3-1.3,0.3C345.6,480.3,344.4,479.6,343.8,478.4 M338.7,466.8c-0.7-1.6,0-3.5,1.6-4.3c1.6-0.7,3.6,0,4.3,1.6
		c0.7,1.6,0,3.5-1.6,4.3c-0.4,0.2-0.9,0.3-1.3,0.3C340.4,468.7,339.2,468,338.7,466.8 M333.5,455.2c-0.7-1.6,0-3.6,1.6-4.3
		c1.6-0.7,3.5,0,4.3,1.6c0.7,1.6,0,3.5-1.6,4.3c-0.4,0.2-0.9,0.3-1.3,0.3C335.3,457.1,334.1,456.4,333.5,455.2 M328.4,443.7
		c-0.7-1.6,0-3.6,1.6-4.3c1.6-0.7,3.6,0,4.3,1.6c0.7,1.6,0,3.5-1.6,4.3c-0.4,0.2-0.9,0.3-1.3,0.3
		C330.1,445.6,328.9,444.9,328.4,443.7 M323.2,432.1c-0.7-1.6,0-3.6,1.6-4.3c1.6-0.7,3.5,0,4.3,1.6c0.7,1.6,0,3.5-1.6,4.3
		c-0.4,0.2-0.9,0.3-1.3,0.3C325,434,323.8,433.3,323.2,432.1 M318.1,420.5c-0.7-1.6,0-3.6,1.6-4.3c1.6-0.7,3.6,0,4.3,1.6
		c0.7,1.6,0,3.6-1.6,4.3c-0.4,0.2-0.9,0.3-1.3,0.3C319.8,422.4,318.6,421.7,318.1,420.5 M312.9,408.9c-0.7-1.6,0-3.6,1.6-4.3
		c1.6-0.7,3.5,0,4.3,1.6c0.7,1.6,0,3.6-1.6,4.3c-0.4,0.2-0.9,0.3-1.3,0.3C314.7,410.9,313.5,410.1,312.9,408.9 M307.8,397.4
		c-0.7-1.6,0-3.6,1.6-4.3c1.6-0.7,3.6,0,4.3,1.6c0.7,1.6,0,3.6-1.6,4.3c-0.4,0.2-0.9,0.3-1.3,0.3
		C309.5,399.3,308.3,398.6,307.8,397.4 M302.6,385.8c-0.7-1.6,0-3.5,1.6-4.3c1.6-0.7,3.6,0,4.3,1.6c0.7,1.6,0,3.5-1.6,4.3
		c-0.4,0.2-0.9,0.3-1.3,0.3C304.3,387.7,303.2,387,302.6,385.8"/>
	<path class="st0" d="M323.3,389.8c-0.9-1.5-0.4-3.5,1.2-4.4c1.5-0.9,3.5-0.4,4.4,1.2c0.9,1.5,0.4,3.5-1.2,4.4
		c-0.5,0.3-1.1,0.4-1.6,0.4C325,391.5,323.9,390.9,323.3,389.8 M316.9,378.9c-0.9-1.5-0.4-3.5,1.2-4.4s3.5-0.4,4.4,1.2
		c0.9,1.5,0.4,3.5-1.2,4.4c-0.5,0.3-1.1,0.4-1.6,0.4C318.6,380.5,317.5,379.9,316.9,378.9"/>
	<path class="st0" d="M382.6,442.2c-1-1.5-0.7-3.5,0.7-4.5c1.5-1,3.5-0.7,4.5,0.7c1.1,1.4,0.7,3.5-0.7,4.5c-0.6,0.4-1.2,0.6-1.9,0.6
		C384.2,443.6,383.2,443.1,382.6,442.2 M375.1,432c-1.1-1.5-0.7-3.5,0.7-4.5c1.5-1.1,3.5-0.7,4.5,0.7c1.1,1.4,0.7,3.5-0.7,4.5
		c-0.6,0.4-1.2,0.6-1.9,0.6C376.7,433.3,375.8,432.9,375.1,432 M367.7,421.8c-1.1-1.4-0.7-3.5,0.7-4.5c1.4-1.1,3.5-0.7,4.5,0.7
		c1,1.5,0.7,3.5-0.7,4.5c-0.6,0.4-1.2,0.6-1.9,0.6C369.3,423.1,368.3,422.6,367.7,421.8 M360.2,411.5c-1.1-1.4-0.7-3.5,0.7-4.5
		c1.4-1,3.5-0.7,4.5,0.7c1.1,1.5,0.7,3.5-0.7,4.5c-0.6,0.4-1.2,0.6-1.9,0.6C361.9,412.8,360.9,412.4,360.2,411.5 M352.8,401.3
		c-1-1.5-0.7-3.5,0.7-4.5c1.4-1.1,3.5-0.7,4.5,0.7c1.1,1.4,0.7,3.5-0.7,4.5c-0.6,0.4-1.2,0.6-1.9,0.6
		C354.4,402.6,353.4,402.1,352.8,401.3 M345.3,391c-1.1-1.4-0.7-3.5,0.7-4.5c1.5-1,3.5-0.7,4.5,0.7c1,1.4,0.7,3.5-0.7,4.5
		c-0.6,0.4-1.2,0.6-1.9,0.6C347,392.3,346,391.9,345.3,391 M337.9,380.8c-1-1.4-0.7-3.5,0.7-4.5c1.4-1,3.5-0.7,4.5,0.7
		c1.1,1.4,0.7,3.5-0.7,4.5c-0.6,0.4-1.2,0.6-1.9,0.6C339.5,382.1,338.5,381.6,337.9,380.8 M330.4,370.5c-1-1.4-0.7-3.5,0.7-4.5
		c1.4-1.1,3.5-0.7,4.5,0.7c1.1,1.5,0.7,3.5-0.7,4.5c-0.6,0.4-1.2,0.6-1.9,0.6C332.1,371.8,331.1,371.4,330.4,370.5"/>
	<path class="st0" d="M427.8,454.9c-1.2-1.3-1.1-3.4,0.2-4.6c1.3-1.2,3.4-1.1,4.6,0.2c1.2,1.3,1.1,3.4-0.2,4.6
		c-0.6,0.6-1.4,0.8-2.2,0.8C429.3,456,428.4,455.6,427.8,454.9 M419.3,445.5c-1.2-1.3-1.1-3.4,0.2-4.6c1.3-1.2,3.4-1.1,4.6,0.2
		c1.2,1.3,1.1,3.4-0.2,4.6c-0.6,0.6-1.4,0.8-2.2,0.8C420.8,446.6,419.9,446.2,419.3,445.5 M410.8,436.1c-1.2-1.3-1.1-3.4,0.2-4.6
		c1.3-1.2,3.4-1.1,4.6,0.2c1.2,1.3,1.1,3.4-0.2,4.6c-0.6,0.6-1.4,0.8-2.2,0.8C412.3,437.2,411.5,436.8,410.8,436.1 M402.3,426.7
		c-1.2-1.3-1.1-3.4,0.2-4.6c1.3-1.2,3.4-1.1,4.6,0.2c1.2,1.3,1.1,3.4-0.2,4.6c-0.6,0.6-1.4,0.8-2.2,0.8
		C403.9,427.7,403,427.4,402.3,426.7 M393.9,417.3c-1.2-1.3-1.1-3.4,0.2-4.6c1.3-1.2,3.4-1.1,4.6,0.2c1.2,1.3,1.1,3.4-0.2,4.6
		c-0.6,0.6-1.4,0.8-2.2,0.8C395.4,418.3,394.5,418,393.9,417.3 M385.4,407.8c-1.2-1.3-1.1-3.4,0.2-4.6c1.3-1.2,3.4-1.1,4.6,0.2
		c1.2,1.3,1.1,3.4-0.2,4.6c-0.6,0.6-1.4,0.8-2.2,0.8C386.9,408.9,386,408.6,385.4,407.8 M376.9,398.4c-1.2-1.3-1.1-3.4,0.2-4.6
		c1.3-1.2,3.4-1.1,4.6,0.2c1.2,1.3,1.1,3.4-0.2,4.6c-0.6,0.6-1.4,0.8-2.2,0.8C378.4,399.5,377.6,399.1,376.9,398.4 M368.4,389
		c-1.2-1.3-1.1-3.4,0.2-4.6c1.3-1.2,3.4-1.1,4.6,0.2c1.2,1.3,1.1,3.4-0.2,4.6c-0.6,0.6-1.4,0.8-2.2,0.8
		C370,390.1,369.1,389.7,368.4,389 M360,379.6c-1.2-1.3-1.1-3.4,0.2-4.6c1.3-1.2,3.4-1.1,4.6,0.2c1.2,1.3,1.1,3.4-0.2,4.6
		c-0.6,0.6-1.4,0.8-2.2,0.8C361.5,380.7,360.6,380.3,360,379.6 M351.5,370.2c-1.2-1.3-1.1-3.4,0.2-4.6c1.3-1.2,3.4-1.1,4.6,0.2
		c1.2,1.3,1.1,3.4-0.2,4.6c-0.6,0.6-1.4,0.8-2.2,0.8C353,371.3,352.1,370.9,351.5,370.2 M343,360.8c-1.2-1.3-1.1-3.4,0.2-4.6
		c1.3-1.2,3.4-1.1,4.6,0.2c1.2,1.3,1.1,3.4-0.2,4.6c-0.6,0.6-1.4,0.8-2.2,0.8C344.5,361.8,343.7,361.5,343,360.8"/>
	<path class="st0" d="M411,400.6c-1.3-1.2-1.4-3.2-0.2-4.6c1.2-1.3,3.2-1.4,4.6-0.2c1.3,1.2,1.4,3.2,0.2,4.6
		c-0.6,0.7-1.5,1.1-2.4,1.1C412.4,401.5,411.6,401.2,411,400.6 M401.6,392.2c-1.3-1.2-1.4-3.2-0.2-4.6c1.2-1.3,3.2-1.4,4.6-0.2
		c1.3,1.2,1.4,3.2,0.2,4.6c-0.6,0.7-1.5,1.1-2.4,1.1C403,393,402.2,392.7,401.6,392.2 M392.1,383.7c-1.3-1.2-1.4-3.2-0.2-4.6
		c1.2-1.3,3.2-1.4,4.6-0.2c1.3,1.2,1.4,3.2,0.2,4.6c-0.6,0.7-1.5,1.1-2.4,1.1C393.5,384.5,392.8,384.2,392.1,383.7 M382.7,375.2
		c-1.3-1.2-1.4-3.2-0.2-4.6c1.2-1.3,3.2-1.4,4.6-0.2c1.3,1.2,1.4,3.2,0.2,4.6c-0.6,0.7-1.5,1.1-2.4,1.1
		C384.1,376,383.3,375.8,382.7,375.2 M373.3,366.7c-1.3-1.2-1.4-3.2-0.2-4.6c1.2-1.3,3.2-1.4,4.6-0.2c1.3,1.2,1.4,3.2,0.2,4.6
		c-0.6,0.7-1.5,1.1-2.4,1.1C374.7,367.6,373.9,367.3,373.3,366.7 M363.9,358.3c-1.3-1.2-1.4-3.2-0.2-4.6c1.2-1.3,3.2-1.4,4.6-0.2
		c1.3,1.2,1.4,3.2,0.2,4.6c-0.6,0.7-1.5,1.1-2.4,1.1C365.3,359.1,364.5,358.8,363.9,358.3 M354.5,349.8c-1.3-1.2-1.4-3.2-0.2-4.6
		c1.2-1.3,3.2-1.4,4.6-0.2c1.3,1.2,1.4,3.2,0.2,4.6c-0.6,0.7-1.5,1.1-2.4,1.1C355.9,350.6,355.1,350.3,354.5,349.8"/>
	<path class="st0" d="M364.7,337.6c-1.4-1.1-1.8-3.1-0.7-4.5c1.1-1.4,3.1-1.8,4.5-0.7c1.4,1,1.8,3.1,0.7,4.5
		c-0.6,0.9-1.6,1.3-2.6,1.3C366,338.3,365.3,338.1,364.7,337.6"/>
	<path class="st0" d="M395.6,337.2c-1.6-0.9-2.1-2.9-1.2-4.4s2.9-2.1,4.4-1.2s2.1,2.9,1.2,4.4c-0.6,1-1.7,1.6-2.8,1.6
		C396.7,337.6,396.1,337.5,395.6,337.2 M384.7,330.8c-1.5-0.9-2.1-2.9-1.2-4.4s2.9-2.1,4.4-1.2c1.6,0.9,2.1,2.9,1.2,4.4
		c-0.6,1-1.7,1.6-2.8,1.6C385.7,331.3,385.2,331.1,384.7,330.8 M373.7,324.5c-1.6-0.9-2.1-2.9-1.2-4.4s2.9-2.1,4.4-1.2
		s2.1,2.9,1.2,4.4c-0.6,1-1.7,1.6-2.8,1.6C374.8,324.9,374.2,324.8,373.7,324.5"/>
	<path class="st0" d="M473.8,351.7c-1.6-0.7-2.4-2.6-1.6-4.3c0.7-1.6,2.6-2.4,4.3-1.6c1.6,0.7,2.4,2.6,1.6,4.3
		c-0.5,1.2-1.7,1.9-3,1.9C474.7,352,474.2,351.9,473.8,351.7 M462.2,346.6c-1.6-0.7-2.4-2.6-1.6-4.3c0.7-1.6,2.6-2.4,4.3-1.6
		c1.6,0.7,2.4,2.6,1.6,4.3c-0.5,1.2-1.7,1.9-3,1.9C463.1,346.8,462.6,346.8,462.2,346.6 M450.6,341.4c-1.6-0.7-2.4-2.6-1.6-4.3
		c0.7-1.6,2.6-2.4,4.3-1.6c1.6,0.7,2.4,2.6,1.6,4.3c-0.5,1.2-1.7,1.9-3,1.9C451.5,341.7,451.1,341.6,450.6,341.4 M439.1,336.3
		c-1.6-0.7-2.4-2.6-1.6-4.3c0.7-1.6,2.6-2.4,4.3-1.6c1.6,0.7,2.4,2.6,1.6,4.3c-0.5,1.2-1.7,1.9-3,1.9
		C439.9,336.5,439.5,336.4,439.1,336.3 M427.5,331.1c-1.6-0.7-2.4-2.6-1.6-4.3c0.7-1.6,2.6-2.4,4.3-1.6c1.6,0.7,2.4,2.6,1.6,4.3
		c-0.5,1.2-1.7,1.9-3,1.9C428.4,331.4,427.9,331.3,427.5,331.1 M415.9,326c-1.6-0.7-2.4-2.6-1.6-4.3c0.7-1.6,2.6-2.4,4.3-1.6
		c1.6,0.7,2.4,2.6,1.6,4.3c-0.5,1.2-1.7,1.9-3,1.9C416.8,326.2,416.3,326.1,415.9,326 M404.3,320.8c-1.6-0.7-2.4-2.6-1.6-4.3
		c0.7-1.6,2.6-2.4,4.3-1.6c1.6,0.7,2.4,2.6,1.6,4.3c-0.5,1.2-1.7,1.9-3,1.9C405.2,321.1,404.8,321,404.3,320.8 M392.8,315.6
		c-1.6-0.7-2.4-2.6-1.6-4.3c0.7-1.6,2.6-2.4,4.3-1.6c1.6,0.7,2.4,2.6,1.6,4.3c-0.5,1.2-1.7,1.9-3,1.9
		C393.6,315.9,393.2,315.8,392.8,315.6 M381.2,310.5c-1.6-0.7-2.4-2.6-1.6-4.3c0.7-1.6,2.6-2.4,4.3-1.6c1.6,0.7,2.4,2.6,1.6,4.3
		c-0.5,1.2-1.7,1.9-3,1.9C382.1,310.8,381.6,310.7,381.2,310.5"/>
	<path class="st0" d="M435.4,311.4c-1.7-0.6-2.6-2.4-2.1-4.1c0.6-1.7,2.4-2.6,4.1-2.1c1.7,0.6,2.6,2.4,2.1,4.1
		c-0.4,1.4-1.7,2.2-3.1,2.2C436.1,311.6,435.7,311.5,435.4,311.4 M423.4,307.5c-1.7-0.6-2.6-2.4-2.1-4.1c0.6-1.7,2.4-2.6,4.1-2.1
		c1.7,0.6,2.6,2.4,2.1,4.1c-0.4,1.4-1.7,2.2-3.1,2.2C424,307.7,423.7,307.6,423.4,307.5 M411.3,303.6c-1.7-0.6-2.6-2.4-2.1-4.1
		c0.6-1.7,2.4-2.6,4.1-2.1c1.7,0.6,2.6,2.4,2.1,4.1c-0.4,1.4-1.7,2.2-3.1,2.2C412,303.8,411.6,303.7,411.3,303.6 M399.3,299.7
		c-1.7-0.6-2.6-2.4-2.1-4.1c0.6-1.7,2.4-2.6,4.1-2.1c1.7,0.6,2.6,2.4,2.1,4.1c-0.4,1.4-1.7,2.2-3.1,2.2
		C399.9,299.9,399.6,299.8,399.3,299.7 M387.2,295.8c-1.7-0.5-2.6-2.4-2.1-4.1c0.6-1.7,2.4-2.6,4.1-2.1c1.7,0.6,2.6,2.4,2.1,4.1
		c-0.4,1.4-1.7,2.2-3.1,2.2C387.9,295.9,387.5,295.9,387.2,295.8"/>
	<path class="st0" d="M478.4,299c-1.8-0.4-2.9-2.1-2.5-3.8c0.4-1.7,2.1-2.9,3.8-2.5c1.7,0.4,2.9,2.1,2.5,3.8
		c-0.3,1.5-1.7,2.6-3.2,2.6C478.8,299,478.6,299,478.4,299 M466,296.3c-1.8-0.4-2.9-2.1-2.5-3.8c0.4-1.8,2.1-2.9,3.8-2.5
		c1.8,0.4,2.9,2.1,2.5,3.8c-0.3,1.5-1.7,2.6-3.2,2.6C466.5,296.4,466.2,296.4,466,296.3 M453.6,293.7c-1.7-0.4-2.9-2.1-2.5-3.8
		c0.4-1.8,2.1-2.9,3.8-2.5c1.7,0.4,2.9,2.1,2.5,3.8c-0.3,1.5-1.7,2.6-3.2,2.6C454.1,293.8,453.8,293.7,453.6,293.7 M441.2,291.1
		c-1.8-0.4-2.9-2.1-2.5-3.8c0.4-1.8,2.1-2.9,3.8-2.5c1.8,0.4,2.9,2.1,2.5,3.8c-0.3,1.5-1.7,2.6-3.2,2.6
		C441.7,291.1,441.4,291.1,441.2,291.1 M428.8,288.4c-1.8-0.4-2.9-2.1-2.5-3.8c0.4-1.8,2.1-2.9,3.8-2.5c1.8,0.4,2.9,2.1,2.5,3.8
		c-0.3,1.5-1.7,2.6-3.2,2.6C429.3,288.5,429.1,288.5,428.8,288.4 M416.4,285.8c-1.8-0.4-2.9-2.1-2.5-3.8c0.4-1.8,2.1-2.9,3.8-2.5
		c1.8,0.4,2.9,2.1,2.5,3.8c-0.3,1.5-1.7,2.6-3.2,2.6C416.9,285.9,416.7,285.8,416.4,285.8 M404,283.2c-1.8-0.4-2.9-2.1-2.5-3.8
		c0.4-1.8,2.1-2.9,3.8-2.5c1.8,0.4,2.9,2.1,2.5,3.8c-0.3,1.5-1.7,2.6-3.2,2.6C404.5,283.2,404.3,283.2,404,283.2 M391.7,280.5
		c-1.8-0.4-2.9-2.1-2.5-3.8c0.4-1.7,2.1-2.9,3.8-2.5c1.8,0.4,2.9,2.1,2.5,3.8c-0.3,1.5-1.7,2.6-3.2,2.6
		C392.1,280.6,391.9,280.6,391.7,280.5"/>
	<path class="st0" d="M407.1,266.2c-1.8-0.2-3.1-1.8-2.9-3.6c0.2-1.8,1.8-3.1,3.6-2.9c1.8,0.2,3.1,1.8,2.9,3.6
		c-0.2,1.7-1.6,2.9-3.2,2.9C407.3,266.2,407.2,266.2,407.1,266.2 M394.5,264.9c-1.8-0.2-3.1-1.8-2.9-3.6c0.2-1.8,1.8-3.1,3.6-2.9
		c1.8,0.2,3.1,1.8,2.9,3.6c-0.2,1.7-1.6,2.9-3.2,2.9C394.7,264.9,394.6,264.9,394.5,264.9"/>
	<path class="st0" d="M392.4,245.8c0-1.8,1.5-3.2,3.2-3.2c1.8,0,3.2,1.5,3.2,3.2c0,1.8-1.5,3.2-3.2,3.2S392.4,247.6,392.4,245.8"/>
	<path class="st0" d="M391.6,230.3c-0.2-1.8,1.1-3.4,2.9-3.6c1.8-0.2,3.4,1.1,3.6,2.9c0.2,1.8-1.1,3.4-2.9,3.6c-0.1,0-0.2,0-0.3,0
		C393.2,233.2,391.8,231.9,391.6,230.3 M404.2,228.9c-0.2-1.8,1.1-3.4,2.9-3.6c1.8-0.2,3.4,1.1,3.6,2.9c0.2,1.8-1.1,3.4-2.9,3.6
		c-0.1,0-0.2,0-0.3,0C405.8,231.8,404.4,230.6,404.2,228.9 M416.8,227.6c-0.2-1.8,1.1-3.4,2.9-3.6c1.8-0.2,3.4,1.1,3.6,2.9
		c0.2,1.8-1.1,3.4-2.9,3.6c-0.1,0-0.2,0-0.3,0C418.4,230.5,417,229.3,416.8,227.6 M429.4,226.3c-0.2-1.8,1.1-3.4,2.9-3.6
		c1.8-0.2,3.4,1.1,3.6,2.9c0.2,1.8-1.1,3.4-2.9,3.6c-0.1,0-0.2,0-0.3,0C431,229.2,429.6,228,429.4,226.3 M442,225
		c-0.2-1.8,1.1-3.4,2.9-3.6c1.8-0.2,3.4,1.1,3.6,2.9c0.2,1.8-1.1,3.4-2.9,3.6c-0.1,0-0.2,0-0.3,0C443.6,227.9,442.2,226.6,442,225
		 M454.6,223.6c-0.2-1.8,1.1-3.4,2.9-3.6c1.8-0.2,3.4,1.1,3.6,2.9c0.2,1.8-1.1,3.4-2.9,3.6c-0.1,0-0.2,0-0.3,0
		C456.2,226.5,454.8,225.3,454.6,223.6 M467.2,222.3c-0.2-1.8,1.1-3.4,2.9-3.6c1.8-0.2,3.4,1.1,3.6,2.9c0.2,1.8-1.1,3.4-2.9,3.6
		c-0.1,0-0.2,0-0.3,0C468.8,225.2,467.4,224,467.2,222.3 M479.8,221c-0.2-1.8,1.1-3.4,2.9-3.6c1.8-0.2,3.4,1.1,3.6,2.9
		c0.2,1.8-1.1,3.4-2.9,3.6c-0.1,0-0.2,0-0.3,0C481.4,223.9,480,222.7,479.8,221"/>
	<path class="st0" d="M389.2,214.9c-0.4-1.8,0.7-3.5,2.5-3.8c1.8-0.4,3.5,0.7,3.8,2.5c0.4,1.8-0.7,3.5-2.5,3.8
		c-0.2,0-0.5,0.1-0.7,0.1C390.8,217.5,389.5,216.4,389.2,214.9 M401.5,212.3c-0.4-1.8,0.7-3.5,2.5-3.8c1.8-0.4,3.5,0.7,3.8,2.5
		c0.4,1.8-0.7,3.5-2.5,3.8c-0.2,0-0.5,0.1-0.7,0.1C403.2,214.8,401.9,213.8,401.5,212.3 M413.9,209.6c-0.4-1.8,0.7-3.5,2.5-3.8
		c1.8-0.4,3.5,0.7,3.8,2.5c0.4,1.7-0.8,3.5-2.5,3.8c-0.2,0-0.5,0.1-0.7,0.1C415.6,212.2,414.3,211.2,413.9,209.6 M426.3,207
		c-0.4-1.7,0.7-3.5,2.5-3.8c1.7-0.4,3.5,0.7,3.8,2.5c0.4,1.8-0.7,3.5-2.5,3.8c-0.2,0-0.5,0.1-0.7,0.1
		C428,209.6,426.7,208.5,426.3,207 M438.7,204.4c-0.4-1.8,0.7-3.5,2.5-3.8c1.8-0.4,3.5,0.7,3.8,2.5c0.4,1.8-0.7,3.5-2.5,3.8
		c-0.2,0-0.5,0.1-0.7,0.1C440.4,206.9,439,205.9,438.7,204.4 M451.1,201.7c-0.4-1.7,0.7-3.5,2.5-3.8c1.7-0.4,3.5,0.7,3.8,2.5
		c0.4,1.8-0.7,3.5-2.5,3.8c-0.2,0-0.5,0.1-0.7,0.1C452.8,204.3,451.4,203.3,451.1,201.7 M463.5,199.1c-0.4-1.8,0.7-3.5,2.5-3.8
		c1.8-0.4,3.5,0.7,3.8,2.5c0.4,1.8-0.8,3.5-2.5,3.8c-0.2,0-0.5,0.1-0.7,0.1C465.2,201.7,463.8,200.6,463.5,199.1"/>
	<path class="st0" d="M385.1,199.9c-0.6-1.7,0.4-3.5,2.1-4.1s3.5,0.4,4.1,2.1c0.6,1.7-0.4,3.5-2.1,4.1c-0.3,0.1-0.7,0.2-1,0.2
		C386.8,202.1,385.6,201.3,385.1,199.9 M397.2,196c-0.5-1.7,0.4-3.5,2.1-4.1c1.7-0.5,3.5,0.4,4.1,2.1c0.6,1.7-0.4,3.5-2.1,4.1
		c-0.3,0.1-0.7,0.2-1,0.2C398.9,198.2,397.6,197.3,397.2,196 M409.2,192.1c-0.6-1.7,0.4-3.5,2.1-4.1s3.5,0.4,4.1,2.1
		c0.6,1.7-0.4,3.5-2.1,4.1c-0.3,0.1-0.7,0.2-1,0.2C410.9,194.3,409.7,193.4,409.2,192.1 M421.3,188.1c-0.6-1.7,0.4-3.5,2.1-4.1
		s3.5,0.4,4.1,2.1c0.6,1.7-0.4,3.5-2.1,4.1c-0.3,0.1-0.7,0.2-1,0.2C423,190.4,421.7,189.5,421.3,188.1 M433.3,184.2
		c-0.6-1.7,0.4-3.5,2.1-4.1s3.5,0.4,4.1,2.1c0.6,1.7-0.4,3.5-2.1,4.1c-0.3,0.1-0.7,0.2-1,0.2C435,186.5,433.8,185.6,433.3,184.2"/>
	<path class="st0" d="M379.6,185.4c-0.7-1.6,0-3.6,1.6-4.3s3.5,0,4.3,1.6c0.7,1.6,0,3.5-1.6,4.3c-0.4,0.2-0.9,0.3-1.3,0.3
		C381.3,187.3,380.1,186.6,379.6,185.4"/>
	<path class="st0" d="M372.5,171.5c-0.9-1.5-0.4-3.5,1.2-4.4c1.5-0.9,3.5-0.4,4.4,1.2s0.4,3.5-1.2,4.4c-0.5,0.3-1.1,0.4-1.6,0.4
		C374.2,173.1,373.1,172.6,372.5,171.5 M383.5,165.2c-0.9-1.5-0.4-3.5,1.2-4.4s3.5-0.4,4.4,1.2c0.9,1.5,0.4,3.5-1.2,4.4
		c-0.5,0.3-1.1,0.4-1.6,0.4C385.2,166.8,384.1,166.2,383.5,165.2 M394.4,158.8c-0.9-1.5-0.4-3.5,1.2-4.4c1.5-0.9,3.5-0.4,4.4,1.2
		c0.9,1.5,0.4,3.5-1.2,4.4c-0.5,0.3-1.1,0.4-1.6,0.4C396.1,160.5,395,159.9,394.4,158.8 M405.4,152.5c-0.9-1.5-0.4-3.5,1.2-4.4
		s3.5-0.4,4.4,1.2c0.9,1.5,0.4,3.5-1.2,4.4c-0.5,0.3-1.1,0.4-1.6,0.4C407.1,154.1,406,153.6,405.4,152.5 M416.4,146.2
		c-0.9-1.5-0.4-3.5,1.2-4.4s3.5-0.4,4.4,1.2c0.9,1.5,0.4,3.5-1.2,4.4c-0.5,0.3-1.1,0.4-1.6,0.4C418.1,147.8,417,147.2,416.4,146.2
		 M427.3,139.8c-0.9-1.5-0.4-3.5,1.2-4.4s3.5-0.4,4.4,1.2c0.9,1.5,0.4,3.5-1.2,4.4c-0.5,0.3-1.1,0.4-1.6,0.4
		C429,141.5,428,140.9,427.3,139.8 M438.3,133.5c-0.9-1.5-0.4-3.5,1.2-4.4c1.5-0.9,3.5-0.4,4.4,1.2c0.9,1.5,0.4,3.5-1.2,4.4
		c-0.5,0.3-1.1,0.4-1.6,0.4C440,135.1,438.9,134.5,438.3,133.5"/>
	<path class="st0" d="M364,158.5c-1-1.4-0.7-3.5,0.7-4.5c1.4-1,3.5-0.7,4.5,0.7c1.1,1.4,0.7,3.5-0.7,4.5c-0.6,0.4-1.2,0.6-1.9,0.6
		C365.6,159.8,364.7,159.3,364,158.5 M374.3,151c-1.1-1.4-0.7-3.5,0.7-4.5c1.4-1.1,3.5-0.7,4.5,0.7s0.7,3.5-0.7,4.5
		c-0.6,0.4-1.2,0.6-1.9,0.6C375.9,152.4,374.9,151.9,374.3,151 M384.5,143.6c-1.1-1.4-0.7-3.5,0.7-4.5c1.4-1,3.5-0.7,4.5,0.7
		s0.7,3.5-0.7,4.5c-0.6,0.4-1.2,0.6-1.9,0.6C386.1,144.9,385.2,144.4,384.5,143.6 M394.8,136.1c-1-1.4-0.7-3.5,0.7-4.5
		c1.4-1,3.5-0.7,4.5,0.7c1.1,1.4,0.7,3.5-0.7,4.5c-0.6,0.4-1.2,0.6-1.9,0.6C396.4,137.5,395.4,137,394.8,136.1 M405,128.7
		c-1.1-1.4-0.7-3.5,0.7-4.5c1.4-1.1,3.5-0.7,4.5,0.7c1,1.4,0.7,3.5-0.7,4.5c-0.6,0.4-1.2,0.6-1.9,0.6
		C406.6,130,405.7,129.6,405,128.7 M415.3,121.2c-1-1.4-0.7-3.5,0.7-4.5c1.4-1.1,3.5-0.7,4.5,0.7c1.1,1.5,0.7,3.5-0.7,4.5
		c-0.6,0.4-1.2,0.6-1.9,0.6C416.9,122.6,415.9,122.1,415.3,121.2 M425.5,113.8c-1.1-1.4-0.7-3.5,0.7-4.5c1.4-1,3.5-0.7,4.5,0.7
		c1.1,1.4,0.7,3.5-0.7,4.5c-0.6,0.4-1.2,0.6-1.9,0.6C427.1,115.1,426.2,114.7,425.5,113.8 M435.8,106.3c-1.1-1.4-0.7-3.5,0.7-4.5
		c1.4-1,3.5-0.7,4.5,0.7c1,1.4,0.7,3.5-0.7,4.5c-0.6,0.4-1.2,0.6-1.9,0.6C437.4,107.7,436.4,107.2,435.8,106.3 M446,98.9
		c-1-1.5-0.7-3.5,0.7-4.5c1.4-1.1,3.5-0.7,4.5,0.7c1.1,1.4,0.7,3.5-0.7,4.5c-0.6,0.4-1.2,0.6-1.9,0.6
		C447.6,100.2,446.7,99.8,446,98.9 M456.3,91.5c-1.1-1.4-0.7-3.5,0.7-4.5c1.4-1.1,3.5-0.7,4.5,0.7c1,1.4,0.7,3.5-0.7,4.5
		c-0.6,0.4-1.2,0.6-1.9,0.6C457.9,92.8,456.9,92.3,456.3,91.5 M466.5,84c-1-1.4-0.7-3.5,0.7-4.5c1.4-1,3.5-0.7,4.5,0.7
		c1.1,1.4,0.7,3.5-0.7,4.5c-0.6,0.4-1.2,0.6-1.9,0.6C468.1,85.3,467.2,84.9,466.5,84"/>
	<path class="st0" d="M354.2,146.4c-1.2-1.3-1.1-3.4,0.2-4.6c1.3-1.2,3.4-1.1,4.6,0.2s1.1,3.4-0.2,4.6c-0.6,0.6-1.4,0.8-2.2,0.8
		C355.8,147.5,354.9,147.1,354.2,146.4 M363.7,137.9c-1.2-1.3-1.1-3.4,0.2-4.6c1.3-1.2,3.4-1.1,4.6,0.2s1.1,3.4-0.2,4.6
		c-0.6,0.6-1.4,0.8-2.2,0.8C365.2,139,364.3,138.6,363.7,137.9 M373.1,129.4c-1.2-1.3-1.1-3.4,0.2-4.6c1.3-1.2,3.4-1.1,4.6,0.2
		c1.2,1.3,1.1,3.4-0.2,4.6c-0.6,0.6-1.4,0.8-2.2,0.8C374.6,130.5,373.7,130.1,373.1,129.4"/>
	<path class="st0" d="M343.2,135.4c-1.3-1.2-1.4-3.2-0.2-4.6c1.2-1.3,3.2-1.4,4.6-0.2c1.3,1.2,1.4,3.2,0.2,4.6
		c-0.6,0.7-1.5,1.1-2.4,1.1C344.6,136.2,343.9,135.9,343.2,135.4 M351.7,126c-1.3-1.2-1.4-3.2-0.2-4.6c1.2-1.3,3.2-1.4,4.6-0.2
		c1.3,1.2,1.4,3.2,0.2,4.6c-0.6,0.7-1.5,1.1-2.4,1.1C353.1,126.8,352.3,126.5,351.7,126 M360.2,116.6c-1.3-1.2-1.4-3.2-0.2-4.6
		c1.2-1.3,3.2-1.4,4.6-0.2c1.3,1.2,1.4,3.3,0.2,4.6c-0.6,0.7-1.5,1.1-2.4,1.1C361.6,117.4,360.8,117.1,360.2,116.6 M368.7,107.1
		c-1.3-1.2-1.4-3.2-0.2-4.6c1.2-1.3,3.2-1.4,4.6-0.2c1.3,1.2,1.4,3.2,0.2,4.6c-0.6,0.7-1.5,1.1-2.4,1.1
		C370.1,108,369.3,107.7,368.7,107.1 M377.2,97.7c-1.3-1.2-1.4-3.2-0.2-4.6c1.2-1.3,3.2-1.4,4.6-0.2c1.3,1.2,1.4,3.2,0.2,4.6
		c-0.6,0.7-1.5,1.1-2.4,1.1C378.5,98.6,377.8,98.3,377.2,97.7 M385.6,88.3c-1.3-1.2-1.4-3.3-0.2-4.6c1.2-1.3,3.2-1.4,4.6-0.2
		c1.3,1.2,1.4,3.2,0.2,4.6c-0.6,0.7-1.5,1.1-2.4,1.1C387,89.2,386.2,88.9,385.6,88.3 M394.1,78.9c-1.3-1.2-1.4-3.2-0.2-4.6
		c1.2-1.3,3.2-1.4,4.6-0.2c1.3,1.2,1.4,3.3,0.2,4.6c-0.6,0.7-1.5,1.1-2.4,1.1C395.5,79.7,394.7,79.5,394.1,78.9"/>
	<path class="st0" d="M402.8,69.5c-1.3-1.2-1.4-3.2-0.2-4.6c1.2-1.3,3.2-1.4,4.6-0.2c1.3,1.2,1.4,3.2,0.2,4.6
		c-0.6,0.7-1.5,1.1-2.4,1.1C404.2,70.3,403.4,70,402.8,69.5 M411.3,60.1c-1.3-1.2-1.4-3.2-0.2-4.6c1.2-1.3,3.2-1.4,4.6-0.2
		c1.3,1.2,1.4,3.2,0.2,4.6c-0.6,0.7-1.5,1.1-2.4,1.1C412.7,60.9,411.9,60.6,411.3,60.1 M419.7,50.7c-1.3-1.2-1.4-3.2-0.2-4.6
		c1.2-1.3,3.2-1.4,4.6-0.2c1.3,1.2,1.4,3.3,0.2,4.6c-0.6,0.7-1.5,1.1-2.4,1.1C421.1,51.5,420.4,51.2,419.7,50.7 M428.2,41.2
		c-1.3-1.2-1.4-3.2-0.2-4.6c1.2-1.3,3.2-1.4,4.6-0.2c1.3,1.2,1.4,3.2,0.2,4.6c-0.6,0.7-1.5,1.1-2.4,1.1
		C429.6,42.1,428.8,41.8,428.2,41.2 M436.7,31.8c-1.3-1.2-1.4-3.2-0.2-4.6c1.2-1.3,3.2-1.4,4.6-0.2c1.3,1.2,1.4,3.2,0.2,4.6
		c-0.6,0.7-1.5,1.1-2.4,1.1C438.1,32.7,437.3,32.4,436.7,31.8 M445.2,22.4c-1.3-1.2-1.4-3.3-0.2-4.6c1.2-1.3,3.2-1.4,4.6-0.2
		c1.3,1.2,1.4,3.2,0.2,4.6c-0.6,0.7-1.5,1.1-2.4,1.1C446.6,23.3,445.8,23,445.2,22.4 M453.7,13c-1.3-1.2-1.4-3.2-0.2-4.6
		c1.2-1.3,3.2-1.4,4.6-0.2c1.3,1.2,1.4,3.3,0.2,4.6c-0.6,0.7-1.5,1.1-2.4,1.1C455,13.8,454.3,13.6,453.7,13"/>
	<path class="st0" d="M331.2,125.6c-1.4-1.1-1.8-3.1-0.7-4.5c1.1-1.4,3.1-1.8,4.5-0.7c1.4,1,1.8,3.1,0.7,4.5
		c-0.6,0.9-1.6,1.3-2.6,1.3C332.4,126.2,331.7,126,331.2,125.6 M338.6,115.4c-1.4-1-1.8-3.1-0.7-4.5c1-1.4,3.1-1.8,4.5-0.7
		c1.5,1.1,1.8,3.1,0.7,4.5c-0.6,0.9-1.6,1.3-2.6,1.3C339.8,116,339.2,115.8,338.6,115.4 M346.1,105.1c-1.4-1.1-1.8-3.1-0.7-4.5
		c1-1.4,3.1-1.8,4.5-0.7c1.4,1,1.8,3.1,0.7,4.5c-0.6,0.9-1.6,1.3-2.6,1.3C347.3,105.7,346.6,105.5,346.1,105.1 M353.5,94.9
		c-1.5-1-1.8-3.1-0.7-4.5c1-1.4,3.1-1.8,4.5-0.7c1.4,1,1.8,3.1,0.7,4.5c-0.6,0.9-1.6,1.3-2.6,1.3C354.7,95.5,354.1,95.3,353.5,94.9
		 M360.9,84.6c-1.4-1.1-1.8-3.1-0.7-4.5c1.1-1.4,3.1-1.8,4.5-0.7c1.4,1,1.8,3.1,0.7,4.5c-0.6,0.9-1.6,1.3-2.6,1.3
		C362.2,85.2,361.5,85,360.9,84.6 M368.4,74.4c-1.4-1.1-1.8-3.1-0.7-4.5c1.1-1.4,3.1-1.8,4.5-0.7c1.4,1,1.8,3.1,0.7,4.5
		c-0.6,0.9-1.6,1.3-2.6,1.3C369.6,75,369,74.8,368.4,74.4 M375.8,64.1c-1.4-1-1.8-3.1-0.7-4.5c1-1.4,3.1-1.8,4.5-0.7
		c1.5,1.1,1.8,3.1,0.7,4.5c-0.6,0.9-1.6,1.3-2.6,1.3C377.1,64.7,376.4,64.5,375.8,64.1 M383.3,53.9c-1.4-1.1-1.8-3.1-0.7-4.5
		c1.1-1.4,3.1-1.8,4.5-0.7c1.4,1,1.8,3.1,0.7,4.5c-0.6,0.9-1.6,1.3-2.6,1.3C384.5,54.5,383.9,54.3,383.3,53.9 M390.7,43.6
		c-1.5-1-1.8-3.1-0.7-4.5c1.1-1.4,3.1-1.8,4.5-0.7c1.5,1.1,1.8,3.1,0.7,4.5c-0.6,0.9-1.6,1.3-2.6,1.3C392,44.2,391.3,44,390.7,43.6
		 M398.2,33.4c-1.4-1-1.8-3.1-0.7-4.5c1-1.4,3.1-1.8,4.5-0.7c1.4,1.1,1.8,3.1,0.7,4.5c-0.6,0.9-1.6,1.3-2.6,1.3
		C399.4,34,398.8,33.8,398.2,33.4"/>
	<path class="st0" d="M318.1,117.1c-1.5-0.9-2.1-2.9-1.2-4.4s2.9-2.1,4.4-1.2c1.6,0.9,2.1,2.9,1.2,4.4c-0.6,1-1.7,1.6-2.8,1.6
		C319.2,117.6,318.6,117.4,318.1,117.1 M324.5,106.2c-1.6-0.9-2.1-2.9-1.2-4.4s2.9-2.1,4.4-1.2s2.1,2.9,1.2,4.4
		c-0.6,1-1.7,1.6-2.8,1.6C325.5,106.6,325,106.5,324.5,106.2 M330.8,95.2c-1.5-0.9-2.1-2.9-1.2-4.4s2.9-2.1,4.4-1.2
		c1.6,0.9,2.1,2.9,1.2,4.4c-0.6,1-1.7,1.6-2.8,1.6C331.9,95.6,331.3,95.5,330.8,95.2 M337.1,84.2c-1.5-0.9-2.1-2.9-1.2-4.4
		s2.9-2.1,4.4-1.2c1.6,0.9,2.1,2.9,1.2,4.4c-0.6,1-1.7,1.6-2.8,1.6C338.2,84.7,337.6,84.5,337.1,84.2 M343.5,73.2
		c-1.5-0.9-2.1-2.9-1.2-4.4s2.9-2.1,4.4-1.2c1.6,0.9,2.1,2.9,1.2,4.4c-0.6,1-1.7,1.6-2.8,1.6C344.5,73.7,344,73.5,343.5,73.2
		 M349.8,62.3c-1.6-0.9-2.1-2.9-1.2-4.4s2.9-2.1,4.4-1.2c1.6,0.9,2.1,2.9,1.2,4.4c-0.6,1-1.7,1.6-2.8,1.6
		C350.9,62.7,350.3,62.6,349.8,62.3"/>
	<path class="st0" d="M304.3,110.1c-1.6-0.7-2.4-2.6-1.6-4.3c0.7-1.6,2.6-2.4,4.3-1.6c1.6,0.7,2.4,2.6,1.6,4.3
		c-0.5,1.2-1.7,1.9-3,1.9C305.1,110.4,304.7,110.3,304.3,110.1 M309.4,98.5c-1.6-0.7-2.4-2.6-1.6-4.3c0.7-1.6,2.6-2.4,4.3-1.6
		c1.6,0.7,2.4,2.6,1.6,4.3c-0.5,1.2-1.7,1.9-3,1.9C310.3,98.8,309.8,98.7,309.4,98.5 M314.6,86.9c-1.6-0.7-2.4-2.6-1.6-4.3
		c0.7-1.6,2.6-2.4,4.3-1.6c1.6,0.7,2.4,2.6,1.6,4.3c-0.5,1.2-1.7,1.9-3,1.9C315.4,87.2,315,87.1,314.6,86.9 M319.7,75.4
		c-1.6-0.7-2.4-2.6-1.6-4.3c0.7-1.6,2.6-2.4,4.3-1.6c1.6,0.7,2.4,2.6,1.6,4.3c-0.5,1.2-1.7,1.9-3,1.9
		C320.6,75.6,320.2,75.5,319.7,75.4 M324.9,63.8c-1.6-0.7-2.4-2.6-1.6-4.3c0.7-1.6,2.6-2.4,4.3-1.6c1.6,0.7,2.4,2.6,1.6,4.3
		c-0.5,1.2-1.7,1.9-3,1.9C325.8,64.1,325.3,64,324.9,63.8 M330,52.2c-1.6-0.7-2.4-2.6-1.6-4.3c0.7-1.6,2.6-2.4,4.3-1.6
		c1.6,0.7,2.4,2.6,1.6,4.3c-0.5,1.2-1.7,1.9-3,1.9C330.9,52.5,330.5,52.4,330,52.2 M335.2,40.6c-1.6-0.7-2.4-2.6-1.6-4.3
		c0.7-1.6,2.6-2.4,4.3-1.6c1.6,0.7,2.4,2.6,1.6,4.3c-0.5,1.2-1.7,1.9-3,1.9C336.1,40.9,335.6,40.8,335.2,40.6 M340.3,29.1
		c-1.6-0.7-2.4-2.6-1.6-4.3c0.7-1.6,2.6-2.4,4.3-1.6c1.6,0.7,2.4,2.6,1.6,4.3c-0.5,1.2-1.7,1.9-3,1.9
		C341.2,29.3,340.8,29.3,340.3,29.1 M345.5,17.5c-1.6-0.7-2.4-2.6-1.6-4.3c0.7-1.6,2.6-2.4,4.3-1.6c1.6,0.7,2.4,2.6,1.6,4.3
		c-0.5,1.2-1.7,1.9-3,1.9C346.4,17.8,345.9,17.7,345.5,17.5 M350.6,5.9c-1.6-0.7-2.4-2.6-1.6-4.3c0.7-1.6,2.6-2.4,4.3-1.6
		c1.6,0.7,2.4,2.6,1.6,4.3c-0.5,1.2-1.7,1.9-3,1.9C351.5,6.2,351.1,6.1,350.6,5.9"/>
	<path class="st0" d="M289.8,104.5c-1.7-0.6-2.6-2.4-2.1-4.1c0.6-1.7,2.4-2.6,4.1-2.1c1.7,0.6,2.6,2.4,2.1,4.1
		c-0.4,1.4-1.7,2.2-3.1,2.2C290.4,104.7,290.1,104.6,289.8,104.5 M293.7,92.5c-1.7-0.6-2.6-2.4-2.1-4.1c0.6-1.7,2.4-2.6,4.1-2.1
		c1.7,0.6,2.6,2.4,2.1,4.1c-0.4,1.4-1.7,2.2-3.1,2.2C294.3,92.6,294,92.6,293.7,92.5 M297.6,80.4c-1.7-0.6-2.6-2.4-2.1-4.1
		c0.6-1.7,2.4-2.6,4.1-2.1c1.7,0.6,2.6,2.4,2.1,4.1c-0.4,1.4-1.7,2.2-3.1,2.2C298.2,80.6,297.9,80.5,297.6,80.4 M301.5,68.4
		c-1.7-0.6-2.6-2.4-2.1-4.1c0.6-1.7,2.4-2.6,4.1-2.1s2.6,2.4,2.1,4.1c-0.4,1.4-1.7,2.2-3.1,2.2C302.2,68.5,301.8,68.5,301.5,68.4
		 M305.4,56.3c-1.7-0.6-2.6-2.4-2.1-4.1c0.6-1.7,2.4-2.6,4.1-2.1s2.6,2.4,2.1,4.1c-0.4,1.4-1.7,2.2-3.1,2.2
		C306.1,56.5,305.7,56.4,305.4,56.3"/>
	<path class="st0" d="M274.7,100.5c-1.8-0.4-2.9-2.1-2.5-3.8c0.4-1.8,2.1-2.9,3.8-2.5c1.8,0.4,2.9,2.1,2.5,3.8
		c-0.3,1.5-1.7,2.6-3.2,2.6C275.2,100.5,275,100.5,274.7,100.5"/>
	<path class="st0" d="M259.4,98c-1.8-0.2-3.1-1.8-2.9-3.6c0.2-1.8,1.8-3.1,3.6-2.9c1.8,0.2,3.1,1.8,2.9,3.6
		c-0.2,1.7-1.6,2.9-3.2,2.9C259.6,98.1,259.5,98.1,259.4,98 M260.7,85.4c-1.8-0.2-3.1-1.8-2.9-3.6c0.2-1.8,1.8-3.1,3.6-2.9
		c1.8,0.2,3.1,1.8,2.9,3.6c-0.2,1.7-1.6,2.9-3.2,2.9C260.9,85.5,260.8,85.5,260.7,85.4 M262,72.8c-1.8-0.2-3.1-1.8-2.9-3.6
		c0.2-1.8,1.8-3.1,3.6-2.9c1.8,0.2,3.1,1.8,2.9,3.6c-0.2,1.7-1.6,2.9-3.2,2.9C262.2,72.9,262.1,72.9,262,72.8 M263.3,60.2
		c-1.8-0.2-3.1-1.8-2.9-3.6s1.8-3.1,3.6-2.9c1.8,0.2,3.1,1.8,2.9,3.6c-0.2,1.7-1.6,2.9-3.2,2.9C263.6,60.3,263.5,60.3,263.3,60.2
		 M264.7,47.6c-1.8-0.2-3.1-1.8-2.9-3.6s1.8-3.1,3.6-2.9c1.8,0.2,3.1,1.8,2.9,3.6c-0.2,1.7-1.6,2.9-3.2,2.9
		C264.9,47.7,264.8,47.7,264.7,47.6 M266,35.1c-1.8-0.2-3.1-1.8-2.9-3.6c0.2-1.8,1.8-3.1,3.6-2.9c1.8,0.2,3.1,1.8,2.9,3.6
		c-0.2,1.7-1.6,2.9-3.2,2.9C266.2,35.1,266.1,35.1,266,35.1"/>
</g>
<g>
	<path class="st0" d="M149.6,180l-0.6-1.9h-3.7l-0.6,1.9h-1.5l3.4-9.3h1.1l3.4,9.3H149.6z M147.1,172.8l-1.4,4.1h2.8L147.1,172.8z"
		/>
	<path class="st0" d="M158.7,179.1c-0.6,0.6-1.4,0.9-2.4,0.9H153v-9.3h3.3c1,0,1.8,0.3,2.4,0.9c1,1,0.9,2.4,0.9,3.7
		C159.6,176.6,159.7,178.1,158.7,179.1z M157.7,172.6c-0.4-0.4-0.9-0.6-1.6-0.6h-1.7v6.7h1.7c0.7,0,1.2-0.2,1.6-0.6
		c0.5-0.5,0.5-1.5,0.5-2.8C158.2,174,158.2,173.1,157.7,172.6z"/>
	<path class="st0" d="M162.3,180v-9.3h5.9v1.3h-4.5v2.7h3.8v1.2h-3.8v2.8h4.5v1.3H162.3z"/>
	<path class="st0" d="M170.8,180v-9.3h1.4v8h4.5v1.3H170.8z"/>
	<path class="st0" d="M184.3,180l-0.6-1.9H180l-0.6,1.9h-1.5l3.4-9.3h1.1l3.4,9.3H184.3z M181.8,172.8l-1.4,4.1h2.8L181.8,172.8z"/>
	<path class="st0" d="M187.7,180v-9.3h1.4v9.3H187.7z"/>
	<path class="st0" d="M197.8,179.1c-0.6,0.6-1.4,0.9-2.4,0.9h-3.3v-9.3h3.3c1,0,1.8,0.3,2.4,0.9c1,1,0.9,2.4,0.9,3.7
		C198.8,176.6,198.8,178.1,197.8,179.1z M196.9,172.6c-0.4-0.4-0.9-0.6-1.6-0.6h-1.7v6.7h1.7c0.7,0,1.2-0.2,1.6-0.6
		c0.5-0.5,0.5-1.5,0.5-2.8C197.4,174,197.3,173.1,196.9,172.6z"/>
	<path class="st0" d="M201.5,180v-9.3h5.9v1.3h-4.5v2.7h3.8v1.2h-3.8v2.8h4.5v1.3H201.5z"/>
	<path class="st0" d="M215.2,172v2.8h3.8v1.3h-3.8v3.9h-1.4v-9.3h5.9v1.3H215.2z"/>
	<path class="st0" d="M222,180v-9.3h5.9v1.3h-4.5v2.7h3.8v1.2h-3.8v2.8h4.5v1.3H222z"/>
	<path class="st0" d="M232.9,180.1c-1.4,0-2.4-0.3-3.3-1.2l0.9-0.9c0.7,0.7,1.4,0.9,2.4,0.9c1.2,0,1.9-0.5,1.9-1.4
		c0-0.4-0.1-0.7-0.4-1c-0.2-0.2-0.5-0.3-1-0.4l-1.1-0.2c-0.8-0.1-1.4-0.4-1.8-0.7c-0.5-0.4-0.7-1-0.7-1.8c0-1.6,1.2-2.7,3.1-2.7
		c1.2,0,2.1,0.3,2.9,1.1l-0.9,0.9c-0.6-0.5-1.2-0.7-2-0.7c-1.1,0-1.7,0.6-1.7,1.4c0,0.3,0.1,0.6,0.4,0.9c0.2,0.2,0.6,0.4,1,0.4
		l1.1,0.2c0.9,0.1,1.3,0.3,1.7,0.7c0.5,0.4,0.8,1.1,0.8,1.9C236.3,179,234.9,180.1,232.9,180.1z"/>
	<path class="st0" d="M241.9,172v8h-1.4v-8H238v-1.3h6.5v1.3H241.9z"/>
	<path class="st0" d="M246.7,180v-9.3h1.4v9.3H246.7z"/>
	<path class="st0" d="M254.2,180h-1.1l-3-9.3h1.5l2.1,6.7l2.1-6.7h1.5L254.2,180z"/>
	<path class="st0" d="M264.1,180l-0.6-1.9h-3.7l-0.6,1.9h-1.5l3.4-9.3h1.1l3.4,9.3H264.1z M261.6,172.8l-1.4,4.1h2.8L261.6,172.8z"
		/>
	<path class="st0" d="M267.5,180v-9.3h1.4v8h4.5v1.3H267.5z"/>
	<path class="st0" d="M282.4,180.1c-1,0-1.8-0.4-2.4-1c-0.9-0.9-0.9-1.9-0.9-3.7s0-2.8,0.9-3.7c0.6-0.6,1.5-1,2.4-1
		c1.7,0,3,1,3.3,2.8h-1.4c-0.2-0.9-0.8-1.6-1.9-1.6c-0.5,0-1,0.2-1.4,0.6c-0.5,0.5-0.6,1-0.6,2.9s0.1,2.4,0.6,2.9
		c0.3,0.4,0.8,0.6,1.4,0.6c1,0,1.7-0.6,1.9-1.6h1.4C285.4,179.1,284.1,180.1,282.4,180.1z"/>
	<path class="st0" d="M288.2,180v-9.3h5.9v1.3h-4.5v2.7h3.8v1.2h-3.8v2.8h4.5v1.3H288.2z"/>
	<path class="st0" d="M302.4,180l-4.3-6.5v6.5h-1.4v-9.3h1.3l4.3,6.5v-6.5h1.4v9.3H302.4z"/>
	<path class="st0" d="M309.9,172v8h-1.4v-8H306v-1.3h6.5v1.3H309.9z"/>
	<path class="st0" d="M319.8,180l-1.9-3.9h-1.8v3.9h-1.4v-9.3h3.6c1.8,0,2.9,1.1,2.9,2.7c0,1.3-0.8,2.2-1.8,2.5l2.1,4.1H319.8z
		 M318.1,172H316v2.9h2.1c0.9,0,1.6-0.5,1.6-1.4C319.7,172.5,319.1,172,318.1,172z"/>
	<path class="st0" d="M323.8,180v-9.3h5.9v1.3h-4.5v2.7h3.8v1.2h-3.8v2.8h4.5v1.3H323.8z"/>
	<path class="st0" d="M332.1,173.3v-2.5h1.5v1.4L332.1,173.3z"/>
	<path class="st0" d="M338.4,180.1c-1.4,0-2.4-0.3-3.3-1.2l0.9-0.9c0.7,0.7,1.4,0.9,2.4,0.9c1.2,0,1.9-0.5,1.9-1.4
		c0-0.4-0.1-0.7-0.4-1c-0.2-0.2-0.5-0.3-1-0.4l-1.1-0.2c-0.8-0.1-1.4-0.4-1.8-0.7c-0.5-0.4-0.7-1-0.7-1.8c0-1.6,1.2-2.7,3.1-2.7
		c1.2,0,2.1,0.3,2.9,1.1l-0.9,0.9c-0.6-0.5-1.2-0.7-2-0.7c-1.1,0-1.7,0.6-1.7,1.4c0,0.3,0.1,0.6,0.4,0.9c0.2,0.2,0.6,0.4,1,0.4
		l1.1,0.2c0.9,0.1,1.3,0.3,1.7,0.7c0.5,0.4,0.8,1.1,0.8,1.9C341.7,179,340.3,180.1,338.4,180.1z"/>
</g>
<g>
	<g>
		<path class="st0" d="M159.5,249.9c-0.2,0.5-0.9,0.5-1.1,0l-13.7-35.7l-13.6,35.7c-0.2,0.5-1,0.5-1.1,0l-18.1-47.1
			c-0.2-0.4,0.1-0.7,0.6-0.7h8.2c0.3,0,0.5,0.1,0.6,0.3l9.3,25.1l9.6-25.1c0.1-0.2,0.3-0.3,0.6-0.3h8.2c0.3,0,0.5,0.1,0.6,0.3
			l9.5,25.1l9.4-25.1c0.1-0.2,0.3-0.3,0.6-0.3h8.2c0.5,0,0.8,0.3,0.6,0.7L159.5,249.9z"/>
		<path class="st0" d="M196,243.2h-15.1l-1.8,4.9c-0.1,0.2-0.3,0.3-0.6,0.3h-8.2c-0.5,0-0.8-0.3-0.6-0.7l18.1-46.7
			c0.2-0.5,1-0.5,1.2,0l18.1,46.7c0.2,0.4-0.1,0.7-0.5,0.7h-8.2c-0.2,0-0.5-0.1-0.5-0.3L196,243.2z M183.8,235.4h9.3l-4.6-13.9
			L183.8,235.4z"/>
		<path class="st0" d="M237.1,239.8c0.4,0,0.7,0.3,0.7,0.5v7.6c0,0.3-0.3,0.5-0.7,0.5h-24.4c-0.4,0-0.7-0.3-0.7-0.5v-45.4
			c0-0.3,0.3-0.5,0.7-0.5h7.6c0.3,0,0.6,0.3,0.6,0.5v37.3H237.1z"/>
		<path class="st0" d="M261,225.6l18.6,21.9c0.4,0.4,0.1,0.9-0.5,0.9h-9.9c-0.1,0-0.5-0.1-0.5-0.2l-13.5-16.7
			c-1.1,1.3-2.3,2.8-3.6,4v12.3c0,0.3-0.3,0.5-0.6,0.5h-7.6c-0.4,0-0.7-0.3-0.7-0.5v-45.4c0-0.3,0.3-0.5,0.7-0.5h7.6
			c0.3,0,0.6,0.3,0.6,0.5v21.1l17.4-21.4c0.1-0.1,0.4-0.2,0.5-0.2h9.5c0.6,0,0.9,0.5,0.5,0.9L261,225.6z"/>
		<g>
			<path class="st0" d="M156,259.1c-11.2,0-16.3,8.7-16.3,16.8c0,11.6,8.4,16.8,16.3,16.8c10.6,0,16.2-8.5,16.2-16.8
				C172.2,267.5,166.7,259.1,156,259.1z M156,285c-5.6,0-8.1-4.7-8.1-9c0-4.4,2.5-9.1,8.1-9.1c5.5,0,8.1,4.7,8.1,9.1
				C164.1,280.3,161.6,285,156,285z"/>
			<path class="st0" d="M198,259.5h-19.9c-0.9,0-1.5-0.1-1.5,0.7v30.7c0,0.8-0.2,1.5,0.7,1.5h6.7c0.9,0,0.7-0.7,0.7-1.5v-11h10.9
				c0.8,0,1.5,0.2,1.5-0.7v-6.4c0-0.8-0.7-0.7-1.5-0.7h-10.9v-4.7H198c0.9,0,1.5,0.2,1.5-0.7v-6.6
				C199.6,259.4,198.9,259.5,198,259.5z"/>
		</g>
		<path class="st0" d="M220.7,268.4v10.5H239c0.3,0,0.6,0.3,0.6,0.5v7.4c0,0.3-0.3,0.5-0.6,0.5h-18.2v18.4c0,0.3-0.3,0.5-0.7,0.5
			h-7.6c-0.4,0-0.7-0.3-0.7-0.5v-45.4c0-0.3,0.3-0.5,0.7-0.5h30.2c0.4,0,0.7,0.3,0.7,0.5v7.6c0,0.3-0.3,0.5-0.7,0.5H220.7z"/>
		<path class="st0" d="M266.7,300.9h-15.1l-1.8,4.9c-0.1,0.2-0.3,0.3-0.6,0.3H241c-0.5,0-0.8-0.3-0.6-0.7l18.1-46.7
			c0.2-0.5,1-0.5,1.2,0l18.1,46.7c0.2,0.4-0.1,0.7-0.5,0.7h-8.2c-0.2,0-0.5-0.1-0.5-0.3L266.7,300.9z M254.5,293.1h9.3l-4.6-13.9
			L254.5,293.1z"/>
		<path class="st0" d="M333.3,305.6c0,0.3-0.3,0.5-0.7,0.5H325c-0.4,0-0.7-0.3-0.7-0.5v-25.5L312.6,304c-0.1,0.1-0.4,0.3-0.5,0.3
			H305c-0.2,0-0.5-0.2-0.6-0.3l-12.6-24.4v26.1c0,0.3-0.3,0.5-0.7,0.5h-7.6c-0.4,0-0.6-0.3-0.6-0.5v-45.4c0-0.3,0.2-0.5,0.6-0.5h7.8
			c0.2,0,0.5,0.2,0.6,0.3l16.6,34.1l15.9-34.1c0.1-0.1,0.4-0.3,0.6-0.3h7.7c0.4,0,0.7,0.3,0.7,0.5v45.3H333.3z"/>
		<path class="st0" d="M347.6,268.2v10.5h18.2c0.3,0,0.6,0.3,0.6,0.5v7.4c0,0.3-0.3,0.5-0.6,0.5h-18.2v10.5h22
			c0.4,0,0.7,0.3,0.7,0.5v7.6c0,0.3-0.3,0.5-0.7,0.5h-30.2c-0.4,0-0.7-0.3-0.7-0.5v-45.4c0-0.3,0.3-0.5,0.7-0.5H369
			c0.4,0,0.7,0.3,0.7,0.5v7.4c0,0.3-0.3,0.5-0.7,0.5H347.6z"/>
	</g>
</g>
</svg>
