<?xml version="1.0" encoding="utf-8"?>
<!-- Generator: Adobe Illustrator 23.0.3, SVG Export Plug-In . SVG Version: 6.00 Build 0)  -->
<svg version="1.1" id="Layer_1" xmlns="http://www.w3.org/2000/svg" xmlns:xlink="http://www.w3.org/1999/xlink" x="0px" y="0px"
	 viewBox="0 0 487.1 492.1" style="enable-background:new 0 0 487.1 492.1;" xml:space="preserve">
<style type="text/css">
	.st0{fill:#D6C184;}
</style>
<g>
	<path class="st0" d="M240.8,94.3c0-1.8,1.4-3.2,3.2-3.2c1.8,0,3.2,1.4,3.2,3.2c0,1.8-1.4,3.2-3.2,3.2
		C242.2,97.5,240.8,96.1,240.8,94.3 M240.8,81.6c0-1.8,1.4-3.2,3.2-3.2c1.8,0,3.2,1.4,3.2,3.2c0,1.8-1.4,3.2-3.2,3.2
		C242.2,84.8,240.8,83.4,240.8,81.6 M240.8,68.9c0-1.8,1.4-3.2,3.2-3.2c1.8,0,3.2,1.4,3.2,3.2c0,1.8-1.4,3.2-3.2,3.2
		C242.2,72.2,240.8,70.7,240.8,68.9 M240.8,56.3c0-1.8,1.4-3.2,3.2-3.2c1.8,0,3.2,1.4,3.2,3.2c0,1.8-1.4,3.2-3.2,3.2
		C242.2,59.5,240.8,58.1,240.8,56.3 M240.8,43.6c0-1.8,1.4-3.2,3.2-3.2c1.8,0,3.2,1.4,3.2,3.2c0,1.8-1.4,3.2-3.2,3.2
		C242.2,46.8,240.8,45.4,240.8,43.6 M240.8,30.9c0-1.8,1.4-3.2,3.2-3.2c1.8,0,3.2,1.4,3.2,3.2s-1.4,3.2-3.2,3.2
		C242.2,34.2,240.8,32.7,240.8,30.9 M240.8,18.3c0-1.8,1.4-3.2,3.2-3.2c1.8,0,3.2,1.4,3.2,3.2c0,1.8-1.4,3.2-3.2,3.2
		C242.2,21.5,240.8,20.1,240.8,18.3 M240.8,5.6c0-1.8,1.4-3.2,3.2-3.2c1.8,0,3.2,1.4,3.2,3.2c0,1.8-1.4,3.2-3.2,3.2
		C242.2,8.8,240.8,7.4,240.8,5.6"/>
	<path class="st0" d="M224.9,95.4c-0.2-1.8,1.1-3.4,2.9-3.6c1.8-0.2,3.4,1.1,3.6,2.9c0.2,1.8-1.1,3.4-2.9,3.6c-0.1,0-0.2,0-0.3,0
		C226.5,98.3,225.1,97.1,224.9,95.4 M223.6,82.8c-0.2-1.8,1.1-3.4,2.9-3.6c1.8-0.2,3.4,1.1,3.6,2.9c0.2,1.8-1.1,3.4-2.9,3.6
		c-0.1,0-0.2,0-0.3,0C225.2,85.7,223.8,84.5,223.6,82.8 M222.3,70.2c-0.2-1.8,1.1-3.4,2.9-3.6c1.8-0.2,3.4,1.1,3.6,2.9
		c0.2,1.8-1.1,3.4-2.9,3.6c-0.1,0-0.2,0-0.3,0C223.8,73.1,222.4,71.9,222.3,70.2"/>
	<path class="st0" d="M209.3,98.3c-0.4-1.7,0.7-3.5,2.5-3.8c1.8-0.4,3.5,0.7,3.8,2.5c0.4,1.8-0.7,3.5-2.5,3.8
		c-0.2,0-0.5,0.1-0.7,0.1C210.9,100.8,209.6,99.8,209.3,98.3 M206.6,85.9c-0.4-1.8,0.7-3.5,2.5-3.8c1.8-0.4,3.5,0.7,3.8,2.5
		c0.4,1.8-0.7,3.5-2.5,3.8c-0.2,0-0.5,0.1-0.7,0.1C208.3,88.4,207,87.4,206.6,85.9 M204,73.5c-0.4-1.7,0.7-3.5,2.5-3.8
		c1.8-0.4,3.5,0.7,3.8,2.5c0.4,1.7-0.7,3.5-2.5,3.8c-0.2,0-0.5,0.1-0.7,0.1C205.7,76,204.3,75,204,73.5 M201.4,61.1
		c-0.4-1.8,0.7-3.5,2.5-3.8s3.5,0.7,3.8,2.5c0.4,1.8-0.7,3.5-2.5,3.8c-0.2,0-0.5,0.1-0.7,0.1C203,63.7,201.7,62.6,201.4,61.1
		 M198.7,48.7c-0.4-1.7,0.7-3.5,2.5-3.8c1.8-0.4,3.5,0.7,3.8,2.5c0.4,1.8-0.7,3.5-2.5,3.8c-0.2,0-0.5,0.1-0.7,0.1
		C200.4,51.3,199.1,50.2,198.7,48.7 M196.1,36.3c-0.4-1.8,0.7-3.5,2.5-3.8c1.8-0.4,3.5,0.7,3.8,2.5c0.4,1.8-0.7,3.5-2.5,3.8
		c-0.2,0-0.5,0.1-0.7,0.1C197.8,38.9,196.4,37.8,196.1,36.3"/>
	<path class="st0" d="M194,102.7c-0.5-1.7,0.4-3.5,2.1-4.1c1.7-0.6,3.5,0.4,4.1,2.1c0.6,1.7-0.4,3.5-2.1,4.1c-0.3,0.1-0.7,0.2-1,0.2
		C195.7,104.9,194.5,104.1,194,102.7 M190.1,90.7c-0.6-1.7,0.4-3.5,2.1-4.1c1.7-0.6,3.5,0.4,4.1,2.1c0.6,1.7-0.4,3.5-2.1,4.1
		c-0.3,0.1-0.7,0.2-1,0.2C191.8,92.9,190.5,92,190.1,90.7 M186.2,78.6c-0.6-1.7,0.4-3.5,2.1-4.1c1.7-0.6,3.5,0.4,4.1,2.1
		c0.6,1.7-0.4,3.5-2.1,4.1c-0.3,0.1-0.7,0.2-1,0.2C187.9,80.8,186.6,80,186.2,78.6 M182.3,66.6c-0.6-1.7,0.4-3.5,2.1-4.1
		c1.7-0.6,3.5,0.4,4.1,2.1c0.6,1.7-0.4,3.5-2.1,4.1c-0.3,0.1-0.7,0.2-1,0.2C184,68.8,182.7,67.9,182.3,66.6 M178.4,54.5
		c-0.6-1.7,0.4-3.5,2.1-4.1c1.7-0.6,3.5,0.4,4.1,2.1c0.6,1.7-0.4,3.5-2.1,4.1c-0.3,0.1-0.7,0.2-1,0.2
		C180.1,56.8,178.8,55.9,178.4,54.5 M174.4,42.5c-0.5-1.7,0.4-3.5,2.1-4.1c1.7-0.6,3.5,0.4,4.1,2.1c0.5,1.7-0.4,3.5-2.1,4.1
		c-0.3,0.1-0.7,0.2-1,0.2C176.2,44.7,174.9,43.8,174.4,42.5 M170.5,30.4c-0.6-1.7,0.4-3.5,2.1-4.1c1.7-0.6,3.5,0.4,4.1,2.1
		c0.6,1.7-0.4,3.5-2.1,4.1c-0.3,0.1-0.7,0.2-1,0.2C172.2,32.7,171,31.8,170.5,30.4 M166.6,18.4c-0.6-1.7,0.4-3.5,2.1-4.1
		c1.7-0.5,3.5,0.4,4.1,2.1c0.6,1.7-0.4,3.5-2.1,4.1c-0.3,0.1-0.7,0.2-1,0.2C168.3,20.6,167.1,19.7,166.6,18.4"/>
	<path class="st0" d="M179.3,108.7c-0.7-1.6,0-3.5,1.6-4.3c1.6-0.7,3.6,0,4.3,1.6c0.7,1.6,0,3.5-1.6,4.3c-0.4,0.2-0.9,0.3-1.3,0.3
		C181,110.6,179.8,109.9,179.3,108.7 M174.1,97.1c-0.7-1.6,0-3.6,1.6-4.3c1.6-0.7,3.5,0,4.3,1.6c0.7,1.6,0,3.5-1.6,4.3
		c-0.4,0.2-0.9,0.3-1.3,0.3C175.9,99.1,174.7,98.3,174.1,97.1 M169,85.6c-0.7-1.6,0-3.6,1.6-4.3c1.6-0.7,3.6,0,4.3,1.6
		c0.7,1.6,0,3.6-1.6,4.3c-0.4,0.2-0.9,0.3-1.3,0.3C170.7,87.5,169.5,86.8,169,85.6 M163.8,74c-0.7-1.6,0-3.6,1.6-4.3
		c1.6-0.7,3.5,0,4.3,1.6c0.7,1.6,0,3.6-1.6,4.3c-0.4,0.2-0.9,0.3-1.3,0.3C165.6,75.9,164.4,75.2,163.8,74 M158.7,62.4
		c-0.7-1.6,0-3.6,1.6-4.3c1.6-0.7,3.6,0,4.3,1.6c0.7,1.6,0,3.6-1.6,4.3c-0.4,0.2-0.9,0.3-1.3,0.3C160.4,64.3,159.2,63.6,158.7,62.4
		 M153.5,50.8c-0.7-1.6,0-3.5,1.6-4.3c1.6-0.7,3.5,0,4.3,1.6c0.7,1.6,0,3.6-1.6,4.3c-0.4,0.2-0.9,0.3-1.3,0.3
		C155.3,52.8,154.1,52.1,153.5,50.8 M148.4,39.3c-0.7-1.6,0-3.5,1.6-4.3c1.6-0.7,3.6,0,4.3,1.6c0.7,1.6,0,3.5-1.6,4.3
		c-0.4,0.2-0.9,0.3-1.3,0.3C150.1,41.2,148.9,40.5,148.4,39.3 M143.2,27.7c-0.7-1.6,0-3.5,1.6-4.3c1.6-0.7,3.5,0,4.3,1.6
		c0.7,1.6,0,3.5-1.6,4.3c-0.4,0.2-0.9,0.3-1.3,0.3C144.9,29.6,143.8,28.9,143.2,27.7 M138.1,16.1c-0.7-1.6,0-3.6,1.6-4.3
		c1.6-0.7,3.6,0,4.3,1.6c0.7,1.6,0,3.5-1.6,4.3c-0.4,0.2-0.9,0.3-1.3,0.3C139.8,18.1,138.6,17.3,138.1,16.1 M132.9,4.6
		c-0.7-1.6,0-3.5,1.6-4.3c1.6-0.7,3.5,0,4.3,1.6c0.7,1.6,0,3.6-1.6,4.3c-0.4,0.2-0.9,0.3-1.3,0.3C134.6,6.5,133.5,5.8,132.9,4.6"/>
	<path class="st0" d="M165.3,116.2c-0.9-1.5-0.4-3.5,1.2-4.4c1.5-0.9,3.5-0.4,4.4,1.2c0.9,1.5,0.4,3.5-1.2,4.4
		c-0.5,0.3-1.1,0.4-1.6,0.4C167,117.9,165.9,117.3,165.3,116.2 M159,105.3c-0.9-1.5-0.4-3.5,1.2-4.4c1.5-0.9,3.5-0.4,4.4,1.2
		c0.9,1.5,0.4,3.5-1.2,4.4c-0.5,0.3-1.1,0.4-1.6,0.4C160.6,106.9,159.6,106.3,159,105.3 M152.6,94.3c-0.9-1.5-0.4-3.5,1.2-4.4
		c1.5-0.9,3.5-0.4,4.4,1.2c0.9,1.5,0.4,3.5-1.2,4.4c-0.5,0.3-1.1,0.4-1.6,0.4C154.3,95.9,153.2,95.3,152.6,94.3 M146.3,83.3
		c-0.9-1.5-0.4-3.5,1.2-4.4c1.6-0.9,3.5-0.4,4.4,1.2c0.9,1.5,0.4,3.5-1.2,4.4c-0.5,0.3-1.1,0.4-1.6,0.4
		C148,84.9,146.9,84.4,146.3,83.3 M140,72.3c-0.9-1.5-0.4-3.5,1.2-4.4c1.6-0.9,3.5-0.4,4.4,1.2c0.9,1.5,0.4,3.5-1.2,4.4
		c-0.5,0.3-1.1,0.4-1.6,0.4C141.6,74,140.6,73.4,140,72.3 M133.6,61.4c-0.9-1.5-0.4-3.5,1.2-4.4c1.6-0.9,3.5-0.4,4.4,1.2
		c0.9,1.6,0.4,3.5-1.2,4.4c-0.5,0.3-1.1,0.4-1.6,0.4C135.3,63,134.2,62.4,133.6,61.4"/>
	<path class="st0" d="M152.1,125.2c-1-1.4-0.7-3.5,0.7-4.5c1.5-1.1,3.5-0.7,4.5,0.7c1.1,1.4,0.7,3.5-0.7,4.5
		c-0.6,0.4-1.2,0.6-1.9,0.6C153.8,126.5,152.8,126,152.1,125.2"/>
	<path class="st0" d="M140,135.4c-1.2-1.3-1.1-3.4,0.2-4.6c1.3-1.2,3.4-1.1,4.6,0.2c1.2,1.3,1.1,3.4-0.2,4.6
		c-0.6,0.6-1.4,0.8-2.2,0.8C141.5,136.5,140.7,136.1,140,135.4 M131.5,126c-1.2-1.3-1.1-3.4,0.2-4.6c1.3-1.2,3.4-1.1,4.6,0.2
		c1.2,1.3,1.1,3.4-0.2,4.6c-0.6,0.6-1.4,0.8-2.2,0.8C133.1,127.1,132.2,126.7,131.5,126 M123.1,116.6c-1.2-1.3-1.1-3.4,0.2-4.6
		c1.3-1.2,3.4-1.1,4.6,0.2c1.2,1.3,1.1,3.4-0.2,4.6c-0.6,0.6-1.4,0.8-2.2,0.8C124.6,117.7,123.7,117.3,123.1,116.6 M114.6,107.2
		c-1.2-1.3-1.1-3.4,0.2-4.6c1.3-1.2,3.4-1.1,4.6,0.2c1.2,1.3,1.1,3.4-0.2,4.6c-0.6,0.6-1.4,0.8-2.2,0.8
		C116.1,108.3,115.2,107.9,114.6,107.2 M106.1,97.8c-1.2-1.3-1.1-3.4,0.2-4.6c1.3-1.2,3.4-1.1,4.6,0.2c1.2,1.3,1.1,3.4-0.2,4.6
		c-0.6,0.6-1.4,0.8-2.2,0.8C107.6,98.8,106.8,98.5,106.1,97.8 M97.6,88.4c-1.2-1.3-1.1-3.4,0.2-4.6c1.3-1.2,3.4-1.1,4.6,0.2
		c1.2,1.3,1.1,3.4-0.2,4.6c-0.6,0.6-1.4,0.8-2.2,0.8C99.2,89.4,98.3,89.1,97.6,88.4 M89.2,78.9c-1.2-1.3-1.1-3.4,0.2-4.6
		c1.3-1.2,3.4-1.1,4.6,0.2c1.2,1.3,1.1,3.4-0.2,4.6c-0.6,0.6-1.4,0.8-2.2,0.8C90.7,80,89.8,79.7,89.2,78.9 M80.7,69.5
		c-1.2-1.3-1.1-3.4,0.2-4.6c1.3-1.2,3.4-1.1,4.6,0.2c1.2,1.3,1.1,3.4-0.2,4.6c-0.6,0.6-1.4,0.8-2.2,0.8
		C82.2,70.6,81.3,70.2,80.7,69.5 M72.2,60.1c-1.2-1.3-1.1-3.4,0.2-4.6c1.3-1.2,3.4-1.1,4.6,0.2c1.2,1.3,1.1,3.4-0.2,4.6
		c-0.6,0.6-1.4,0.8-2.2,0.8C73.7,61.2,72.8,60.8,72.2,60.1 M63.7,50.7c-1.2-1.3-1.1-3.4,0.2-4.6c1.3-1.2,3.4-1.1,4.6,0.2
		c1.2,1.3,1.1,3.4-0.2,4.6c-0.6,0.6-1.4,0.8-2.2,0.8C65.2,51.8,64.4,51.4,63.7,50.7 M55.2,41.3c-1.2-1.3-1.1-3.4,0.2-4.6
		c1.3-1.2,3.4-1.1,4.6,0.2c1.2,1.3,1.1,3.4-0.2,4.6c-0.6,0.6-1.4,0.8-2.2,0.8C56.8,42.4,55.9,42,55.2,41.3"/>
	<path class="st0" d="M129,146.9c-1.3-1.2-1.4-3.2-0.2-4.6c1.2-1.3,3.2-1.4,4.6-0.2c1.3,1.2,1.4,3.2,0.2,4.6
		c-0.6,0.7-1.5,1.1-2.4,1.1C130.4,147.7,129.6,147.5,129,146.9 M119.6,138.4c-1.3-1.2-1.4-3.2-0.2-4.6c1.2-1.3,3.2-1.4,4.6-0.2
		c1.3,1.2,1.4,3.2,0.2,4.6c-0.6,0.7-1.5,1.1-2.4,1.1C121,139.3,120.2,139,119.6,138.4 M110.2,130c-1.3-1.2-1.4-3.2-0.2-4.6
		c1.2-1.3,3.2-1.4,4.6-0.2c1.3,1.2,1.4,3.2,0.2,4.6c-0.6,0.7-1.5,1.1-2.4,1.1C111.6,130.8,110.8,130.5,110.2,130 M100.8,121.5
		c-1.3-1.2-1.4-3.2-0.2-4.6c1.2-1.3,3.2-1.4,4.6-0.2c1.3,1.2,1.4,3.2,0.2,4.6c-0.6,0.7-1.5,1.1-2.4,1.1
		C102.2,122.3,101.4,122,100.8,121.5 M91.4,113c-1.3-1.2-1.4-3.2-0.2-4.6c1.2-1.3,3.2-1.4,4.6-0.2c1.3,1.2,1.4,3.2,0.2,4.6
		c-0.6,0.7-1.5,1.1-2.4,1.1C92.8,113.8,92,113.6,91.4,113 M81.9,104.5c-1.3-1.2-1.4-3.2-0.2-4.6c1.2-1.3,3.2-1.4,4.6-0.2
		c1.3,1.2,1.4,3.2,0.2,4.6c-0.6,0.7-1.5,1.1-2.4,1.1C83.3,105.4,82.6,105.1,81.9,104.5 M72.5,96.1c-1.3-1.2-1.4-3.3-0.2-4.6
		c1.2-1.3,3.2-1.4,4.6-0.2c1.3,1.2,1.4,3.2,0.2,4.6c-0.6,0.7-1.5,1.1-2.4,1.1C73.9,96.9,73.2,96.6,72.5,96.1"/>
	<path class="st0" d="M119.3,159.5c-1.4-1-1.8-3.1-0.7-4.5c1.1-1.4,3.1-1.8,4.5-0.7c1.4,1.1,1.8,3.1,0.7,4.5
		c-0.6,0.9-1.6,1.3-2.6,1.3C120.5,160.1,119.9,159.9,119.3,159.5 M109,152c-1.4-1.1-1.8-3.1-0.7-4.5c1-1.4,3.1-1.8,4.5-0.7
		c1.4,1,1.8,3.1,0.7,4.5c-0.6,0.9-1.6,1.3-2.6,1.3C110.3,152.6,109.6,152.4,109,152 M98.8,144.6c-1.4-1.1-1.8-3.1-0.7-4.5
		c1.1-1.4,3.1-1.8,4.5-0.7c1.4,1.1,1.8,3.1,0.7,4.5c-0.6,0.9-1.6,1.3-2.6,1.3C100,145.2,99.4,145,98.8,144.6 M88.5,137.1
		c-1.4-1-1.8-3.1-0.7-4.5c1-1.4,3.1-1.8,4.5-0.7c1.4,1.1,1.8,3.1,0.7,4.5c-0.6,0.9-1.6,1.3-2.6,1.3
		C89.8,137.7,89.1,137.5,88.5,137.1 M78.3,129.7c-1.4-1-1.8-3.1-0.7-4.5c1-1.4,3.1-1.8,4.5-0.7c1.4,1,1.8,3.1,0.7,4.5
		c-0.6,0.9-1.6,1.3-2.6,1.3C79.5,130.3,78.9,130.1,78.3,129.7 M68,122.2c-1.4-1.1-1.8-3.1-0.7-4.5c1.1-1.4,3.1-1.8,4.5-0.7
		c1.4,1,1.8,3.1,0.7,4.5c-0.6,0.9-1.6,1.3-2.6,1.3C69.3,122.9,68.6,122.7,68,122.2 M57.8,114.8c-1.4-1.1-1.8-3.1-0.7-4.5
		c1-1.4,3.1-1.8,4.5-0.7c1.4,1.1,1.8,3.1,0.7,4.5c-0.6,0.9-1.6,1.3-2.6,1.3C59,115.4,58.4,115.2,57.8,114.8 M47.5,107.3
		c-1.4-1-1.8-3.1-0.7-4.5c1.1-1.4,3.1-1.8,4.5-0.7c1.4,1.1,1.8,3.1,0.7,4.5c-0.6,0.9-1.6,1.3-2.6,1.3
		C48.8,108,48.1,107.8,47.5,107.3 M37.3,99.9c-1.4-1.1-1.8-3.1-0.7-4.5c1.1-1.4,3.1-1.8,4.5-0.7c1.4,1,1.8,3.1,0.7,4.5
		c-0.6,0.9-1.6,1.3-2.6,1.3C38.5,100.5,37.9,100.3,37.3,99.9 M27.1,92.5c-1.4-1.1-1.8-3.1-0.7-4.5c1-1.4,3.1-1.8,4.5-0.7
		c1.4,1,1.8,3.1,0.7,4.5c-0.6,0.9-1.6,1.3-2.6,1.3C28.3,93.1,27.6,92.9,27.1,92.5"/>
	<path class="st0" d="M110.9,173c-1.6-0.9-2.1-2.9-1.2-4.4c0.9-1.5,2.9-2.1,4.4-1.2c1.6,0.9,2.1,2.9,1.2,4.4c-0.6,1-1.7,1.6-2.8,1.6
		C112,173.4,111.4,173.3,110.9,173 M99.9,166.6c-1.6-0.9-2.1-2.9-1.2-4.4c0.9-1.5,2.9-2.1,4.4-1.2c1.6,0.9,2.1,2.9,1.2,4.4
		c-0.6,1-1.7,1.6-2.8,1.6C101,167.1,100.5,166.9,99.9,166.6 M89,160.3c-1.6-0.9-2.1-2.9-1.2-4.4c0.9-1.5,2.9-2.1,4.4-1.2
		c1.5,0.9,2.1,2.9,1.2,4.4c-0.6,1-1.7,1.6-2.8,1.6C90,160.7,89.5,160.6,89,160.3"/>
	<path class="st0" d="M104,187.3c-1.6-0.7-2.4-2.6-1.6-4.3c0.7-1.6,2.6-2.4,4.3-1.6c1.6,0.7,2.4,2.6,1.6,4.3c-0.5,1.2-1.7,1.9-3,1.9
		C104.9,187.6,104.4,187.5,104,187.3 M92.4,182.1c-1.6-0.7-2.4-2.6-1.6-4.3c0.7-1.6,2.6-2.4,4.3-1.6c1.6,0.7,2.4,2.6,1.6,4.3
		c-0.5,1.2-1.7,1.9-3,1.9C93.3,182.4,92.9,182.3,92.4,182.1"/>
	<path class="st0" d="M98.6,202.2c-1.7-0.6-2.6-2.4-2.1-4.1c0.6-1.7,2.4-2.6,4.1-2.1c1.7,0.6,2.6,2.4,2.1,4.1
		c-0.4,1.4-1.7,2.2-3.1,2.2C99.3,202.4,99,202.4,98.6,202.2 M86.6,198.3c-1.7-0.6-2.6-2.4-2.1-4.1c0.6-1.7,2.4-2.6,4.1-2.1
		c1.7,0.6,2.6,2.4,2.1,4.1c-0.4,1.4-1.7,2.2-3.1,2.2C87.2,198.5,86.9,198.4,86.6,198.3 M74.5,194.4c-1.7-0.6-2.6-2.4-2.1-4.1
		c0.6-1.7,2.4-2.6,4.1-2.1c1.7,0.6,2.6,2.4,2.1,4.1c-0.4,1.4-1.7,2.2-3.1,2.2C75.2,194.6,74.9,194.5,74.5,194.4 M62.5,190.5
		c-1.7-0.6-2.6-2.4-2.1-4.1c0.6-1.7,2.4-2.6,4.1-2.1c1.7,0.6,2.6,2.4,2.1,4.1c-0.4,1.4-1.7,2.2-3.1,2.2
		C63.2,190.7,62.8,190.6,62.5,190.5 M50.4,186.6c-1.7-0.6-2.6-2.4-2.1-4.1c0.6-1.7,2.4-2.6,4.1-2.1c1.7,0.6,2.6,2.4,2.1,4.1
		c-0.4,1.4-1.7,2.2-3.1,2.2C51.1,186.8,50.8,186.7,50.4,186.6 M38.4,182.7c-1.7-0.6-2.6-2.4-2.1-4.1c0.5-1.7,2.4-2.6,4.1-2.1
		c1.7,0.6,2.6,2.4,2.1,4.1c-0.4,1.4-1.7,2.2-3.1,2.2C39.1,182.8,38.7,182.8,38.4,182.7 M26.3,178.8c-1.7-0.6-2.6-2.4-2.1-4.1
		c0.6-1.7,2.4-2.6,4.1-2.1c1.7,0.6,2.6,2.4,2.1,4.1c-0.4,1.4-1.7,2.2-3.1,2.2C27,178.9,26.7,178.9,26.3,178.8 M14.3,174.8
		c-1.7-0.5-2.6-2.4-2.1-4.1c0.6-1.7,2.4-2.6,4.1-2.1c1.7,0.6,2.6,2.4,2.1,4.1c-0.4,1.4-1.7,2.2-3.1,2.2C15,175,14.6,175,14.3,174.8
		 M2.2,170.9c-1.7-0.6-2.6-2.4-2.1-4.1c0.6-1.7,2.4-2.6,4.1-2.1c1.7,0.5,2.6,2.4,2.1,4.1c-0.4,1.4-1.7,2.2-3.1,2.2
		C2.9,171.1,2.6,171,2.2,170.9"/>
	<path class="st0" d="M94.8,217.7c-1.7-0.4-2.9-2.1-2.5-3.8c0.4-1.8,2.1-2.9,3.8-2.5c1.8,0.4,2.9,2.1,2.5,3.8
		c-0.3,1.5-1.7,2.6-3.2,2.6C95.3,217.8,95.1,217.7,94.8,217.7 M82.4,215c-1.8-0.4-2.9-2.1-2.5-3.8c0.4-1.7,2.1-2.9,3.8-2.5
		c1.8,0.4,2.9,2.1,2.5,3.8c-0.3,1.5-1.7,2.6-3.2,2.6C82.9,215.1,82.7,215.1,82.4,215"/>
	<path class="st0" d="M92.7,233.4c-1.8-0.2-3.1-1.8-2.9-3.6c0.2-1.8,1.8-3.1,3.6-2.9c1.8,0.2,3.1,1.8,2.9,3.6
		c-0.2,1.7-1.6,2.9-3.2,2.9C92.9,233.5,92.8,233.4,92.7,233.4 M80.1,232.1c-1.8-0.2-3.1-1.8-2.9-3.6c0.2-1.8,1.8-3.1,3.6-2.9
		c1.8,0.2,3.1,1.8,2.9,3.6c-0.2,1.7-1.6,2.9-3.2,2.9C80.3,232.1,80.2,232.1,80.1,232.1 M67.5,230.8c-1.8-0.2-3.1-1.8-2.9-3.6
		c0.2-1.8,1.8-3.1,3.6-2.9c1.8,0.2,3.1,1.8,2.9,3.6c-0.2,1.7-1.6,2.9-3.2,2.9C67.7,230.8,67.6,230.8,67.5,230.8 M54.9,229.5
		c-1.8-0.2-3.1-1.8-2.9-3.6c0.2-1.8,1.8-3.1,3.6-2.9c1.8,0.2,3.1,1.8,2.9,3.6c-0.2,1.7-1.6,2.9-3.2,2.9
		C55.1,229.5,55,229.5,54.9,229.5 M42.3,228.1c-1.8-0.2-3.1-1.8-2.9-3.6c0.2-1.8,1.8-3.1,3.6-2.9c1.8,0.2,3.1,1.8,2.9,3.6
		c-0.2,1.7-1.6,2.9-3.2,2.9C42.5,228.2,42.4,228.1,42.3,228.1"/>
	<path class="st0" d="M89,246.1c0-1.8,1.5-3.2,3.2-3.2c1.8,0,3.2,1.5,3.2,3.2c0,1.8-1.5,3.2-3.2,3.2C90.4,249.3,89,247.9,89,246.1
		 M76.3,246.1c0-1.8,1.5-3.2,3.2-3.2c1.8,0,3.2,1.5,3.2,3.2c0,1.8-1.5,3.2-3.2,3.2C77.7,249.3,76.3,247.9,76.3,246.1 M63.6,246.1
		c0-1.8,1.5-3.2,3.2-3.2c1.8,0,3.2,1.5,3.2,3.2c0,1.8-1.4,3.2-3.2,3.2C65.1,249.3,63.6,247.9,63.6,246.1 M51,246.1
		c0-1.8,1.4-3.2,3.2-3.2c1.8,0,3.2,1.5,3.2,3.2c0,1.8-1.5,3.2-3.2,3.2C52.4,249.3,51,247.9,51,246.1 M38.3,246.1
		c0-1.8,1.4-3.2,3.2-3.2c1.8,0,3.2,1.5,3.2,3.2c0,1.8-1.5,3.2-3.2,3.2C39.7,249.3,38.3,247.9,38.3,246.1 M25.6,246.1
		c0-1.8,1.4-3.2,3.2-3.2c1.8,0,3.2,1.5,3.2,3.2c0,1.8-1.5,3.2-3.2,3.2C27.1,249.3,25.6,247.9,25.6,246.1 M12.9,246.1
		c0-1.8,1.5-3.2,3.2-3.2c1.8,0,3.2,1.5,3.2,3.2c0,1.8-1.5,3.2-3.2,3.2C14.4,249.3,12.9,247.9,12.9,246.1 M0.3,246.1
		c0-1.8,1.5-3.2,3.2-3.2c1.8,0,3.2,1.5,3.2,3.2c0,1.8-1.5,3.2-3.2,3.2C1.7,249.3,0.3,247.9,0.3,246.1"/>
	<path class="st0" d="M14.2,270.2c-0.2-1.8,1.1-3.4,2.9-3.6c1.8-0.2,3.4,1.1,3.6,2.9c0.2,1.8-1.1,3.4-2.9,3.6c-0.1,0-0.2,0-0.3,0
		C15.8,273.1,14.4,271.9,14.2,270.2 M26.8,268.9c-0.2-1.8,1.1-3.4,2.9-3.6c1.8-0.2,3.4,1.1,3.6,2.9c0.2,1.8-1.1,3.4-2.9,3.6
		c-0.1,0-0.2,0-0.3,0C28.4,271.8,27,270.6,26.8,268.9 M39.4,267.6c-0.2-1.8,1.1-3.4,2.9-3.6c1.8-0.2,3.4,1.1,3.6,2.9
		c0.2,1.8-1.1,3.4-2.9,3.6c-0.1,0-0.2,0-0.3,0C41,270.5,39.6,269.2,39.4,267.6 M52,266.3c-0.2-1.8,1.1-3.4,2.9-3.6
		c1.8-0.2,3.4,1.1,3.6,2.9c0.2,1.8-1.1,3.4-2.9,3.6c-0.1,0-0.2,0-0.3,0C53.6,269.2,52.2,267.9,52,266.3 M64.6,264.9
		c-0.2-1.8,1.1-3.4,2.9-3.6c1.8-0.2,3.4,1.1,3.6,2.9c0.2,1.8-1.1,3.4-2.9,3.6c-0.1,0-0.2,0-0.3,0C66.2,267.8,64.8,266.6,64.6,264.9
		 M77.2,263.6c-0.2-1.8,1.1-3.4,2.9-3.6c1.8-0.2,3.4,1.1,3.6,2.9c0.2,1.8-1.1,3.4-2.9,3.6c-0.1,0-0.2,0-0.3,0
		C78.8,266.5,77.4,265.3,77.2,263.6 M89.8,262.3c-0.2-1.8,1.1-3.4,2.9-3.6c1.8-0.2,3.4,1.1,3.6,2.9c0.2,1.8-1.1,3.4-2.9,3.6
		c-0.1,0-0.2,0-0.3,0C91.4,265.2,90,263.9,89.8,262.3"/>
	<path class="st0" d="M67.6,283.6c-0.4-1.8,0.7-3.5,2.5-3.8c1.8-0.4,3.5,0.7,3.8,2.5c0.4,1.8-0.7,3.5-2.5,3.8
		c-0.2,0.1-0.5,0.1-0.7,0.1C69.2,286.1,67.9,285.1,67.6,283.6 M80,280.9c-0.4-1.8,0.7-3.5,2.5-3.8c1.8-0.4,3.5,0.7,3.8,2.5
		c0.4,1.8-0.7,3.5-2.5,3.8c-0.2,0-0.5,0.1-0.7,0.1C81.6,283.5,80.3,282.5,80,280.9 M92.3,278.3c-0.4-1.8,0.7-3.5,2.5-3.8
		c1.8-0.4,3.5,0.7,3.8,2.5c0.4,1.8-0.7,3.5-2.5,3.8c-0.2,0-0.5,0.1-0.7,0.1C94,280.9,92.7,279.8,92.3,278.3"/>
	<path class="st0" d="M96.5,294c-0.6-1.7,0.4-3.5,2.1-4.1c1.7-0.6,3.5,0.4,4.1,2.1c0.6,1.7-0.4,3.5-2.1,4.1c-0.3,0.1-0.7,0.2-1,0.2
		C98.3,296.2,97,295.4,96.5,294"/>
	<path class="st0" d="M32.9,340c-0.7-1.6,0-3.5,1.6-4.3c1.6-0.7,3.5,0,4.3,1.6c0.7,1.6,0,3.6-1.6,4.3c-0.4,0.2-0.9,0.3-1.3,0.3
		C34.6,342,33.5,341.3,32.9,340 M44.5,334.9c-0.7-1.6,0-3.5,1.6-4.3c1.6-0.7,3.5,0,4.3,1.6c0.7,1.6,0,3.5-1.6,4.3
		c-0.4,0.2-0.9,0.3-1.3,0.3C46.2,336.8,45,336.1,44.5,334.9 M56.1,329.7c-0.7-1.6,0-3.6,1.6-4.3c1.6-0.7,3.5,0,4.3,1.6
		c0.7,1.6,0,3.6-1.6,4.3c-0.4,0.2-0.9,0.3-1.3,0.3C57.8,331.7,56.6,331,56.1,329.7 M67.6,324.6c-0.7-1.6,0-3.6,1.6-4.3
		c1.6-0.7,3.6,0,4.3,1.6c0.7,1.6,0,3.5-1.6,4.3c-0.4,0.2-0.9,0.3-1.3,0.3C69.4,326.5,68.2,325.8,67.6,324.6 M79.2,319.4
		c-0.7-1.6,0-3.6,1.6-4.3c1.6-0.7,3.6,0,4.3,1.6c0.7,1.6,0,3.6-1.6,4.3c-0.4,0.2-0.9,0.3-1.3,0.3C80.9,321.4,79.7,320.7,79.2,319.4
		 M90.8,314.3c-0.7-1.6,0-3.5,1.6-4.3c1.6-0.7,3.6,0,4.3,1.6c0.7,1.6,0,3.5-1.6,4.3c-0.4,0.2-0.9,0.3-1.3,0.3
		C92.5,316.2,91.3,315.5,90.8,314.3 M102.4,309.1c-0.7-1.6,0-3.6,1.6-4.3c1.6-0.7,3.6,0,4.3,1.6c0.7,1.6,0,3.6-1.6,4.3
		c-0.4,0.2-0.9,0.3-1.3,0.3C104.1,311.1,102.9,310.3,102.4,309.1"/>
	<path class="st0" d="M11,380.6c-0.9-1.5-0.4-3.5,1.2-4.4c1.6-0.9,3.5-0.4,4.4,1.2c0.9,1.6,0.4,3.5-1.2,4.4
		c-0.5,0.3-1.1,0.4-1.6,0.4C12.7,382.2,11.6,381.6,11,380.6 M22,374.3c-0.9-1.5-0.4-3.5,1.2-4.4c1.6-0.9,3.5-0.4,4.4,1.2
		c0.9,1.6,0.4,3.5-1.2,4.4c-0.5,0.3-1.1,0.4-1.6,0.4C23.7,375.9,22.6,375.3,22,374.3 M32.9,367.9c-0.9-1.6-0.4-3.5,1.2-4.4
		c1.5-0.9,3.5-0.4,4.4,1.2c0.9,1.6,0.4,3.5-1.2,4.4c-0.5,0.3-1.1,0.4-1.6,0.4C34.6,369.6,33.5,369,32.9,367.9 M43.9,361.6
		c-0.9-1.6-0.4-3.5,1.2-4.4c1.6-0.9,3.5-0.4,4.4,1.2c0.9,1.6,0.4,3.5-1.2,4.4c-0.5,0.3-1.1,0.4-1.6,0.4
		C45.6,363.2,44.5,362.6,43.9,361.6 M54.9,355.3c-0.9-1.5-0.4-3.5,1.2-4.4c1.5-0.9,3.5-0.4,4.4,1.2c0.9,1.5,0.4,3.5-1.2,4.4
		c-0.5,0.3-1.1,0.4-1.6,0.4C56.6,356.9,55.5,356.3,54.9,355.3 M65.8,348.9c-0.9-1.5-0.4-3.5,1.2-4.4c1.5-0.9,3.5-0.4,4.4,1.2
		c0.9,1.5,0.4,3.5-1.2,4.4c-0.5,0.3-1.1,0.4-1.6,0.4C67.5,350.6,66.4,350,65.8,348.9 M76.8,342.6c-0.9-1.5-0.4-3.5,1.2-4.4
		c1.5-0.9,3.5-0.4,4.4,1.2c0.9,1.5,0.4,3.5-1.2,4.4c-0.5,0.3-1.1,0.4-1.6,0.4C78.5,344.2,77.4,343.6,76.8,342.6 M87.8,336.3
		c-0.9-1.5-0.4-3.5,1.2-4.4c1.6-0.9,3.5-0.4,4.4,1.2c0.9,1.5,0.4,3.5-1.2,4.4c-0.5,0.3-1.1,0.4-1.6,0.4
		C89.5,337.9,88.4,337.3,87.8,336.3 M98.8,329.9c-0.9-1.5-0.4-3.5,1.2-4.4c1.6-0.9,3.5-0.4,4.4,1.2c0.9,1.5,0.4,3.5-1.2,4.4
		c-0.5,0.3-1.1,0.4-1.6,0.4C100.4,331.6,99.4,331,98.8,329.9 M109.7,323.6c-0.9-1.5-0.4-3.5,1.2-4.4c1.6-0.9,3.5-0.4,4.4,1.2
		c0.9,1.5,0.4,3.5-1.2,4.4c-0.5,0.3-1.1,0.4-1.6,0.4C111.4,325.2,110.3,324.6,109.7,323.6"/>
	<path class="st0" d="M108.3,344.7c-1.1-1.5-0.7-3.5,0.7-4.5c1.5-1,3.5-0.7,4.5,0.7c1,1.5,0.7,3.5-0.7,4.5c-0.6,0.4-1.2,0.6-1.9,0.6
		C109.9,346,108.9,345.5,108.3,344.7 M118.6,337.2c-1-1.5-0.7-3.5,0.7-4.5c1.5-1.1,3.5-0.7,4.5,0.7c1.1,1.4,0.7,3.5-0.7,4.5
		c-0.6,0.4-1.2,0.6-1.9,0.6C120.2,338.5,119.2,338.1,118.6,337.2"/>
	<path class="st0" d="M81.7,392.2c-1.2-1.3-1.1-3.4,0.2-4.6c1.3-1.2,3.4-1.1,4.6,0.2c1.2,1.3,1.1,3.4-0.2,4.6
		c-0.6,0.6-1.4,0.8-2.2,0.8C83.2,393.3,82.3,392.9,81.7,392.2 M91.1,383.7c-1.2-1.3-1.1-3.4,0.2-4.6c1.3-1.2,3.4-1.1,4.6,0.2
		c1.2,1.3,1.1,3.4-0.2,4.6c-0.6,0.6-1.4,0.8-2.2,0.8C92.6,384.8,91.8,384.4,91.1,383.7 M100.5,375.2c-1.2-1.3-1.1-3.4,0.2-4.6
		c1.3-1.2,3.4-1.1,4.6,0.2c1.2,1.3,1.1,3.4-0.2,4.6c-0.6,0.6-1.4,0.8-2.2,0.8C102.1,376.3,101.2,376,100.5,375.2 M110,366.8
		c-1.2-1.3-1.1-3.4,0.2-4.6c1.3-1.2,3.4-1.1,4.6,0.2c1.2,1.3,1.1,3.4-0.2,4.6c-0.6,0.6-1.4,0.8-2.2,0.8
		C111.5,367.8,110.6,367.5,110,366.8 M119.4,358.3c-1.2-1.3-1.1-3.4,0.2-4.6c1.3-1.2,3.4-1.1,4.6,0.2c1.2,1.3,1.1,3.4-0.2,4.6
		c-0.6,0.6-1.4,0.8-2.2,0.8C120.9,359.4,120,359,119.4,358.3 M128.8,349.8c-1.2-1.3-1.1-3.4,0.2-4.6c1.3-1.2,3.4-1.1,4.6,0.2
		c1.2,1.3,1.1,3.4-0.2,4.6c-0.6,0.6-1.4,0.8-2.2,0.8C130.3,350.9,129.4,350.5,128.8,349.8"/>
	<path class="st0" d="M80.9,427.2c-1.3-1.2-1.4-3.3-0.2-4.6c1.2-1.3,3.2-1.4,4.6-0.2c1.3,1.2,1.4,3.2,0.2,4.6
		c-0.6,0.7-1.5,1.1-2.4,1.1C82.3,428,81.5,427.7,80.9,427.2 M89.4,417.8c-1.3-1.2-1.4-3.2-0.2-4.6c1.2-1.3,3.2-1.4,4.6-0.2
		c1.3,1.2,1.4,3.2,0.2,4.6c-0.6,0.7-1.5,1.1-2.4,1.1C90.8,418.6,90,418.3,89.4,417.8 M97.9,408.4c-1.3-1.2-1.4-3.2-0.2-4.6
		c1.2-1.3,3.2-1.4,4.6-0.2c1.3,1.2,1.4,3.2,0.2,4.6c-0.6,0.7-1.5,1.1-2.4,1.1C99.3,409.2,98.5,408.9,97.9,408.4 M106.4,398.9
		c-1.3-1.2-1.4-3.2-0.2-4.6c1.2-1.3,3.2-1.4,4.6-0.2c1.3,1.2,1.4,3.2,0.2,4.6c-0.6,0.7-1.5,1.1-2.4,1.1
		C107.7,399.8,107,399.5,106.4,398.9 M114.8,389.5c-1.3-1.2-1.4-3.3-0.2-4.6c1.2-1.3,3.3-1.4,4.6-0.2c1.3,1.2,1.4,3.2,0.2,4.6
		c-0.6,0.7-1.5,1.1-2.4,1.1C116.2,390.4,115.4,390.1,114.8,389.5 M123.3,380.1c-1.3-1.2-1.4-3.2-0.2-4.6c1.2-1.3,3.2-1.4,4.6-0.2
		c1.3,1.2,1.4,3.2,0.2,4.6c-0.6,0.7-1.5,1.1-2.4,1.1C124.7,381,123.9,380.7,123.3,380.1 M131.8,370.7c-1.3-1.2-1.4-3.2-0.2-4.6
		c1.2-1.3,3.2-1.4,4.6-0.2c1.3,1.2,1.4,3.2,0.2,4.6c-0.6,0.7-1.5,1.1-2.4,1.1C133.2,371.5,132.4,371.3,131.8,370.7 M140.3,361.3
		c-1.3-1.2-1.4-3.2-0.2-4.6c1.2-1.3,3.2-1.4,4.6-0.2c1.3,1.2,1.4,3.2,0.2,4.6c-0.6,0.7-1.5,1.1-2.4,1.1
		C141.6,362.1,140.9,361.9,140.3,361.3"/>
	<path class="st0" d="M78.4,474c-1.5-1-1.8-3.1-0.7-4.5c1.1-1.4,3.1-1.8,4.5-0.7c1.4,1.1,1.8,3.1,0.7,4.5c-0.6,0.9-1.6,1.3-2.6,1.3
		C79.6,474.6,79,474.4,78.4,474 M85.9,463.7c-1.4-1-1.8-3.1-0.7-4.5c1-1.5,3.1-1.8,4.5-0.7c1.5,1.1,1.8,3.1,0.7,4.5
		c-0.6,0.9-1.6,1.3-2.6,1.3C87.1,464.4,86.4,464.2,85.9,463.7 M93.3,453.5c-1.4-1.1-1.8-3.1-0.7-4.5c1.1-1.4,3.1-1.8,4.5-0.7
		c1.4,1,1.8,3.1,0.7,4.5c-0.6,0.9-1.6,1.3-2.6,1.3C94.5,454.1,93.9,453.9,93.3,453.5 M71.2,484.4c-1.4-1-1.8-3.1-0.7-4.5
		c1-1.4,3.1-1.8,4.5-0.7c1.4,1.1,1.8,3.1,0.7,4.5c-0.6,0.9-1.6,1.3-2.6,1.3C72.4,485,71.7,484.8,71.2,484.4 M100.7,443.2
		c-1.4-1-1.8-3.1-0.7-4.5c1.1-1.4,3.1-1.8,4.5-0.7c1.5,1.1,1.8,3.1,0.7,4.5c-0.6,0.9-1.6,1.3-2.6,1.3
		C102,443.9,101.3,443.7,100.7,443.2 M108.2,433c-1.4-1.1-1.8-3.1-0.7-4.5c1-1.4,3.1-1.8,4.5-0.7c1.4,1,1.8,3.1,0.7,4.5
		c-0.6,0.9-1.6,1.3-2.6,1.3C109.4,433.6,108.8,433.4,108.2,433 M115.6,422.8c-1.4-1.1-1.8-3.1-0.7-4.5c1.1-1.4,3.1-1.8,4.5-0.7
		c1.4,1,1.8,3.1,0.7,4.5c-0.6,0.9-1.6,1.3-2.6,1.3C116.9,423.4,116.2,423.2,115.6,422.8 M123.1,412.5c-1.4-1-1.8-3.1-0.7-4.5
		c1.1-1.4,3.1-1.8,4.5-0.7c1.4,1.1,1.8,3.1,0.7,4.5c-0.6,0.9-1.6,1.3-2.6,1.3C124.3,413.1,123.7,412.9,123.1,412.5 M130.5,402.3
		c-1.4-1.1-1.8-3.1-0.7-4.5c1-1.4,3.1-1.8,4.5-0.7c1.4,1,1.8,3.1,0.7,4.5c-0.6,0.9-1.6,1.3-2.6,1.3
		C131.8,402.9,131.1,402.7,130.5,402.3 M138,392c-1.4-1-1.8-3.1-0.7-4.5c1-1.4,3.1-1.8,4.5-0.7c1.4,1.1,1.8,3.1,0.7,4.5
		c-0.6,0.9-1.6,1.3-2.6,1.3C139.2,392.6,138.6,392.4,138,392 M145.4,381.8c-1.4-1-1.8-3.1-0.7-4.5c1.1-1.4,3.1-1.8,4.5-0.7
		c1.4,1.1,1.8,3.1,0.7,4.5c-0.6,0.9-1.6,1.3-2.6,1.3C146.7,382.4,146,382.2,145.4,381.8 M152.9,371.5c-1.4-1-1.8-3.1-0.7-4.5
		c1.1-1.5,3.1-1.8,4.5-0.7c1.4,1,1.8,3.1,0.7,4.5c-0.6,0.9-1.6,1.3-2.6,1.3C154.1,372.1,153.4,371.9,152.9,371.5"/>
	<path class="st0" d="M147.5,413.3c-1.5-0.9-2.1-2.9-1.2-4.4c0.9-1.5,2.9-2.1,4.4-1.2c1.6,0.9,2.1,2.9,1.2,4.4
		c-0.6,1-1.7,1.6-2.8,1.6C148.5,413.7,148,413.6,147.5,413.3 M153.8,402.3c-1.5-0.9-2.1-2.9-1.2-4.4c0.9-1.5,2.9-2.1,4.4-1.2
		c1.6,0.9,2.1,2.9,1.2,4.4c-0.6,1-1.7,1.6-2.8,1.6C154.9,402.7,154.3,402.6,153.8,402.3 M160.1,391.3c-1.5-0.9-2.1-2.9-1.2-4.4
		c0.9-1.5,2.9-2.1,4.4-1.2c1.6,0.9,2.1,2.9,1.2,4.4c-0.6,1-1.7,1.6-2.8,1.6C161.2,391.8,160.6,391.6,160.1,391.3 M166.5,380.3
		c-1.5-0.9-2.1-2.9-1.2-4.4c0.9-1.5,2.9-2.1,4.4-1.2c1.6,0.9,2.1,2.9,1.2,4.4c-0.6,1-1.7,1.6-2.8,1.6
		C167.5,380.8,167,380.6,166.5,380.3"/>
	<path class="st0" d="M150,457.2c-1.6-0.7-2.4-2.6-1.6-4.3c0.7-1.6,2.6-2.4,4.3-1.6c1.6,0.7,2.4,2.6,1.6,4.3c-0.5,1.2-1.7,1.9-3,1.9
		C150.9,457.4,150.5,457.3,150,457.2 M155.2,445.6c-1.6-0.7-2.4-2.6-1.6-4.3c0.7-1.6,2.6-2.4,4.3-1.6c1.6,0.7,2.4,2.6,1.6,4.3
		c-0.5,1.2-1.7,1.9-3,1.9C156,445.9,155.6,445.8,155.2,445.6 M160.3,434c-1.6-0.7-2.4-2.6-1.6-4.3c0.7-1.6,2.6-2.4,4.3-1.6
		c1.6,0.7,2.4,2.6,1.6,4.3c-0.5,1.2-1.7,1.9-3,1.9C161.2,434.3,160.8,434.2,160.3,434 M165.5,422.4c-1.6-0.7-2.4-2.6-1.6-4.3
		c0.7-1.6,2.6-2.4,4.3-1.6c1.6,0.7,2.4,2.6,1.6,4.3c-0.5,1.2-1.7,1.9-3,1.9C166.4,422.7,165.9,422.6,165.5,422.4 M170.6,410.9
		c-1.6-0.7-2.4-2.6-1.6-4.3c0.7-1.6,2.6-2.4,4.3-1.6c1.6,0.7,2.4,2.6,1.6,4.3c-0.5,1.2-1.7,1.9-3,1.9
		C171.5,411.1,171.1,411.1,170.6,410.9 M175.8,399.3c-1.6-0.7-2.4-2.6-1.6-4.3c0.7-1.6,2.6-2.4,4.3-1.6c1.6,0.7,2.4,2.6,1.6,4.3
		c-0.5,1.2-1.7,1.9-3,1.9C176.7,399.6,176.2,399.5,175.8,399.3 M180.9,387.7c-1.6-0.7-2.4-2.6-1.6-4.3c0.7-1.6,2.6-2.4,4.3-1.6
		c1.6,0.7,2.4,2.6,1.6,4.3c-0.5,1.2-1.7,1.9-3,1.9C181.8,388,181.4,387.9,180.9,387.7"/>
	<path class="st0" d="M196.1,393.5c-1.7-0.6-2.6-2.4-2.1-4.1c0.6-1.7,2.4-2.6,4.1-2.1c1.7,0.6,2.6,2.4,2.1,4.1
		c-0.4,1.4-1.7,2.2-3.1,2.2C196.8,393.7,196.4,393.6,196.1,393.5"/>
	<path class="st0" d="M206.5,422.5c-1.8-0.4-2.9-2.1-2.5-3.8c0.4-1.8,2.1-2.9,3.8-2.5c1.8,0.4,2.9,2.1,2.5,3.8
		c-0.3,1.5-1.7,2.6-3.2,2.6C207,422.6,206.7,422.6,206.5,422.5 M209.1,410.1c-1.8-0.4-2.9-2.1-2.5-3.8c0.4-1.8,2.1-2.9,3.8-2.5
		c1.8,0.4,2.9,2.1,2.5,3.8c-0.3,1.5-1.7,2.6-3.2,2.6C209.6,410.2,209.4,410.2,209.1,410.1 M211.8,397.7c-1.8-0.4-2.9-2.1-2.5-3.8
		c0.4-1.7,2.1-2.9,3.8-2.5c1.8,0.4,2.9,2.1,2.5,3.8c-0.3,1.5-1.7,2.6-3.2,2.6C212.2,397.8,212,397.8,211.8,397.7"/>
	<path class="st0" d="M219.8,475.9c-1.8-0.2-3.1-1.8-2.9-3.6c0.2-1.8,1.8-3.1,3.6-2.9c1.8,0.2,3.1,1.8,2.9,3.6
		c-0.2,1.7-1.6,2.9-3.2,2.9C220.1,475.9,220,475.9,219.8,475.9 M221.2,463.3c-1.8-0.2-3.1-1.8-2.9-3.6c0.2-1.8,1.8-3.1,3.6-2.9
		c1.8,0.2,3.1,1.8,2.9,3.6c-0.2,1.7-1.6,2.9-3.2,2.9C221.4,463.3,221.3,463.3,221.2,463.3 M222.5,450.7c-1.8-0.2-3.1-1.8-2.9-3.6
		c0.2-1.8,1.8-3.1,3.6-2.9c1.8,0.2,3.1,1.8,2.9,3.6c-0.2,1.7-1.6,2.9-3.2,2.9C222.7,450.7,222.6,450.7,222.5,450.7 M223.8,438.1
		c-1.8-0.2-3.1-1.8-2.9-3.6c0.2-1.8,1.8-3.1,3.6-2.9c1.8,0.2,3.1,1.8,2.9,3.6c-0.2,1.7-1.6,2.9-3.2,2.9
		C224.1,438.1,223.9,438.1,223.8,438.1 M225.1,425.5c-1.8-0.2-3.1-1.8-2.9-3.6c0.2-1.8,1.8-3.1,3.6-2.9c1.8,0.2,3.1,1.8,2.9,3.6
		c-0.2,1.7-1.6,2.9-3.2,2.9C225.4,425.5,225.3,425.5,225.1,425.5 M226.5,412.9c-1.8-0.2-3.1-1.8-2.9-3.6c0.2-1.8,1.8-3.1,3.6-2.9
		c1.8,0.2,3.1,1.8,2.9,3.6c-0.2,1.7-1.6,2.9-3.2,2.9C226.7,412.9,226.6,412.9,226.5,412.9 M227.8,400.3c-1.8-0.2-3.1-1.8-2.9-3.6
		c0.2-1.8,1.8-3.1,3.6-2.9c1.8,0.2,3.1,1.8,2.9,3.6c-0.2,1.7-1.6,2.9-3.2,2.9C228,400.3,227.9,400.3,227.8,400.3"/>
	<path class="st0" d="M240.8,486.6c0-1.8,1.5-3.2,3.2-3.2c1.8,0,3.2,1.4,3.2,3.2c0,1.8-1.4,3.2-3.2,3.2
		C242.2,489.8,240.8,488.3,240.8,486.6 M240.8,473.9c0-1.8,1.5-3.2,3.2-3.2c1.8,0,3.2,1.4,3.2,3.2c0,1.8-1.4,3.2-3.2,3.2
		C242.2,477.1,240.8,475.7,240.8,473.9 M240.8,461.2c0-1.8,1.5-3.2,3.2-3.2c1.8,0,3.2,1.5,3.2,3.2c0,1.8-1.4,3.2-3.2,3.2
		C242.2,464.5,240.8,463,240.8,461.2 M240.8,448.5c0-1.8,1.5-3.2,3.2-3.2c1.8,0,3.2,1.4,3.2,3.2c0,1.8-1.4,3.2-3.2,3.2
		C242.2,451.8,240.8,450.3,240.8,448.5 M240.8,435.9c0-1.8,1.5-3.2,3.2-3.2c1.8,0,3.2,1.5,3.2,3.2c0,1.8-1.4,3.2-3.2,3.2
		C242.2,439.1,240.8,437.7,240.8,435.9 M240.8,423.2c0-1.8,1.5-3.2,3.2-3.2c1.8,0,3.2,1.5,3.2,3.2c0,1.8-1.4,3.2-3.2,3.2
		C242.2,426.5,240.8,425,240.8,423.2 M240.8,410.5c0-1.8,1.5-3.2,3.2-3.2c1.8,0,3.2,1.5,3.2,3.2c0,1.8-1.4,3.2-3.2,3.2
		C242.2,413.8,240.8,412.3,240.8,410.5 M240.8,397.9c0-1.8,1.5-3.2,3.2-3.2c1.8,0,3.2,1.5,3.2,3.2c0,1.8-1.4,3.2-3.2,3.2
		C242.2,401.1,240.8,399.7,240.8,397.9"/>
	<path class="st0" d="M263.3,460.4c-0.2-1.8,1.1-3.4,2.9-3.6c1.8-0.2,3.4,1.1,3.6,2.9c0.2,1.8-1.1,3.4-2.9,3.6c-0.1,0-0.2,0-0.3,0
		C264.9,463.3,263.4,462,263.3,460.4 M261.9,447.8c-0.2-1.8,1.1-3.4,2.9-3.6c1.8-0.2,3.4,1.1,3.6,2.9c0.2,1.8-1.1,3.4-2.9,3.6
		c-0.1,0-0.2,0-0.3,0C263.5,450.7,262.1,449.4,261.9,447.8 M260.6,435.2c-0.2-1.8,1.1-3.4,2.9-3.6c1.8-0.2,3.4,1.1,3.6,2.9
		c0.2,1.8-1.1,3.4-2.9,3.6c-0.1,0-0.2,0-0.3,0C262.2,438.1,260.8,436.8,260.6,435.2 M259.3,422.6c-0.2-1.8,1.1-3.4,2.9-3.6
		c1.8-0.2,3.4,1.1,3.6,2.9c0.2,1.8-1.1,3.4-2.9,3.6c-0.1,0-0.2,0-0.3,0C260.9,425.5,259.5,424.2,259.3,422.6 M258,410
		c-0.2-1.8,1.1-3.4,2.9-3.6c1.8-0.2,3.4,1.1,3.6,2.9c0.2,1.8-1.1,3.4-2.9,3.6c-0.1,0-0.2,0-0.3,0C259.5,412.9,258.1,411.6,258,410
		 M256.6,397.4c-0.2-1.8,1.1-3.4,2.9-3.6c1.8-0.2,3.4,1.1,3.6,2.9c0.2,1.8-1.1,3.4-2.9,3.6c-0.1,0-0.2,0-0.3,0
		C258.2,400.3,256.8,399,256.6,397.4"/>
	<path class="st0" d="M275,407.6c-0.4-1.8,0.7-3.5,2.5-3.8s3.5,0.7,3.8,2.5c0.4,1.7-0.7,3.5-2.5,3.8c-0.2,0-0.5,0.1-0.7,0.1
		C276.7,410.2,275.4,409.1,275,407.6 M272.4,395.2c-0.4-1.8,0.7-3.5,2.5-3.8c1.8-0.4,3.5,0.7,3.8,2.5c0.4,1.8-0.7,3.5-2.5,3.8
		c-0.2,0-0.5,0.1-0.7,0.1C274.1,397.8,272.7,396.8,272.4,395.2"/>
	<path class="st0" d="M311.3,463.7c-0.6-1.7,0.4-3.5,2.1-4.1c1.7-0.6,3.5,0.4,4.1,2.1c0.6,1.7-0.4,3.5-2.1,4.1
		c-0.3,0.1-0.7,0.2-1,0.2C313,466,311.8,465.1,311.3,463.7 M307.4,451.7c-0.6-1.7,0.4-3.5,2.1-4.1c1.7-0.6,3.5,0.4,4.1,2.1
		c0.6,1.7-0.4,3.5-2.1,4.1c-0.3,0.1-0.7,0.2-1,0.2C309.1,453.9,307.8,453.1,307.4,451.7 M303.5,439.6c-0.6-1.7,0.4-3.5,2.1-4.1
		c1.7-0.6,3.5,0.4,4.1,2.1c0.5,1.7-0.4,3.5-2.1,4.1c-0.3,0.1-0.7,0.2-1,0.2C305.2,441.9,303.9,441,303.5,439.6 M299.6,427.6
		c-0.6-1.7,0.4-3.5,2.1-4.1c1.7-0.5,3.5,0.4,4.1,2.1c0.6,1.7-0.4,3.5-2.1,4.1c-0.3,0.1-0.7,0.2-1,0.2
		C301.3,429.8,300,429,299.6,427.6 M295.7,415.5c-0.5-1.7,0.4-3.5,2.1-4.1c1.7-0.6,3.5,0.4,4.1,2.1c0.6,1.7-0.4,3.5-2.1,4.1
		c-0.3,0.1-0.7,0.2-1,0.2C297.4,417.8,296.1,416.9,295.7,415.5 M291.7,403.5c-0.6-1.7,0.4-3.5,2.1-4.1c1.7-0.6,3.5,0.4,4.1,2.1
		c0.6,1.7-0.4,3.5-2.1,4.1c-0.3,0.1-0.7,0.2-1,0.2C293.5,405.7,292.2,404.9,291.7,403.5 M287.8,391.4c-0.6-1.7,0.4-3.5,2.1-4.1
		c1.7-0.6,3.5,0.4,4.1,2.1c0.6,1.7-0.4,3.5-2.1,4.1c-0.3,0.1-0.7,0.2-1,0.2C289.5,393.7,288.3,392.8,287.8,391.4"/>
	<path class="st0" d="M349.2,490.2c-0.7-1.6,0-3.5,1.6-4.3c1.6-0.7,3.6,0,4.3,1.6c0.7,1.6,0,3.6-1.6,4.3c-0.4,0.2-0.9,0.3-1.3,0.3
		C350.9,492.1,349.7,491.4,349.2,490.2 M344,478.7c-0.7-1.6,0-3.5,1.6-4.3c1.6-0.7,3.5,0,4.3,1.6c0.7,1.6,0,3.6-1.6,4.3
		c-0.4,0.2-0.9,0.3-1.3,0.3C345.7,480.6,344.5,479.9,344,478.7 M338.8,467.1c-0.7-1.6,0-3.5,1.6-4.3c1.6-0.7,3.6,0,4.3,1.6
		c0.7,1.6,0,3.5-1.6,4.3c-0.4,0.2-0.9,0.3-1.3,0.3C340.6,469,339.4,468.3,338.8,467.1 M333.7,455.5c-0.7-1.6,0-3.6,1.6-4.3
		c1.6-0.7,3.5,0,4.3,1.6c0.7,1.6,0,3.5-1.6,4.3c-0.4,0.2-0.9,0.3-1.3,0.3C335.4,457.4,334.2,456.7,333.7,455.5 M328.5,443.9
		c-0.7-1.6,0-3.6,1.6-4.3c1.6-0.7,3.6,0,4.3,1.6c0.7,1.6,0,3.5-1.6,4.3c-0.4,0.2-0.9,0.3-1.3,0.3
		C330.3,445.9,329.1,445.1,328.5,443.9 M323.4,432.4c-0.7-1.6,0-3.6,1.6-4.3c1.6-0.7,3.5,0,4.3,1.6c0.7,1.6,0,3.5-1.6,4.3
		c-0.4,0.2-0.9,0.3-1.3,0.3C325.1,434.3,323.9,433.6,323.4,432.4 M318.2,420.8c-0.7-1.6,0-3.6,1.6-4.3c1.6-0.7,3.6,0,4.3,1.6
		c0.7,1.6,0,3.6-1.6,4.3c-0.4,0.2-0.9,0.3-1.3,0.3C320,422.7,318.8,422,318.2,420.8 M313.1,409.2c-0.7-1.6,0-3.6,1.6-4.3
		c1.6-0.7,3.5,0,4.3,1.6c0.7,1.6,0,3.6-1.6,4.3c-0.4,0.2-0.9,0.3-1.3,0.3C314.8,411.1,313.6,410.4,313.1,409.2 M307.9,397.6
		c-0.7-1.6,0-3.6,1.6-4.3c1.6-0.7,3.6,0,4.3,1.6c0.7,1.6,0,3.6-1.6,4.3c-0.4,0.2-0.9,0.3-1.3,0.3
		C309.7,399.6,308.5,398.8,307.9,397.6 M302.8,386.1c-0.7-1.6,0-3.5,1.6-4.3c1.6-0.7,3.6,0,4.3,1.6c0.7,1.6,0,3.5-1.6,4.3
		c-0.4,0.2-0.9,0.3-1.3,0.3C304.5,388,303.3,387.3,302.8,386.1"/>
	<path class="st0" d="M323.4,390.1c-0.9-1.5-0.4-3.5,1.2-4.4c1.5-0.9,3.5-0.4,4.4,1.2c0.9,1.5,0.4,3.5-1.2,4.4
		c-0.5,0.3-1.1,0.4-1.6,0.4C325.1,391.8,324,391.2,323.4,390.1 M317.1,379.2c-0.9-1.5-0.4-3.5,1.2-4.4c1.6-0.9,3.5-0.4,4.4,1.2
		c0.9,1.5,0.4,3.5-1.2,4.4c-0.5,0.3-1.1,0.4-1.6,0.4C318.8,380.8,317.7,380.2,317.1,379.2"/>
	<path class="st0" d="M382.7,442.5c-1-1.5-0.7-3.5,0.7-4.5c1.5-1,3.5-0.7,4.5,0.7c1.1,1.4,0.7,3.5-0.7,4.5c-0.6,0.4-1.2,0.6-1.9,0.6
		C384.4,443.9,383.4,443.4,382.7,442.5 M375.3,432.3c-1.1-1.5-0.7-3.5,0.7-4.5c1.5-1.1,3.5-0.7,4.5,0.7c1.1,1.4,0.7,3.5-0.7,4.5
		c-0.6,0.4-1.2,0.6-1.9,0.6C376.9,433.6,375.9,433.2,375.3,432.3 M367.8,422c-1.1-1.4-0.7-3.5,0.7-4.5c1.4-1.1,3.5-0.7,4.5,0.7
		c1,1.5,0.7,3.5-0.7,4.5c-0.6,0.4-1.2,0.6-1.9,0.6C369.5,423.4,368.5,422.9,367.8,422 M360.4,411.8c-1.1-1.4-0.7-3.5,0.7-4.5
		c1.4-1,3.5-0.7,4.5,0.7c1.1,1.5,0.7,3.5-0.7,4.5c-0.6,0.4-1.2,0.6-1.9,0.6C362,413.1,361,412.7,360.4,411.8 M352.9,401.5
		c-1-1.5-0.7-3.5,0.7-4.5c1.4-1.1,3.5-0.7,4.5,0.7c1.1,1.4,0.7,3.5-0.7,4.5c-0.6,0.4-1.2,0.6-1.9,0.6
		C354.6,402.9,353.6,402.4,352.9,401.5 M345.5,391.3c-1.1-1.4-0.7-3.5,0.7-4.5c1.5-1,3.5-0.7,4.5,0.7c1,1.4,0.7,3.5-0.7,4.5
		c-0.6,0.4-1.2,0.6-1.9,0.6C347.1,392.6,346.1,392.2,345.5,391.3 M338.1,381c-1-1.4-0.7-3.5,0.7-4.5c1.4-1,3.5-0.7,4.5,0.7
		c1.1,1.4,0.7,3.5-0.7,4.5c-0.6,0.4-1.2,0.6-1.9,0.6C339.7,382.4,338.7,381.9,338.1,381 M330.6,370.8c-1-1.4-0.7-3.5,0.7-4.5
		c1.4-1.1,3.5-0.7,4.5,0.7c1.1,1.5,0.7,3.5-0.7,4.5c-0.6,0.4-1.2,0.6-1.9,0.6C332.2,372.1,331.2,371.7,330.6,370.8"/>
	<path class="st0" d="M427.9,455.2c-1.2-1.3-1.1-3.4,0.2-4.6c1.3-1.2,3.4-1.1,4.6,0.2c1.2,1.3,1.1,3.4-0.2,4.6
		c-0.6,0.6-1.4,0.8-2.2,0.8C429.5,456.3,428.6,455.9,427.9,455.2 M419.5,445.8c-1.2-1.3-1.1-3.4,0.2-4.6c1.3-1.2,3.4-1.1,4.6,0.2
		c1.2,1.3,1.1,3.4-0.2,4.6c-0.6,0.6-1.4,0.8-2.2,0.8C421,446.9,420.1,446.5,419.5,445.8 M411,436.4c-1.2-1.3-1.1-3.4,0.2-4.6
		c1.3-1.2,3.4-1.1,4.6,0.2c1.2,1.3,1.1,3.4-0.2,4.6c-0.6,0.6-1.4,0.8-2.2,0.8C412.5,437.4,411.6,437.1,411,436.4 M402.5,427
		c-1.2-1.3-1.1-3.4,0.2-4.6c1.3-1.2,3.4-1.1,4.6,0.2c1.2,1.3,1.1,3.4-0.2,4.6c-0.6,0.6-1.4,0.8-2.2,0.8
		C404,428,403.1,427.7,402.5,427 M394,417.5c-1.2-1.3-1.1-3.4,0.2-4.6c1.3-1.2,3.4-1.1,4.6,0.2c1.2,1.3,1.1,3.4-0.2,4.6
		c-0.6,0.6-1.4,0.8-2.2,0.8C395.6,418.6,394.7,418.3,394,417.5 M385.5,408.1c-1.2-1.3-1.1-3.4,0.2-4.6c1.3-1.2,3.4-1.1,4.6,0.2
		c1.2,1.3,1.1,3.4-0.2,4.6c-0.6,0.6-1.4,0.8-2.2,0.8C387.1,409.2,386.2,408.8,385.5,408.1 M377.1,398.7c-1.2-1.3-1.1-3.4,0.2-4.6
		c1.3-1.2,3.4-1.1,4.6,0.2c1.2,1.3,1.1,3.4-0.2,4.6c-0.6,0.6-1.4,0.8-2.2,0.8C378.6,399.8,377.7,399.4,377.1,398.7 M368.6,389.3
		c-1.2-1.3-1.1-3.4,0.2-4.6c1.3-1.2,3.4-1.1,4.6,0.2c1.2,1.3,1.1,3.4-0.2,4.6c-0.6,0.6-1.4,0.8-2.2,0.8
		C370.1,390.4,369.2,390,368.6,389.3 M360.1,379.9c-1.2-1.3-1.1-3.4,0.2-4.6c1.3-1.2,3.4-1.1,4.6,0.2c1.2,1.3,1.1,3.4-0.2,4.6
		c-0.6,0.6-1.4,0.8-2.2,0.8C361.6,381,360.8,380.6,360.1,379.9 M351.6,370.5c-1.2-1.3-1.1-3.4,0.2-4.6c1.3-1.2,3.4-1.1,4.6,0.2
		c1.2,1.3,1.1,3.4-0.2,4.6c-0.6,0.6-1.4,0.8-2.2,0.8C353.2,371.5,352.3,371.2,351.6,370.5 M343.2,361.1c-1.2-1.3-1.1-3.4,0.2-4.6
		c1.3-1.2,3.4-1.1,4.6,0.2c1.2,1.3,1.1,3.4-0.2,4.6c-0.6,0.6-1.4,0.8-2.2,0.8C344.7,362.1,343.8,361.8,343.2,361.1"/>
	<path class="st0" d="M411.1,400.9c-1.3-1.2-1.4-3.2-0.2-4.6c1.2-1.3,3.2-1.4,4.6-0.2c1.3,1.2,1.4,3.2,0.2,4.6
		c-0.6,0.7-1.5,1.1-2.4,1.1C412.5,401.7,411.7,401.5,411.1,400.9 M401.7,392.4c-1.3-1.2-1.4-3.2-0.2-4.6c1.2-1.3,3.2-1.4,4.6-0.2
		c1.3,1.2,1.4,3.2,0.2,4.6c-0.6,0.7-1.5,1.1-2.4,1.1C403.1,393.3,402.3,393,401.7,392.4 M392.3,384c-1.3-1.2-1.4-3.2-0.2-4.6
		c1.2-1.3,3.2-1.4,4.6-0.2c1.3,1.2,1.4,3.2,0.2,4.6c-0.6,0.7-1.5,1.1-2.4,1.1C393.7,384.8,392.9,384.5,392.3,384 M382.9,375.5
		c-1.3-1.2-1.4-3.2-0.2-4.6c1.2-1.3,3.2-1.4,4.6-0.2c1.3,1.2,1.4,3.2,0.2,4.6c-0.6,0.7-1.5,1.1-2.4,1.1
		C384.3,376.3,383.5,376,382.9,375.5 M373.5,367c-1.3-1.2-1.4-3.2-0.2-4.6c1.2-1.3,3.2-1.4,4.6-0.2c1.3,1.2,1.4,3.2,0.2,4.6
		c-0.6,0.7-1.5,1.1-2.4,1.1C374.9,367.8,374.1,367.6,373.5,367 M364.1,358.5c-1.3-1.2-1.4-3.2-0.2-4.6c1.2-1.3,3.2-1.4,4.6-0.2
		c1.3,1.2,1.4,3.2,0.2,4.6c-0.6,0.7-1.5,1.1-2.4,1.1C365.5,359.4,364.7,359.1,364.1,358.5 M354.6,350.1c-1.3-1.2-1.4-3.2-0.2-4.6
		c1.2-1.3,3.2-1.4,4.6-0.2c1.3,1.2,1.4,3.2,0.2,4.6c-0.6,0.7-1.5,1.1-2.4,1.1C356,350.9,355.3,350.6,354.6,350.1"/>
	<path class="st0" d="M364.9,337.9c-1.4-1.1-1.8-3.1-0.7-4.5c1.1-1.4,3.1-1.8,4.5-0.7c1.4,1,1.8,3.1,0.7,4.5
		c-0.6,0.9-1.6,1.3-2.6,1.3C366.1,338.5,365.5,338.3,364.9,337.9"/>
	<path class="st0" d="M395.8,337.4c-1.6-0.9-2.1-2.9-1.2-4.4c0.9-1.5,2.9-2.1,4.4-1.2c1.5,0.9,2.1,2.9,1.2,4.4
		c-0.6,1-1.7,1.6-2.8,1.6C396.9,337.9,396.3,337.7,395.8,337.4 M384.8,331.1c-1.5-0.9-2.1-2.9-1.2-4.4c0.9-1.5,2.9-2.1,4.4-1.2
		c1.6,0.9,2.1,2.9,1.2,4.4c-0.6,1-1.7,1.6-2.8,1.6C385.9,331.6,385.3,331.4,384.8,331.1 M373.8,324.8c-1.6-0.9-2.1-2.9-1.2-4.4
		c0.9-1.5,2.9-2.1,4.4-1.2c1.5,0.9,2.1,2.9,1.2,4.4c-0.6,1-1.7,1.6-2.8,1.6C374.9,325.2,374.4,325.1,373.8,324.8"/>
	<path class="st0" d="M473.9,352c-1.6-0.7-2.4-2.6-1.6-4.3c0.7-1.6,2.6-2.4,4.3-1.6c1.6,0.7,2.4,2.6,1.6,4.3c-0.5,1.2-1.7,1.9-3,1.9
		C474.8,352.3,474.4,352.2,473.9,352 M462.4,346.8c-1.6-0.7-2.4-2.6-1.6-4.3c0.7-1.6,2.6-2.4,4.3-1.6c1.6,0.7,2.4,2.6,1.6,4.3
		c-0.5,1.2-1.7,1.9-3,1.9C463.2,347.1,462.8,347,462.4,346.8 M450.8,341.7c-1.6-0.7-2.4-2.6-1.6-4.3c0.7-1.6,2.6-2.4,4.3-1.6
		c1.6,0.7,2.4,2.6,1.6,4.3c-0.5,1.2-1.7,1.9-3,1.9C451.7,342,451.2,341.9,450.8,341.7 M439.2,336.5c-1.6-0.7-2.4-2.6-1.6-4.3
		c0.7-1.6,2.6-2.4,4.3-1.6c1.6,0.7,2.4,2.6,1.6,4.3c-0.5,1.2-1.7,1.9-3,1.9C440.1,336.8,439.7,336.7,439.2,336.5 M427.6,331.4
		c-1.6-0.7-2.4-2.6-1.6-4.3c0.7-1.6,2.6-2.4,4.3-1.6c1.6,0.7,2.4,2.6,1.6,4.3c-0.5,1.2-1.7,1.9-3,1.9
		C428.5,331.7,428.1,331.6,427.6,331.4 M416.1,326.2c-1.6-0.7-2.4-2.6-1.6-4.3c0.7-1.6,2.6-2.4,4.3-1.6c1.6,0.7,2.4,2.6,1.6,4.3
		c-0.5,1.2-1.7,1.9-3,1.9C417,326.5,416.5,326.4,416.1,326.2 M404.5,321.1c-1.6-0.7-2.4-2.6-1.6-4.3c0.7-1.6,2.6-2.4,4.3-1.6
		c1.6,0.7,2.4,2.6,1.6,4.3c-0.5,1.2-1.7,1.9-3,1.9C405.4,321.4,404.9,321.3,404.5,321.1 M392.9,315.9c-1.6-0.7-2.4-2.6-1.6-4.3
		c0.7-1.6,2.6-2.4,4.3-1.6c1.6,0.7,2.4,2.6,1.6,4.3c-0.5,1.2-1.7,1.9-3,1.9C393.8,316.2,393.4,316.1,392.9,315.9 M381.4,310.8
		c-1.6-0.7-2.4-2.6-1.6-4.3c0.7-1.6,2.6-2.4,4.3-1.6c1.6,0.7,2.4,2.6,1.6,4.3c-0.5,1.2-1.7,1.9-3,1.9
		C382.2,311.1,381.8,311,381.4,310.8"/>
	<path class="st0" d="M435.6,311.7c-1.7-0.6-2.6-2.4-2.1-4.1c0.6-1.7,2.4-2.6,4.1-2.1c1.7,0.6,2.6,2.4,2.1,4.1
		c-0.4,1.4-1.7,2.2-3.1,2.2C436.2,311.9,435.9,311.8,435.6,311.7 M423.5,307.8c-1.7-0.6-2.6-2.4-2.1-4.1c0.6-1.7,2.4-2.6,4.1-2.1
		c1.7,0.6,2.6,2.4,2.1,4.1c-0.4,1.4-1.7,2.2-3.1,2.2C424.2,308,423.8,307.9,423.5,307.8 M411.5,303.9c-1.7-0.6-2.6-2.4-2.1-4.1
		c0.6-1.7,2.4-2.6,4.1-2.1c1.7,0.6,2.6,2.4,2.1,4.1c-0.4,1.4-1.7,2.2-3.1,2.2C412.1,304.1,411.8,304,411.5,303.9 M399.4,300
		c-1.7-0.6-2.6-2.4-2.1-4.1c0.6-1.7,2.4-2.6,4.1-2.1c1.7,0.6,2.6,2.4,2.1,4.1c-0.4,1.4-1.7,2.2-3.1,2.2
		C400.1,300.1,399.8,300.1,399.4,300 M387.4,296.1c-1.7-0.5-2.6-2.4-2.1-4.1c0.6-1.7,2.4-2.6,4.1-2.1c1.7,0.6,2.6,2.4,2.1,4.1
		c-0.4,1.4-1.7,2.2-3.1,2.2C388,296.2,387.7,296.2,387.4,296.1"/>
	<path class="st0" d="M478.6,299.2c-1.8-0.4-2.9-2.1-2.5-3.8c0.4-1.7,2.1-2.9,3.8-2.5c1.7,0.4,2.9,2.1,2.5,3.8
		c-0.3,1.5-1.7,2.6-3.2,2.6C479,299.3,478.8,299.3,478.6,299.2 M466.2,296.6c-1.8-0.4-2.9-2.1-2.5-3.8c0.4-1.8,2.1-2.9,3.8-2.5
		c1.8,0.4,2.9,2.1,2.5,3.8c-0.3,1.5-1.7,2.6-3.2,2.6C466.6,296.7,466.4,296.7,466.2,296.6 M453.8,294c-1.7-0.4-2.9-2.1-2.5-3.8
		c0.4-1.8,2.1-2.9,3.8-2.5c1.7,0.4,2.9,2.1,2.5,3.8c-0.3,1.5-1.7,2.6-3.2,2.6C454.2,294,454,294,453.8,294 M441.4,291.3
		c-1.8-0.4-2.9-2.1-2.5-3.8c0.4-1.8,2.1-2.9,3.8-2.5c1.8,0.4,2.9,2.1,2.5,3.8c-0.3,1.5-1.7,2.6-3.2,2.6
		C441.8,291.4,441.6,291.4,441.4,291.3 M429,288.7c-1.8-0.4-2.9-2.1-2.5-3.8c0.4-1.8,2.1-2.9,3.8-2.5c1.8,0.4,2.9,2.1,2.5,3.8
		c-0.3,1.5-1.7,2.6-3.2,2.6C429.4,288.8,429.2,288.8,429,288.7 M416.6,286.1c-1.8-0.4-2.9-2.1-2.5-3.8c0.4-1.8,2.1-2.9,3.8-2.5
		c1.8,0.4,2.9,2.1,2.5,3.8c-0.3,1.5-1.7,2.6-3.2,2.6C417,286.1,416.8,286.1,416.6,286.1 M404.2,283.4c-1.8-0.4-2.9-2.1-2.5-3.8
		c0.4-1.8,2.1-2.9,3.8-2.5c1.8,0.4,2.9,2.1,2.5,3.8c-0.3,1.5-1.7,2.6-3.2,2.6C404.7,283.5,404.4,283.5,404.2,283.4 M391.8,280.8
		c-1.8-0.4-2.9-2.1-2.5-3.8c0.4-1.7,2.1-2.9,3.8-2.5c1.8,0.4,2.9,2.1,2.5,3.8c-0.3,1.5-1.7,2.6-3.2,2.6
		C392.3,280.9,392,280.9,391.8,280.8"/>
	<path class="st0" d="M407.2,266.5c-1.8-0.2-3.1-1.8-2.9-3.6c0.2-1.8,1.8-3.1,3.6-2.9c1.8,0.2,3.1,1.8,2.9,3.6
		c-0.2,1.7-1.6,2.9-3.2,2.9C407.5,266.5,407.3,266.5,407.2,266.5 M394.6,265.2c-1.8-0.2-3.1-1.8-2.9-3.6c0.2-1.8,1.8-3.1,3.6-2.9
		c1.8,0.2,3.1,1.8,2.9,3.6c-0.2,1.7-1.6,2.9-3.2,2.9C394.9,265.2,394.7,265.2,394.6,265.2"/>
	<path class="st0" d="M392.6,246.1c0-1.8,1.5-3.2,3.2-3.2c1.8,0,3.2,1.5,3.2,3.2c0,1.8-1.5,3.2-3.2,3.2
		C394,249.3,392.6,247.9,392.6,246.1"/>
	<path class="st0" d="M391.8,230.5c-0.2-1.8,1.1-3.4,2.9-3.6c1.8-0.2,3.4,1.1,3.6,2.9c0.2,1.8-1.1,3.4-2.9,3.6c-0.1,0-0.2,0-0.3,0
		C393.3,233.5,391.9,232.2,391.8,230.5 M404.3,229.2c-0.2-1.8,1.1-3.4,2.9-3.6c1.8-0.2,3.4,1.1,3.6,2.9c0.2,1.8-1.1,3.4-2.9,3.6
		c-0.1,0-0.2,0-0.3,0C405.9,232.1,404.5,230.9,404.3,229.2 M416.9,227.9c-0.2-1.8,1.1-3.4,2.9-3.6c1.8-0.2,3.4,1.1,3.6,2.9
		c0.2,1.8-1.1,3.4-2.9,3.6c-0.1,0-0.2,0-0.3,0C418.5,230.8,417.1,229.6,416.9,227.9 M429.5,226.6c-0.2-1.8,1.1-3.4,2.9-3.6
		c1.8-0.2,3.4,1.1,3.6,2.9c0.2,1.8-1.1,3.4-2.9,3.6c-0.1,0-0.2,0-0.3,0C431.1,229.5,429.7,228.2,429.5,226.6 M442.1,225.2
		c-0.2-1.8,1.1-3.4,2.9-3.6c1.8-0.2,3.4,1.1,3.6,2.9c0.2,1.8-1.1,3.4-2.9,3.6c-0.1,0-0.2,0-0.3,0
		C443.7,228.2,442.3,226.9,442.1,225.2 M454.7,223.9c-0.2-1.8,1.1-3.4,2.9-3.6c1.8-0.2,3.4,1.1,3.6,2.9c0.2,1.8-1.1,3.4-2.9,3.6
		c-0.1,0-0.2,0-0.3,0C456.3,226.8,454.9,225.6,454.7,223.9 M467.3,222.6c-0.2-1.8,1.1-3.4,2.9-3.6c1.8-0.2,3.4,1.1,3.6,2.9
		c0.2,1.8-1.1,3.4-2.9,3.6c-0.1,0-0.2,0-0.3,0C468.9,225.5,467.5,224.3,467.3,222.6 M479.9,221.3c-0.2-1.8,1.1-3.4,2.9-3.6
		c1.8-0.2,3.4,1.1,3.6,2.9c0.2,1.8-1.1,3.4-2.9,3.6c-0.1,0-0.2,0-0.3,0C481.5,224.2,480.1,222.9,479.9,221.3"/>
	<path class="st0" d="M389.3,215.2c-0.4-1.8,0.7-3.5,2.5-3.8c1.8-0.4,3.5,0.7,3.8,2.5c0.4,1.8-0.7,3.5-2.5,3.8
		c-0.2,0-0.5,0.1-0.7,0.1C391,217.8,389.6,216.7,389.3,215.2 M401.7,212.6c-0.4-1.8,0.7-3.5,2.5-3.8c1.8-0.4,3.5,0.7,3.8,2.5
		c0.4,1.8-0.7,3.5-2.5,3.8c-0.2,0-0.5,0.1-0.7,0.1C403.4,215.1,402,214.1,401.7,212.6 M414.1,209.9c-0.4-1.8,0.7-3.5,2.5-3.8
		c1.8-0.4,3.5,0.7,3.8,2.5c0.4,1.7-0.8,3.5-2.5,3.8c-0.2,0-0.5,0.1-0.7,0.1C415.8,212.5,414.4,211.4,414.1,209.9 M426.5,207.3
		c-0.4-1.7,0.7-3.5,2.5-3.8c1.7-0.4,3.5,0.7,3.8,2.5c0.4,1.8-0.7,3.5-2.5,3.8c-0.2,0-0.5,0.1-0.7,0.1
		C428.2,209.9,426.8,208.8,426.5,207.3 M438.9,204.7c-0.4-1.8,0.7-3.5,2.5-3.8c1.8-0.4,3.5,0.7,3.8,2.5c0.4,1.8-0.7,3.5-2.5,3.8
		c-0.2,0-0.5,0.1-0.7,0.1C440.5,207.2,439.2,206.2,438.9,204.7 M451.3,202c-0.4-1.7,0.7-3.5,2.5-3.8c1.7-0.4,3.5,0.7,3.8,2.5
		c0.4,1.8-0.7,3.5-2.5,3.8c-0.2,0-0.5,0.1-0.7,0.1C452.9,204.6,451.6,203.5,451.3,202 M463.7,199.4c-0.4-1.8,0.7-3.5,2.5-3.8
		c1.8-0.4,3.5,0.7,3.8,2.5c0.4,1.8-0.8,3.5-2.5,3.8c-0.2,0-0.5,0.1-0.7,0.1C465.3,202,464,200.9,463.7,199.4"/>
	<path class="st0" d="M385.3,200.2c-0.6-1.7,0.4-3.5,2.1-4.1c1.7-0.6,3.5,0.4,4.1,2.1c0.6,1.7-0.4,3.5-2.1,4.1
		c-0.3,0.1-0.7,0.2-1,0.2C387,202.4,385.7,201.5,385.3,200.2 M397.3,196.2c-0.5-1.7,0.4-3.5,2.1-4.1c1.7-0.5,3.5,0.4,4.1,2.1
		c0.6,1.7-0.4,3.5-2.1,4.1c-0.3,0.1-0.7,0.2-1,0.2C399.1,198.5,397.8,197.6,397.3,196.2 M409.4,192.3c-0.6-1.7,0.4-3.5,2.1-4.1
		c1.7-0.6,3.5,0.4,4.1,2.1c0.6,1.7-0.4,3.5-2.1,4.1c-0.3,0.1-0.7,0.2-1,0.2C411.1,194.6,409.8,193.7,409.4,192.3 M421.4,188.4
		c-0.6-1.7,0.4-3.5,2.1-4.1c1.7-0.6,3.5,0.4,4.1,2.1c0.6,1.7-0.4,3.5-2.1,4.1c-0.3,0.1-0.7,0.2-1,0.2
		C423.1,190.7,421.9,189.8,421.4,188.4 M433.5,184.5c-0.6-1.7,0.4-3.5,2.1-4.1c1.7-0.6,3.5,0.4,4.1,2.1c0.6,1.7-0.4,3.5-2.1,4.1
		c-0.3,0.1-0.7,0.2-1,0.2C435.2,186.8,433.9,185.9,433.5,184.5"/>
	<path class="st0" d="M379.7,185.6c-0.7-1.6,0-3.6,1.6-4.3c1.6-0.7,3.5,0,4.3,1.6c0.7,1.6,0,3.5-1.6,4.3c-0.4,0.2-0.9,0.3-1.3,0.3
		C381.4,187.6,380.3,186.9,379.7,185.6"/>
	<path class="st0" d="M372.7,171.8c-0.9-1.5-0.4-3.5,1.2-4.4c1.5-0.9,3.5-0.4,4.4,1.2c0.9,1.5,0.4,3.5-1.2,4.4
		c-0.5,0.3-1.1,0.4-1.6,0.4C374.3,173.4,373.3,172.8,372.7,171.8 M383.6,165.5c-0.9-1.5-0.4-3.5,1.2-4.4c1.6-0.9,3.5-0.4,4.4,1.2
		c0.9,1.5,0.4,3.5-1.2,4.4c-0.5,0.3-1.1,0.4-1.6,0.4C385.3,167.1,384.2,166.5,383.6,165.5 M394.6,159.1c-0.9-1.5-0.4-3.5,1.2-4.4
		c1.5-0.9,3.5-0.4,4.4,1.2c0.9,1.5,0.4,3.5-1.2,4.4c-0.5,0.3-1.1,0.4-1.6,0.4C396.3,160.7,395.2,160.2,394.6,159.1 M405.6,152.8
		c-0.9-1.5-0.4-3.5,1.2-4.4c1.6-0.9,3.5-0.4,4.4,1.2c0.9,1.5,0.4,3.5-1.2,4.4c-0.5,0.3-1.1,0.4-1.6,0.4
		C407.3,154.4,406.2,153.8,405.6,152.8 M416.5,146.5c-0.9-1.5-0.4-3.5,1.2-4.4c1.6-0.9,3.5-0.4,4.4,1.2c0.9,1.5,0.4,3.5-1.2,4.4
		c-0.5,0.3-1.1,0.4-1.6,0.4C418.2,148.1,417.1,147.5,416.5,146.5 M427.5,140.1c-0.9-1.5-0.4-3.5,1.2-4.4c1.6-0.9,3.5-0.4,4.4,1.2
		c0.9,1.5,0.4,3.5-1.2,4.4c-0.5,0.3-1.1,0.4-1.6,0.4C429.2,141.7,428.1,141.2,427.5,140.1 M438.5,133.8c-0.9-1.5-0.4-3.5,1.2-4.4
		c1.5-0.9,3.5-0.4,4.4,1.2c0.9,1.5,0.4,3.5-1.2,4.4c-0.5,0.3-1.1,0.4-1.6,0.4C440.2,135.4,439.1,134.8,438.5,133.8"/>
	<path class="st0" d="M364.2,158.8c-1-1.4-0.7-3.5,0.7-4.5c1.4-1,3.5-0.7,4.5,0.7c1.1,1.4,0.7,3.5-0.7,4.5c-0.6,0.4-1.2,0.6-1.9,0.6
		C365.8,160.1,364.8,159.6,364.2,158.8 M374.4,151.3c-1.1-1.4-0.7-3.5,0.7-4.5c1.4-1.1,3.5-0.7,4.5,0.7c1,1.4,0.7,3.5-0.7,4.5
		c-0.6,0.4-1.2,0.6-1.9,0.6C376.1,152.6,375.1,152.2,374.4,151.3 M384.7,143.9c-1.1-1.4-0.7-3.5,0.7-4.5c1.4-1,3.5-0.7,4.5,0.7
		c1,1.4,0.7,3.5-0.7,4.5c-0.6,0.4-1.2,0.6-1.9,0.6C386.3,145.2,385.3,144.7,384.7,143.9 M394.9,136.4c-1-1.4-0.7-3.5,0.7-4.5
		c1.4-1,3.5-0.7,4.5,0.7c1.1,1.4,0.7,3.5-0.7,4.5c-0.6,0.4-1.2,0.6-1.9,0.6C396.6,137.7,395.6,137.3,394.9,136.4 M405.2,129
		c-1.1-1.4-0.7-3.5,0.7-4.5c1.4-1.1,3.5-0.7,4.5,0.7c1,1.4,0.7,3.5-0.7,4.5c-0.6,0.4-1.2,0.6-1.9,0.6
		C406.8,130.3,405.8,129.8,405.2,129 M415.4,121.5c-1-1.4-0.7-3.5,0.7-4.5c1.4-1.1,3.5-0.7,4.5,0.7c1.1,1.5,0.7,3.5-0.7,4.5
		c-0.6,0.4-1.2,0.6-1.9,0.6C417.1,122.9,416.1,122.4,415.4,121.5 M425.7,114.1c-1.1-1.4-0.7-3.5,0.7-4.5c1.4-1,3.5-0.7,4.5,0.7
		c1.1,1.4,0.7,3.5-0.7,4.5c-0.6,0.4-1.2,0.6-1.9,0.6C427.3,115.4,426.3,115,425.7,114.1 M435.9,106.6c-1.1-1.4-0.7-3.5,0.7-4.5
		c1.4-1,3.5-0.7,4.5,0.7c1,1.4,0.7,3.5-0.7,4.5c-0.6,0.4-1.2,0.6-1.9,0.6C437.5,108,436.6,107.5,435.9,106.6 M446.2,99.2
		c-1-1.5-0.7-3.5,0.7-4.5c1.4-1.1,3.5-0.7,4.5,0.7c1.1,1.4,0.7,3.5-0.7,4.5c-0.6,0.4-1.2,0.6-1.9,0.6
		C447.8,100.5,446.8,100.1,446.2,99.2 M456.4,91.7c-1.1-1.4-0.7-3.5,0.7-4.5c1.4-1.1,3.5-0.7,4.5,0.7c1,1.4,0.7,3.5-0.7,4.5
		c-0.6,0.4-1.2,0.6-1.9,0.6C458,93.1,457.1,92.6,456.4,91.7 M466.7,84.3c-1-1.4-0.7-3.5,0.7-4.5c1.4-1,3.5-0.7,4.5,0.7
		c1.1,1.4,0.7,3.5-0.7,4.5c-0.6,0.4-1.2,0.6-1.9,0.6C468.3,85.6,467.3,85.2,466.7,84.3"/>
	<path class="st0" d="M354.4,146.7c-1.2-1.3-1.1-3.4,0.2-4.6c1.3-1.2,3.4-1.1,4.6,0.2c1.2,1.3,1.1,3.4-0.2,4.6
		c-0.6,0.6-1.4,0.8-2.2,0.8C355.9,147.7,355,147.4,354.4,146.7 M363.8,138.2c-1.2-1.3-1.1-3.4,0.2-4.6c1.3-1.2,3.4-1.1,4.6,0.2
		c1.2,1.3,1.1,3.4-0.2,4.6c-0.6,0.6-1.4,0.8-2.2,0.8C365.3,139.3,364.5,138.9,363.8,138.2 M373.2,129.7c-1.2-1.3-1.1-3.4,0.2-4.6
		c1.3-1.2,3.4-1.1,4.6,0.2c1.2,1.3,1.1,3.4-0.2,4.6c-0.6,0.6-1.4,0.8-2.2,0.8C374.8,130.8,373.9,130.4,373.2,129.7"/>
	<path class="st0" d="M343.4,135.7c-1.3-1.2-1.4-3.2-0.2-4.6c1.2-1.3,3.2-1.4,4.6-0.2c1.3,1.2,1.4,3.2,0.2,4.6
		c-0.6,0.7-1.5,1.1-2.4,1.1C344.8,136.5,344,136.2,343.4,135.7 M351.9,126.3c-1.3-1.2-1.4-3.2-0.2-4.6c1.2-1.3,3.2-1.4,4.6-0.2
		c1.3,1.2,1.4,3.2,0.2,4.6c-0.6,0.7-1.5,1.1-2.4,1.1C353.3,127.1,352.5,126.8,351.9,126.3 M360.4,116.8c-1.3-1.2-1.4-3.2-0.2-4.6
		c1.2-1.3,3.2-1.4,4.6-0.2c1.3,1.2,1.4,3.3,0.2,4.6c-0.6,0.7-1.5,1.1-2.4,1.1C361.8,117.7,361,117.4,360.4,116.8 M368.8,107.4
		c-1.3-1.2-1.4-3.2-0.2-4.6c1.2-1.3,3.2-1.4,4.6-0.2c1.3,1.2,1.4,3.2,0.2,4.6c-0.6,0.7-1.5,1.1-2.4,1.1
		C370.2,108.3,369.5,108,368.8,107.4 M377.3,98c-1.3-1.2-1.4-3.2-0.2-4.6c1.2-1.3,3.2-1.4,4.6-0.2c1.3,1.2,1.4,3.2,0.2,4.6
		c-0.6,0.7-1.5,1.1-2.4,1.1C378.7,98.8,377.9,98.6,377.3,98 M385.8,88.6c-1.3-1.2-1.4-3.3-0.2-4.6c1.2-1.3,3.2-1.4,4.6-0.2
		c1.3,1.2,1.4,3.2,0.2,4.6c-0.6,0.7-1.5,1.1-2.4,1.1C387.2,89.4,386.4,89.2,385.8,88.6 M394.3,79.2c-1.3-1.2-1.4-3.2-0.2-4.6
		c1.2-1.3,3.2-1.4,4.6-0.2c1.3,1.2,1.4,3.3,0.2,4.6c-0.6,0.7-1.5,1.1-2.4,1.1C395.7,80,394.9,79.7,394.3,79.2"/>
	<path class="st0" d="M403,69.8c-1.3-1.2-1.4-3.2-0.2-4.6c1.2-1.3,3.2-1.4,4.6-0.2c1.3,1.2,1.4,3.2,0.2,4.6
		c-0.6,0.7-1.5,1.1-2.4,1.1C404.4,70.6,403.6,70.3,403,69.8 M411.4,60.4c-1.3-1.2-1.4-3.2-0.2-4.6c1.2-1.3,3.2-1.4,4.6-0.2
		c1.3,1.2,1.4,3.2,0.2,4.6c-0.6,0.7-1.5,1.1-2.4,1.1C412.8,61.2,412.1,60.9,411.4,60.4 M419.9,50.9c-1.3-1.2-1.4-3.2-0.2-4.6
		c1.2-1.3,3.2-1.4,4.6-0.2c1.3,1.2,1.4,3.3,0.2,4.6c-0.6,0.7-1.5,1.1-2.4,1.1C421.3,51.8,420.5,51.5,419.9,50.9 M428.4,41.5
		c-1.3-1.2-1.4-3.2-0.2-4.6c1.2-1.3,3.2-1.4,4.6-0.2c1.3,1.2,1.4,3.2,0.2,4.6c-0.6,0.7-1.5,1.1-2.4,1.1
		C429.8,42.4,429,42.1,428.4,41.5 M436.9,32.1c-1.3-1.2-1.4-3.2-0.2-4.6c1.2-1.3,3.2-1.4,4.6-0.2c1.3,1.2,1.4,3.2,0.2,4.6
		c-0.6,0.7-1.5,1.1-2.4,1.1C438.3,33,437.5,32.7,436.9,32.1 M445.3,22.7c-1.3-1.2-1.4-3.3-0.2-4.6c1.2-1.3,3.2-1.4,4.6-0.2
		c1.3,1.2,1.4,3.2,0.2,4.6c-0.6,0.7-1.5,1.1-2.4,1.1C446.7,23.5,446,23.3,445.3,22.7 M453.8,13.3c-1.3-1.2-1.4-3.2-0.2-4.6
		c1.2-1.3,3.2-1.4,4.6-0.2c1.3,1.2,1.4,3.3,0.2,4.6c-0.6,0.7-1.5,1.1-2.4,1.1C455.2,14.1,454.4,13.9,453.8,13.3"/>
	<path class="st0" d="M331.3,125.9c-1.4-1.1-1.8-3.1-0.7-4.5c1.1-1.4,3.1-1.8,4.5-0.7c1.4,1,1.8,3.1,0.7,4.5
		c-0.6,0.9-1.6,1.3-2.6,1.3C332.6,126.5,331.9,126.3,331.3,125.9 M338.8,115.6c-1.4-1-1.8-3.1-0.7-4.5c1-1.4,3.1-1.8,4.5-0.7
		c1.5,1.1,1.8,3.1,0.7,4.5c-0.6,0.9-1.6,1.3-2.6,1.3C340,116.3,339.3,116.1,338.8,115.6 M346.2,105.4c-1.4-1.1-1.8-3.1-0.7-4.5
		c1-1.4,3.1-1.8,4.5-0.7c1.4,1,1.8,3.1,0.7,4.5c-0.6,0.9-1.6,1.3-2.6,1.3C347.5,106,346.8,105.8,346.2,105.4 M353.7,95.1
		c-1.5-1-1.8-3.1-0.7-4.5c1-1.4,3.1-1.8,4.5-0.7c1.4,1,1.8,3.1,0.7,4.5c-0.6,0.9-1.6,1.3-2.6,1.3C354.9,95.8,354.2,95.6,353.7,95.1
		 M361.1,84.9c-1.4-1.1-1.8-3.1-0.7-4.5c1.1-1.4,3.1-1.8,4.5-0.7c1.4,1,1.8,3.1,0.7,4.5c-0.6,0.9-1.6,1.3-2.6,1.3
		C362.3,85.5,361.7,85.3,361.1,84.9 M368.6,74.6c-1.4-1.1-1.8-3.1-0.7-4.5c1.1-1.4,3.1-1.8,4.5-0.7c1.4,1,1.8,3.1,0.7,4.5
		c-0.6,0.9-1.6,1.3-2.6,1.3C369.8,75.3,369.1,75.1,368.6,74.6 M376,64.4c-1.4-1-1.8-3.1-0.7-4.5c1-1.4,3.1-1.8,4.5-0.7
		c1.5,1.1,1.8,3.1,0.7,4.5c-0.6,0.9-1.6,1.3-2.6,1.3C377.2,65,376.6,64.8,376,64.4 M383.4,54.1c-1.4-1.1-1.8-3.1-0.7-4.5
		c1.1-1.4,3.1-1.8,4.5-0.7c1.4,1,1.8,3.1,0.7,4.5c-0.6,0.9-1.6,1.3-2.6,1.3C384.7,54.8,384,54.6,383.4,54.1 M390.9,43.9
		c-1.5-1-1.8-3.1-0.7-4.5c1.1-1.4,3.1-1.8,4.5-0.7c1.5,1.1,1.8,3.1,0.7,4.5c-0.6,0.9-1.6,1.3-2.6,1.3
		C392.1,44.5,391.5,44.3,390.9,43.9 M398.3,33.6c-1.4-1-1.8-3.1-0.7-4.5c1-1.4,3.1-1.8,4.5-0.7c1.4,1.1,1.8,3.1,0.7,4.5
		c-0.6,0.9-1.6,1.3-2.6,1.3C399.6,34.3,398.9,34.1,398.3,33.6"/>
	<path class="st0" d="M318.3,117.4c-1.5-0.9-2.1-2.9-1.2-4.4c0.9-1.5,2.9-2.1,4.4-1.2c1.6,0.9,2.1,2.9,1.2,4.4
		c-0.6,1-1.7,1.6-2.8,1.6C319.4,117.9,318.8,117.7,318.3,117.4 M324.6,106.4c-1.6-0.9-2.1-2.9-1.2-4.4c0.9-1.5,2.9-2.1,4.4-1.2
		c1.5,0.9,2.1,2.9,1.2,4.4c-0.6,1-1.7,1.6-2.8,1.6C325.7,106.9,325.1,106.7,324.6,106.4 M330.9,95.5c-1.5-0.9-2.1-2.9-1.2-4.4
		c0.9-1.5,2.9-2.1,4.4-1.2c1.6,0.9,2.1,2.9,1.2,4.4c-0.6,1-1.7,1.6-2.8,1.6C332,95.9,331.5,95.8,330.9,95.5 M337.3,84.5
		c-1.5-0.9-2.1-2.9-1.2-4.4c0.9-1.5,2.9-2.1,4.4-1.2c1.6,0.9,2.1,2.9,1.2,4.4c-0.6,1-1.7,1.6-2.8,1.6
		C338.4,84.9,337.8,84.8,337.3,84.5 M343.6,73.5c-1.5-0.9-2.1-2.9-1.2-4.4c0.9-1.5,2.9-2.1,4.4-1.2c1.6,0.9,2.1,2.9,1.2,4.4
		c-0.6,1-1.7,1.6-2.8,1.6C344.7,74,344.1,73.8,343.6,73.5 M350,62.6c-1.6-0.9-2.1-2.9-1.2-4.4c0.9-1.5,2.9-2.1,4.4-1.2
		c1.6,0.9,2.1,2.9,1.2,4.4c-0.6,1-1.7,1.6-2.8,1.6C351,63,350.5,62.9,350,62.6"/>
	<path class="st0" d="M304.4,110.4c-1.6-0.7-2.4-2.6-1.6-4.3c0.7-1.6,2.6-2.4,4.3-1.6c1.6,0.7,2.4,2.6,1.6,4.3
		c-0.5,1.2-1.7,1.9-3,1.9C305.3,110.6,304.9,110.5,304.4,110.4 M309.6,98.8c-1.6-0.7-2.4-2.6-1.6-4.3c0.7-1.6,2.6-2.4,4.3-1.6
		c1.6,0.7,2.4,2.6,1.6,4.3c-0.5,1.2-1.7,1.9-3,1.9C310.5,99.1,310,99,309.6,98.8 M314.7,87.2c-1.6-0.7-2.4-2.6-1.6-4.3
		c0.7-1.6,2.6-2.4,4.3-1.6c1.6,0.7,2.4,2.6,1.6,4.3c-0.5,1.2-1.7,1.9-3,1.9C315.6,87.5,315.2,87.4,314.7,87.2 M319.9,75.6
		c-1.6-0.7-2.4-2.6-1.6-4.3c0.7-1.6,2.6-2.4,4.3-1.6c1.6,0.7,2.4,2.6,1.6,4.3c-0.5,1.2-1.7,1.9-3,1.9
		C320.8,75.9,320.3,75.8,319.9,75.6 M325,64.1c-1.6-0.7-2.4-2.6-1.6-4.3c0.7-1.6,2.6-2.4,4.3-1.6c1.6,0.7,2.4,2.6,1.6,4.3
		c-0.5,1.2-1.7,1.9-3,1.9C325.9,64.3,325.5,64.3,325,64.1 M330.2,52.5c-1.6-0.7-2.4-2.6-1.6-4.3c0.7-1.6,2.6-2.4,4.3-1.6
		c1.6,0.7,2.4,2.6,1.6,4.3c-0.5,1.2-1.7,1.9-3,1.9C331.1,52.8,330.6,52.7,330.2,52.5 M335.3,40.9c-1.6-0.7-2.4-2.6-1.6-4.3
		c0.7-1.6,2.6-2.4,4.3-1.6c1.6,0.7,2.4,2.6,1.6,4.3c-0.5,1.2-1.7,1.9-3,1.9C336.2,41.2,335.8,41.1,335.3,40.9 M340.5,29.3
		c-1.6-0.7-2.4-2.6-1.6-4.3c0.7-1.6,2.6-2.4,4.3-1.6c1.6,0.7,2.4,2.6,1.6,4.3c-0.5,1.2-1.7,1.9-3,1.9
		C341.4,29.6,340.9,29.5,340.5,29.3 M345.6,17.8c-1.6-0.7-2.4-2.6-1.6-4.3c0.7-1.6,2.6-2.4,4.3-1.6c1.6,0.7,2.4,2.6,1.6,4.3
		c-0.5,1.2-1.7,1.9-3,1.9C346.5,18.1,346.1,18,345.6,17.8 M350.8,6.2c-1.6-0.7-2.4-2.6-1.6-4.3c0.7-1.6,2.6-2.4,4.3-1.6
		c1.6,0.7,2.4,2.6,1.6,4.3c-0.5,1.2-1.7,1.9-3,1.9C351.7,6.5,351.2,6.4,350.8,6.2"/>
	<path class="st0" d="M289.9,104.8c-1.7-0.6-2.6-2.4-2.1-4.1c0.6-1.7,2.4-2.6,4.1-2.1c1.7,0.6,2.6,2.4,2.1,4.1
		c-0.4,1.4-1.7,2.2-3.1,2.2C290.6,104.9,290.2,104.9,289.9,104.8 M293.8,92.7c-1.7-0.6-2.6-2.4-2.1-4.1c0.6-1.7,2.4-2.6,4.1-2.1
		c1.7,0.6,2.6,2.4,2.1,4.1c-0.4,1.4-1.7,2.2-3.1,2.2C294.5,92.9,294.2,92.8,293.8,92.7 M297.7,80.7c-1.7-0.6-2.6-2.4-2.1-4.1
		c0.6-1.7,2.4-2.6,4.1-2.1c1.7,0.6,2.6,2.4,2.1,4.1c-0.4,1.4-1.7,2.2-3.1,2.2C298.4,80.8,298.1,80.8,297.7,80.7 M301.7,68.6
		c-1.7-0.6-2.6-2.4-2.1-4.1c0.6-1.7,2.4-2.6,4.1-2.1c1.7,0.5,2.6,2.4,2.1,4.1c-0.4,1.4-1.7,2.2-3.1,2.2
		C302.3,68.8,302,68.7,301.7,68.6 M305.6,56.6c-1.7-0.6-2.6-2.4-2.1-4.1c0.6-1.7,2.4-2.6,4.1-2.1c1.7,0.5,2.6,2.4,2.1,4.1
		c-0.4,1.4-1.7,2.2-3.1,2.2C306.2,56.8,305.9,56.7,305.6,56.6"/>
	<path class="st0" d="M274.9,100.8c-1.8-0.4-2.9-2.1-2.5-3.8c0.4-1.8,2.1-2.9,3.8-2.5c1.8,0.4,2.9,2.1,2.5,3.8
		c-0.3,1.5-1.7,2.6-3.2,2.6C275.3,100.8,275.1,100.8,274.9,100.8"/>
	<path class="st0" d="M259.5,98.3c-1.8-0.2-3.1-1.8-2.9-3.6c0.2-1.8,1.8-3.1,3.6-2.9c1.8,0.2,3.1,1.8,2.9,3.6
		c-0.2,1.7-1.6,2.9-3.2,2.9C259.8,98.3,259.6,98.3,259.5,98.3 M260.9,85.7c-1.8-0.2-3.1-1.8-2.9-3.6c0.2-1.8,1.8-3.1,3.6-2.9
		c1.8,0.2,3.1,1.8,2.9,3.6c-0.2,1.7-1.6,2.9-3.2,2.9C261.1,85.7,261,85.7,260.9,85.7 M262.2,73.1c-1.8-0.2-3.1-1.8-2.9-3.6
		c0.2-1.8,1.8-3.1,3.6-2.9c1.8,0.2,3.1,1.8,2.9,3.6c-0.2,1.7-1.6,2.9-3.2,2.9C262.4,73.1,262.3,73.1,262.2,73.1 M263.5,60.5
		c-1.8-0.2-3.1-1.8-2.9-3.6c0.2-1.8,1.8-3.1,3.6-2.9c1.8,0.2,3.1,1.8,2.9,3.6c-0.2,1.7-1.6,2.9-3.2,2.9
		C263.7,60.5,263.6,60.5,263.5,60.5 M264.8,47.9c-1.8-0.2-3.1-1.8-2.9-3.6c0.2-1.8,1.8-3.1,3.6-2.9c1.8,0.2,3.1,1.8,2.9,3.6
		c-0.2,1.7-1.6,2.9-3.2,2.9C265.1,47.9,264.9,47.9,264.8,47.9 M266.2,35.3c-1.8-0.2-3.1-1.8-2.9-3.6c0.2-1.8,1.8-3.1,3.6-2.9
		c1.8,0.2,3.1,1.8,2.9,3.6c-0.2,1.7-1.6,2.9-3.2,2.9C266.4,35.4,266.3,35.3,266.2,35.3"/>
</g>
</svg>
